<?xml version="1.0" standalone="no"?>
<!DOCTYPE svg PUBLIC "-//W3C//DTD SVG 1.1//EN" "http://www.w3.org/Graphics/SVG/1.1/DTD/svg11.dtd" >
<svg xmlns="http://www.w3.org/2000/svg">
<metadata></metadata>
<defs>
<font id="casperregular" horiz-adv-x="1101" >
<font-face units-per-em="2048" ascent="1638" descent="-410" />
<missing-glyph horiz-adv-x="614" />
<glyph horiz-adv-x="933" />
<glyph horiz-adv-x="933" />
<glyph horiz-adv-x="0" />
<glyph unicode="&#xd;" horiz-adv-x="512" />
<glyph unicode=" "  horiz-adv-x="614" />
<glyph unicode="&#x09;" horiz-adv-x="614" />
<glyph unicode="&#xa0;" horiz-adv-x="614" />
<glyph unicode="!" horiz-adv-x="382" d="M86 1423h219l-51 -1104h-115zM94 74q0 41 30 70.5t73 29.5q41 0 70.5 -29.5t29.5 -70.5t-29.5 -70t-70.5 -29q-43 0 -73 29t-30 70z" />
<glyph unicode="&#x22;" horiz-adv-x="731" d="M96 1423h217l-49 -508h-114zM416 1423h217l-51 -508h-113z" />
<glyph unicode="#" horiz-adv-x="1134" d="M43 385v143h193l69 349h-262v143h291l84 403h145l-84 -403h303l82 403h146l-84 -403h166v-143h-195l-72 -349h267v-143h-295l-84 -410h-144l82 410h-301l-84 -410h-143l84 410h-164zM379 528h301l72 349h-301z" />
<glyph unicode="$" horiz-adv-x="958" d="M31 291l129 78q53 -115 137 -170.5t190 -55.5q80 0 144.5 33t109.5 105q29 47 29 104q0 41 -13 78.5t-40 64.5q-51 51 -116.5 82t-137.5 56.5t-145.5 56.5t-137.5 82q-55 45 -81.5 109.5t-26.5 136.5q0 55 15 108t44 96q59 90 135 124t150 40v131h129v-131 q98 -10 183 -52t151 -128l-109 -111q-59 78 -127 111t-156 33q-72 0 -131 -22.5t-104 -90.5q-10 -18 -18.5 -45t-8.5 -57q0 -31 10.5 -62.5t38.5 -54.5q59 -53 129 -84t141.5 -57.5t141.5 -58t131 -89.5q53 -49 79 -117.5t26 -140.5q0 -59 -16.5 -115.5t-51.5 -103.5 q-66 -90 -141.5 -132t-167.5 -50v-178h-129v182q-125 16 -224.5 90t-160.5 205z" />
<glyph unicode="%" horiz-adv-x="1597" d="M68 1075q0 66 13 132.5t45 119.5t85 87t133 34q78 0 131 -34t86 -87t47.5 -119.5t14.5 -132.5q0 -63 -13.5 -130.5t-45.5 -123t-84 -90.5t-128 -35h-8q-80 0 -132 34t-85 87t-46 122t-13 136zM199 1075q0 -35 6 -79t22.5 -81.5t45 -63.5t73.5 -26q43 0 71.5 27t45 65.5 t24 81.5t7.5 76t-7.5 75t-24 79t-45 62.5t-71.5 25.5q-45 0 -73.5 -24.5t-45 -61.5t-22.5 -79t-6 -77zM340 -25l764 1473h143l-762 -1473h-145zM975 354q0 66 13 132.5t45 121t84 88t132 33.5t133.5 -33.5t86 -87t47 -120t14.5 -132.5t-14.5 -133t-46 -122.5t-85 -90.5 t-133.5 -35t-132 34t-85 88.5t-46 122t-13 134.5zM1106 354q0 -35 6 -78t22.5 -81.5t45 -64.5t73.5 -26q43 0 71 28t45 67t23.5 81.5t6.5 75.5t-6.5 75t-23.5 79t-45 62.5t-71 25.5q-45 0 -73.5 -25.5t-45 -62.5t-22.5 -79t-6 -77z" />
<glyph unicode="&#x26;" horiz-adv-x="1286" d="M84 410v8q0 111 42 196.5t140 147.5q-59 59 -92 134t-33 161q0 193 117 292t309 99q119 0 196 -36t132 -105l-137 -107q-29 41 -82 60.5t-111 19.5q-115 0 -183.5 -53t-68.5 -170q0 -39 13.5 -79t39 -72t61.5 -51t81 -19h350q0 53 -6 107t-18 101l165 80 q25 -70 30 -143.5t5 -144.5h178v-160h-178v-422q0 -61 44 -93t106 -32h55v-131l-55 -14q-31 -8 -68 -9q-61 0 -113.5 28t-87.5 75q-66 -57 -144.5 -80t-180.5 -23q-80 0 -161 16.5t-148.5 54.5t-117.5 98.5t-69 148.5q-6 29 -8 58.5t-2 58.5zM248 410q0 -70 28.5 -120 t75.5 -82t109.5 -47.5t128.5 -15.5q94 0 154.5 21.5t113.5 85.5v424h-276q-68 0 -129.5 -11.5t-106.5 -42t-71.5 -82t-26.5 -130.5z" />
<glyph unicode="'" horiz-adv-x="348" d="M61 1423h218l-50 -508h-114z" />
<glyph unicode="(" horiz-adv-x="540" d="M29 516q0 236 84 468.5t237 465.5h152q-88 -129 -147.5 -250t-94.5 -235.5t-50 -226t-15 -222.5t15 -223.5t50 -227t94.5 -236.5t147.5 -251h-152q-154 229 -237.5 465t-83.5 473z" />
<glyph unicode=")" horiz-adv-x="540" d="M39 -422q88 129 147.5 251t94 236.5t50 227.5t15.5 223q0 111 -15.5 221.5t-50 226t-94 235.5t-147.5 249h151q154 -233 238 -464.5t84 -467.5q0 -238 -84 -473.5t-238 -464.5h-151z" />
<glyph unicode="*" horiz-adv-x="708" d="M33 1149l49 133l215 -92l-14 233h143l-16 -233l217 92l49 -133l-234 -68l152 -192l-117 -80l-123 203l-123 -203l-116 80l151 192z" />
<glyph unicode="+" horiz-adv-x="964" d="M4 645q0 35 14 80h383v383q23 6 42.5 10t37.5 4t38 -4t44 -10v-383h383q14 -49 15 -80q0 -18 -4.5 -37.5t-10.5 -44.5h-383v-383q-25 -6 -44 -10t-38 -4q-18 0 -37.5 4t-42.5 10v383h-383q-14 45 -14 82z" />
<glyph unicode="," horiz-adv-x="366" d="M84 -227q49 16 81 60t32 95q0 25 -9 47q-41 0 -69.5 29t-28.5 70t28.5 70.5t74.5 29.5q38 0 69 -27q27 -23 42 -65.5t15 -95.5q0 -92 -55 -169t-137 -112z" />
<glyph unicode="-" horiz-adv-x="811" d="M117 561q0 18 4 37.5t12 46.5h543q8 -27 12 -45t4 -37q0 -18 -4 -37.5t-12 -44.5h-543q-8 27 -12 45.5t-4 34.5z" />
<glyph unicode="." horiz-adv-x="374" d="M78 82q0 47 31.5 77.5t76.5 30.5q47 0 79 -30.5t32 -77.5q0 -45 -32 -76t-79 -31q-45 0 -76.5 31t-31.5 76z" />
<glyph unicode="/" horiz-adv-x="561" d="M2 -25l414 1473h143l-412 -1473h-145z" />
<glyph unicode="0" horiz-adv-x="1110" d="M84 709q0 74 4 151.5t16 140.5q16 86 53.5 162t94.5 134.5t133 92t172 33.5q94 0 169 -33.5t131 -91t93 -132t54 -156.5q12 -66 17 -146t5 -155q0 -35 -1 -74t-3 -80t-7 -81t-11 -73q-16 -82 -54.5 -158.5t-95.5 -136t-133 -95.5t-168 -36q-90 0 -166 37t-134 97.5 t-96 137.5t-53 156q-12 66 -16 152t-4 154zM262 709q0 -61 3 -140.5t14 -134.5q8 -49 30.5 -100t58 -92t83 -66.5t106.5 -25.5q55 0 102.5 25.5t82 67.5t57 92t30.5 99q10 57 15.5 135t5.5 140q0 68 -4 139.5t-17 124.5q-12 51 -32.5 100t-53 88t-79 63.5t-105.5 24.5 q-61 0 -108.5 -24.5t-82 -63.5t-57 -90t-32.5 -102t-13.5 -122t-3.5 -138z" />
<glyph unicode="1" horiz-adv-x="833" d="M33 1087l323 310h174v-1239h285v-158h-762v158h299v1009l-215 -198z" />
<glyph unicode="2" horiz-adv-x="1073" d="M84 0v115q0 94 68 161l555 558q35 35 58 95t23 120q0 47 -16 89t-55 68q-41 29 -91.5 36t-99.5 7q-86 0 -152.5 -37.5t-105.5 -115.5l-153 78q59 123 161.5 186t255.5 63q74 0 147 -16t136 -59q76 -53 111 -132t35 -167q0 -94 -35 -184.5t-99 -153.5l-546 -539h700v-172 h-897z" />
<glyph unicode="3" horiz-adv-x="1011" d="M55 256l158 70q43 -94 109 -136q63 -41 170 -40q70 0 138 26.5t101 91.5q12 25 18.5 63t6.5 79q0 39 -6.5 74.5t-16.5 58.5q-20 41 -56 65.5t-79 36.5t-90 16.5t-86 4.5h-86v157l323 404h-565v170h770v-123q0 -78 -51 -141l-250 -306q104 -16 192.5 -65t135.5 -148 q18 -39 27.5 -95t9.5 -116q0 -57 -8.5 -109t-28.5 -93q-63 -127 -169 -176.5t-230 -49.5q-150 0 -261 68q-113 72 -176 213z" />
<glyph unicode="4" horiz-adv-x="1056" d="M45 358v172l604 867h178v-875h189l-51 -164h-138v-358h-172v358h-610zM250 522h405v582z" />
<glyph unicode="5" horiz-adv-x="1007" d="M74 256l157 70q41 -96 108 -136t169 -40q47 0 96 16t84 49q25 23 39 53.5t21.5 66.5t9.5 71.5t2 66.5t-2 68t-9.5 71.5t-21.5 66.5t-39 54q-35 31 -84 47.5t-96 16.5q-72 0 -132.5 -27t-105.5 -86h-157l51 713h729v-170h-569l-21 -299q92 43 205 43q80 0 156.5 -26.5 t136.5 -80.5q43 -37 68.5 -83t39 -96t18.5 -104.5t5 -107.5q0 -106 -24.5 -209.5t-106.5 -179.5q-59 -53 -136 -81t-157 -28q-154 0 -262.5 69t-171.5 212z" />
<glyph unicode="6" horiz-adv-x="1034" d="M86 676v55q0 139 21.5 265t103.5 249q61 92 162.5 135t208.5 43q80 0 160.5 -24.5t142.5 -77.5l-113 -135q-39 35 -89 49t-101 14q-61 0 -126 -23.5t-102 -78.5q-43 -63 -61.5 -133t-24.5 -148q57 41 126 62.5t141 21.5q78 0 156.5 -21.5t137.5 -74.5q43 -37 68 -83 t39 -96t18 -103.5t4 -106.5q0 -106 -24.5 -210.5t-106.5 -178.5q-59 -51 -133.5 -76t-152.5 -25q-172 0 -299 109q-59 49 -90 120.5t-46.5 151.5t-17.5 163t-2 157zM268 463q0 -61 19.5 -132t68.5 -116q37 -35 86.5 -50t98.5 -15q47 0 92 15t80 44q51 47 61 119.5t10 136.5 q0 31 -1 66.5t-7 70.5t-20.5 66.5t-38.5 54.5q-35 29 -80 43t-92 14q-49 0 -99.5 -14t-89.5 -49q-51 -45 -69.5 -118t-18.5 -136z" />
<glyph unicode="7" horiz-adv-x="958" d="M41 1227v170h905v-133q0 -94 -67 -162q-219 -219 -342 -496.5t-123 -597.5v-8h-172v8q0 356 135 654.5t407 564.5h-743z" />
<glyph unicode="8" horiz-adv-x="1007" d="M72 403q0 66 21.5 119t58 96.5t86 77t102.5 58.5q-104 47 -156.5 134t-52.5 199q0 47 11.5 86t29.5 70q49 86 136 133t198 47t200 -47t136 -137q16 -31 26.5 -67.5t10.5 -84.5q0 -109 -54.5 -178t-142.5 -129q115 -51 183.5 -149.5t68.5 -222.5q0 -84 -20.5 -161 t-79.5 -136q-68 -68 -153 -102t-177 -34q-94 0 -180 35t-152 101q-61 61 -80.5 133.5t-19.5 158.5zM244 403q0 -47 8 -90t43 -77q41 -41 96.5 -63.5t114.5 -22.5q119 0 205 86q35 35 43 77.5t8 89.5q0 78 -43 138.5t-115 93.5l-129 57q-43 -16 -84 -43.5t-73.5 -66.5 t-53 -84t-20.5 -95zM305 1087q0 -80 38 -126t99 -74l99 -43q25 12 54.5 33.5t54 51t41 69.5t16.5 89q0 39 -18.5 70t-47.5 51.5t-64.5 30.5t-70.5 10t-71 -11t-64.5 -31.5t-47 -50.5t-18.5 -69z" />
<glyph unicode="9" horiz-adv-x="1021" d="M72 944q2 96 28.5 183t79.5 153t132 104.5t188 38.5q78 0 155.5 -26.5t137.5 -77.5q53 -47 81.5 -111.5t43 -138.5t16.5 -150.5t2 -146.5v-65q0 -152 -23.5 -284t-79 -232.5t-145.5 -158t-221 -57.5q-92 0 -180 31t-154 96l125 121q80 -74 201 -73q84 0 142 40.5t95 103 t53.5 137.5t16.5 144q-57 -57 -130 -77.5t-144 -20.5q-106 0 -185.5 37t-131.5 101.5t-77.5 148.5t-25.5 180zM246 950q0 -61 11 -116.5t39 -97.5t76 -66.5t120 -24.5q70 0 118.5 23.5t79.5 65.5t45.5 97.5t14.5 118.5t-12.5 118.5t-42 95.5t-78 62.5t-119.5 22.5 q-72 0 -120 -23.5t-77 -63.5t-42 -94t-13 -118z" />
<glyph unicode=":" horiz-adv-x="411" d="M96 82q0 47 32 77.5t77 30.5q47 0 78.5 -30.5t31.5 -77.5q0 -45 -31.5 -76t-78.5 -31q-45 0 -77 31t-32 76zM96 924q0 47 32 77.5t77 30.5q47 0 78.5 -30.5t31.5 -77.5q0 -45 -31.5 -76t-78.5 -31q-45 0 -77 31t-32 76z" />
<glyph unicode=";" horiz-adv-x="368" d="M53 -227q49 16 81 60t32 95q0 25 -8 47q-41 0 -70 29t-29 70t29 70.5t74 29.5q38 0 69 -27q27 -23 42.5 -65.5t15.5 -95.5q0 -92 -55.5 -169t-137.5 -112zM53 924q0 47 32 77.5t77 30.5q47 0 78.5 -30.5t31.5 -77.5q0 -45 -31.5 -76t-78.5 -31q-45 0 -77 31t-32 76z" />
<glyph unicode="&#x3c;" horiz-adv-x="946" d="M0 621v161l885 369v-176l-715 -275l715 -280v-174z" />
<glyph unicode="=" horiz-adv-x="1200" d="M123 485q0 18 3 36.5t9 43.5h928q14 -49 14 -80q0 -18 -4 -37.5t-10 -41.5h-928q-12 45 -12 79zM123 911q0 33 12 82h928q6 -25 10 -44t4 -38q0 -18 -4 -37.5t-10 -42.5h-928q-12 45 -12 80z" />
<glyph unicode="&#x3e;" horiz-adv-x="1007" d="M123 246v174l715 280l-715 275v176l885 -369v-161z" />
<glyph unicode="?" horiz-adv-x="866" d="M18 1321q74 66 173.5 97.5t193.5 31.5q86 0 163 -24.5t134 -71.5t90 -117t33 -160q0 -55 -12.5 -96t-32 -75t-47 -63.5t-58.5 -60.5l-32 -32q-31 -31 -65 -69t-61.5 -88t-46 -117.5t-18.5 -158.5h-131q0 129 20.5 220.5t52.5 157t72.5 110.5t83.5 86q45 43 77 85t32 101 q0 55 -20.5 95t-55.5 67t-81 39t-97 12q-68 0 -137.5 -25.5t-126.5 -72.5zM266 74q0 41 30 70.5t71 29.5q43 0 72.5 -29.5t29.5 -70.5t-29.5 -70t-72.5 -29q-41 0 -71 29t-30 70z" />
<glyph unicode="@" horiz-adv-x="1972" d="M72 504q0 197 74.5 368.5t202.5 299.5t300 203t369 75q174 0 344 -54.5t299 -172.5q68 -63 114 -134t73.5 -145t40 -148.5t12.5 -144.5q0 -117 -35 -225q-27 -82 -71 -148.5t-100.5 -112.5t-123 -70.5t-137.5 -24.5q-72 0 -143.5 29.5t-143.5 90.5q-39 0 -71 -18 t-67.5 -42t-80.5 -42t-109 -18q-59 0 -109.5 16t-89 48t-60 78t-21.5 107q0 111 71.5 177.5t188.5 87.5l348 61v37q0 90 -59.5 135t-153.5 45q-82 0 -134 -40t-79 -111l-148 32q39 119 136.5 180.5t224.5 61.5q72 0 137.5 -19.5t115.5 -59.5t79.5 -98t29.5 -136v-385 q74 -57 138 -58q51 0 94 19.5t76.5 53.5t60.5 78t43 95q27 78 27 174q0 55 -8.5 114.5t-30 118t-57 115t-91.5 105.5q-104 96 -245.5 139t-284.5 43q-162 0 -304.5 -61.5t-248 -168t-166.5 -247.5t-61 -303t61 -301.5t166.5 -241.5t248 -160.5t304.5 -58.5q156 0 298 49 t253 160l117 -119q-135 -131 -307.5 -192.5t-360.5 -61.5q-197 0 -369 71.5t-300 195.5t-202.5 293t-74.5 366zM694 319q0 -66 47 -94t101 -28q35 0 69.5 19.5t70.5 42t77 41.5t88 19v211l-326 -71q-51 -12 -89 -47t-38 -93z" />
<glyph unicode="A" horiz-adv-x="1386" d="M37 0l530 1423h230l557 -1423h-193l-166 430h-604l-158 -430h-196zM444 584h492l-195 499l-57 207l-55 -207z" />
<glyph unicode="B" horiz-adv-x="1271" d="M123 0v1423h571q88 0 164 -20.5t131 -65.5t87 -114.5t32 -167.5q0 -178 -139 -287v-12q102 -51 164.5 -134t62.5 -216q0 -109 -38 -186t-102.5 -126t-149.5 -71.5t-181 -22.5h-602zM307 168h438q59 0 105.5 10t79.5 37t49 74t16 119q0 123 -69.5 186t-192.5 63h-426v-489 zM307 825h342q49 0 97.5 14.5t86 42t60 70.5t22.5 103q0 117 -58 158.5t-157 41.5h-393v-430z" />
<glyph unicode="C" horiz-adv-x="1273" d="M96 713v75q0 156 40 278t120 207t201 130t282 45q125 0 245 -42t208 -132l-125 -125q-63 66 -150.5 97.5t-177.5 31.5q-135 0 -222 -44t-138 -114.5t-70.5 -159t-19.5 -176.5v-67q0 -102 13 -203.5t59.5 -184.5t135.5 -134.5t242 -51.5q92 0 177 34t151 104l129 -121 q-90 -96 -209 -140.5t-248 -44.5q-182 0 -305 56.5t-197.5 155t-107.5 233.5t-33 293z" />
<glyph unicode="D" horiz-adv-x="1409" d="M131 0v1423h623q152 0 256 -57t169.5 -155.5t95.5 -227.5t30 -272q0 -154 -27 -284t-90.5 -225.5t-168.5 -148.5t-261 -53h-627zM315 168h418q113 0 185.5 41t113.5 113.5t56.5 172t15.5 216.5q0 113 -18.5 212t-61.5 172.5t-114.5 116.5t-178.5 43h-416v-1087z" />
<glyph unicode="E" horiz-adv-x="1191" d="M123 0v1423h1024l-53 -168h-787v-415h705v-170h-705v-502h834v-168h-1018z" />
<glyph unicode="F" horiz-adv-x="1087" d="M123 0v1423h964l-53 -168h-727v-415h676v-170h-676v-670h-184z" />
<glyph unicode="G" horiz-adv-x="1325" d="M76 686v47q0 72 4 137.5t19.5 128t48 124t90.5 122.5q102 111 232 157t275 46q129 0 247 -44t210 -153l-127 -106q-25 35 -62.5 60.5t-81.5 42t-92 23.5t-94 7q-111 0 -202.5 -36t-165.5 -118q-80 -86 -98.5 -183t-18.5 -210v-51q0 -113 24.5 -206t102.5 -181 q37 -41 87 -69.5t105.5 -46t113 -26t112.5 -8.5t125.5 19.5t122.5 42.5v362h-308v172h484v-639q-98 -53 -210 -89t-226 -36q-74 0 -149 11.5t-146.5 37t-136 64.5t-113.5 94q-102 113 -137 235t-35 269z" />
<glyph unicode="H" horiz-adv-x="1366" d="M123 0v1423h184v-583h750v583h184v-1423h-184v670h-750v-670h-184z" />
<glyph unicode="I" horiz-adv-x="464" d="M143 0v1423h185v-1423h-185z" />
<glyph unicode="J" horiz-adv-x="972" d="M78 373h180q0 -49 8 -91t28.5 -73t57.5 -48.5t94 -17.5q127 0 176.5 65.5t49.5 182.5v1032h188v-1032q0 -201 -105.5 -308.5t-310.5 -107.5q-98 0 -167.5 32t-113.5 86t-64.5 126t-20.5 154z" />
<glyph unicode="K" horiz-adv-x="1177" d="M123 0v1423h184v-622h144l407 622h211l-442 -690l528 -733h-221l-479 666h-148v-666h-184z" />
<glyph unicode="L" horiz-adv-x="1048" d="M123 0v1423h184v-1255h703l-52 -168h-835z" />
<glyph unicode="M" horiz-adv-x="1619" d="M127 0v1423h289l403 -1007l418 1007h258v-1423h-184v1190l-410 -1022h-176l-414 1046v-1214h-184z" />
<glyph unicode="N" horiz-adv-x="1378" d="M123 0v1423h235l711 -1142v1142h184v-1423h-225l-721 1165v-1165h-184z" />
<glyph unicode="O" horiz-adv-x="1499" d="M82 713v55q0 145 46 270t132 216.5t210 142.5t280 51t279.5 -51t209.5 -142.5t132 -216.5t46 -270v-55q0 -154 -38 -289t-117.5 -234.5t-206.5 -157t-305 -57.5t-305.5 57.5t-207 157t-117.5 234.5t-38 289zM274 717q0 -117 28 -220.5t85 -182t146.5 -125t211.5 -46.5 q127 0 218.5 44t149.5 121t85 181.5t27 227.5v47q0 104 -32 198.5t-92.5 164t-149 110.5t-201.5 41q-115 0 -203 -41t-148.5 -110.5t-92.5 -164t-32 -198.5v-47z" />
<glyph unicode="P" horiz-adv-x="1263" d="M123 0v1423h657q102 0 180 -33.5t129.5 -92t77 -140.5t25.5 -176q0 -96 -23.5 -177t-74 -140.5t-128 -93t-186.5 -33.5h-473v-537h-184zM307 707h441q139 0 199.5 76.5t60.5 197.5q0 119 -67 196.5t-193 77.5h-441v-548z" />
<glyph unicode="Q" horiz-adv-x="1478" d="M59 713v55q0 145 46.5 270t132.5 216.5t209.5 142.5t279.5 51t279.5 -51t210 -142.5t132.5 -216.5t46 -270v-55q0 -154 -38 -289t-118 -234.5t-207 -157t-305 -57.5t-305 57.5t-207 157t-118 234.5t-38 289zM252 717q0 -117 27.5 -220.5t85 -182t146.5 -125t212 -46.5 q127 0 218 44t149.5 121t85 181.5t26.5 227.5v47q0 104 -31.5 198.5t-92 164t-149.5 110.5t-202 41q-115 0 -203 -41t-148.5 -110.5t-92 -164t-31.5 -198.5v-47zM319 -59q135 0 224.5 -13.5t157 -34t127 -45t134 -45t178 -34t259.5 -13.5v-153q-154 0 -256.5 12t-177 31.5 t-135 43t-129 44t-158.5 36t-224 19.5v152z" />
<glyph unicode="R" horiz-adv-x="1335" d="M123 0v1423h647q90 0 166 -27.5t130 -79.5t85 -126t31 -166q0 -182 -103.5 -294t-290.5 -122l330 -413q37 -47 65.5 -56.5t71.5 -9.5v-129q-23 -12 -52 -18.5t-50 -6.5q-59 0 -107.5 41t-87.5 88l-360 449q-23 29 -57.5 41t-69.5 12h-164v-606h-184zM307 772h430 q133 0 196.5 61.5t63.5 190.5q0 119 -60 175t-175 56h-455v-483z" />
<glyph unicode="S" horiz-adv-x="1218" d="M61 285l160 84q63 -117 151.5 -171.5t211.5 -54.5q53 0 115.5 10.5t116.5 37t91 73.5t37 121q0 90 -61.5 138t-153.5 79t-198.5 56.5t-198.5 70.5t-153.5 123t-61.5 211q0 104 45 178t117.5 120t165 66.5t184.5 20.5q131 0 250.5 -52.5t205.5 -150.5l-133 -119 q-66 78 -153.5 115t-192.5 37q-51 0 -104 -12.5t-96.5 -39t-71 -65.5t-27.5 -90q0 -96 60.5 -146.5t152.5 -80t197.5 -54t198 -68.5t152.5 -122t60 -215q0 -111 -51 -188.5t-131 -127t-177 -72t-187 -22.5q-174 0 -307.5 79t-213.5 231z" />
<glyph unicode="T" horiz-adv-x="1167" d="M18 1255v168h1133l-53 -168h-420v-1255h-184v1255h-476z" />
<glyph unicode="U" horiz-adv-x="1372" d="M139 612v811h185v-819q0 -111 12 -195.5t52 -144t113.5 -90.5t196.5 -31q119 0 193 32t115 92.5t54 145.5t13 191v819h184v-811q0 -147 -26.5 -265t-91 -201t-172 -127t-269.5 -44q-164 0 -272.5 43t-172 124t-89 200t-25.5 270z" />
<glyph unicode="V" horiz-adv-x="1359" d="M35 1399l180 49l387 -1010l76 -235l76 235l393 1010l178 -49l-539 -1399h-213z" />
<glyph unicode="W" horiz-adv-x="1972" d="M72 1399l180 49l307 -1157l299 966h254l299 -966l307 1157l180 -49l-370 -1399h-223l-285 913l-35 164l-35 -164l-284 -913h-224z" />
<glyph unicode="X" horiz-adv-x="1396" d="M41 0l551 739l-463 660l182 49l281 -391l113 -183l114 183l279 391l182 -49l-463 -660l551 -739h-225l-369 504l-69 110l-70 -110l-369 -504h-225z" />
<glyph unicode="Y" horiz-adv-x="1263" d="M25 1399l182 49l405 -641h41l404 641l182 -49l-471 -735q-14 -20 -41 -21v-643h-190v643q-25 0 -41 21z" />
<glyph unicode="Z" horiz-adv-x="1251" d="M70 0v94q0 86 57 150l674 843l149 168h-831l51 168h1006v-88q0 -43 -15.5 -79.5t-42.5 -69.5l-741 -916l-94 -102h915v-168h-1128z" />
<glyph unicode="[" horiz-adv-x="524" d="M123 -397v1820h377v-147h-213v-1528h213v-145h-377z" />
<glyph unicode="\" horiz-adv-x="561" d="M2 1450h143l414 -1475h-145z" />
<glyph unicode="]" horiz-adv-x="528" d="M23 -252h210v1528h-210v147h376v-1820h-376v145z" />
<glyph unicode="^" horiz-adv-x="886" d="M35 672l342 778h133l342 -778h-172l-238 594l-229 -594h-178z" />
<glyph unicode="_" horiz-adv-x="1431" d="M121 -334q0 23 10 64h1169q8 -33 9 -64q0 -31 -9 -63h-1169q-10 41 -10 63z" />
<glyph unicode="`" horiz-adv-x="370" d="M27 1735l2 26h157l156 -252h-141z" />
<glyph unicode="a" horiz-adv-x="1103" d="M82 293q0 68 26.5 124t71.5 97t104.5 63.5t125.5 22.5h385v94q0 111 -66.5 161t-171.5 52q-94 0 -161.5 -22.5t-147.5 -69.5l-76 131q49 29 93 49.5t90 34.5t95.5 20.5t106.5 6.5q86 0 161 -24.5t131 -72t89 -117t33 -161.5v-446q0 -72 13 -123.5t46 -112.5h-188 q-16 23 -25.5 57.5t-11.5 63.5q-84 -61 -185.5 -103.5t-205.5 -42.5q-70 0 -130.5 22.5t-105.5 64.5t-70.5 100.5t-25.5 130.5zM256 291q0 -37 15.5 -66.5t41 -51t57 -34t66.5 -12.5q37 0 85 15.5t98.5 39t96.5 48t79 42.5v179h-383q-33 0 -61.5 -13.5t-49 -35t-33 -51 t-12.5 -60.5z" />
<glyph unicode="b" horiz-adv-x="1077" d="M121 49v1350l176 49l2 -551h12q63 78 135 108.5t148 30.5q98 0 191.5 -53t148.5 -152q39 -68 51 -142.5t12 -162.5v-47q0 -260 -122.5 -382t-374.5 -122q-104 0 -200.5 19.5t-178.5 54.5zM297 166q45 -20 98.5 -29.5t106.5 -9.5q45 0 87 6t79 23q45 18 75.5 52t47 77 t23.5 91t7 93v70q0 68 -7 121t-26 94q-25 55 -77 93t-117 38q-61 0 -111.5 -18.5t-87.5 -50.5t-61.5 -74t-36.5 -89v-487z" />
<glyph unicode="c" horiz-adv-x="1011" d="M100 514v39q0 49 3 94t14.5 87t33 84t60.5 87q33 39 78 67.5t96 47t105.5 28t103.5 9.5q92 0 182 -33t156 -98l-109 -107q-45 39 -99 62.5t-138 23.5q-70 0 -129.5 -23.5t-102.5 -70.5q-45 -49 -67.5 -118.5t-22.5 -141.5v-33q0 -90 24.5 -173t82.5 -138q39 -37 91 -58.5 t124 -21.5q61 0 129.5 20.5t109.5 69.5l109 -104q-68 -72 -159 -105t-189 -33q-82 0 -171 25t-155 78q-55 45 -91 103.5t-52 135.5q-10 49 -13.5 98.5t-3.5 98.5z" />
<glyph unicode="d" horiz-adv-x="1093" d="M88 436v99q0 262 129 392t385 130q96 0 197 -39v381l176 49v-1212q0 -76 14.5 -126.5t44.5 -109.5h-188q-14 20 -24.5 56t-12.5 65q-41 -41 -90 -74q-41 -29 -98.5 -50.5t-120.5 -21.5q-111 0 -189 37t-128 99.5t-72.5 146.5t-22.5 178zM264 426q0 -59 12.5 -112.5 t41 -95.5t72.5 -66.5t110 -24.5q59 0 139 38t160 126v567q-39 23 -96.5 35t-116.5 12q-154 0 -238 -95t-84 -261v-123z" />
<glyph unicode="e" horiz-adv-x="1120" d="M96 502v22q0 51 2 99.5t12.5 95.5t33 93t63.5 91q70 78 166 116t198 38q115 0 204 -37t149.5 -102.5t91.5 -155.5t31 -199v-92h-775q0 -180 83 -262t251 -82q82 0 139.5 34t102.5 93l156 -64q-59 -100 -166 -157.5t-242 -57.5q-137 0 -232.5 38t-154.5 106.5t-86 166 t-27 216.5zM272 614h598v19q0 51 -20.5 100t-59 87t-94 61.5t-125.5 23.5q-66 0 -121 -22.5t-95 -60.5t-61.5 -87t-21.5 -102v-19z" />
<glyph unicode="f" horiz-adv-x="606" d="M37 895v137h129v139q0 57 20.5 108.5t56.5 88.5t84 58.5t103 21.5q29 0 69 -6t74 -19v-129h-104q-127 0 -127 -123v-139h221l-43 -137h-178v-895h-176v895h-129z" />
<glyph unicode="g" horiz-adv-x="1091" d="M94 446v107q0 260 125 382t377 122q102 0 197.5 -19.5t177.5 -54.5v-946q0 -98 -33 -182t-92.5 -145.5t-143.5 -96.5t-188 -35q-115 0 -203 26.5t-186 84.5l84 145q78 -47 147.5 -68.5t161.5 -21.5q133 0 205 81t72 208v102q-12 -12 -39 -34.5t-65 -45t-85 -39 t-102 -16.5q-88 0 -163 24.5t-130 78t-86 138.5t-31 205zM270 434q0 -154 61.5 -218t172.5 -64q59 0 135 37.5t156 125.5v559q-43 14 -93.5 22.5t-101.5 8.5q-178 0 -254 -84t-76 -250v-137z" />
<glyph unicode="h" horiz-adv-x="1058" d="M123 0v1399l176 49v-543q63 73 144 101q76 27 140 26h9q86 0 155.5 -28.5t120 -82t75 -124t24.5 -152.5v-645h-176v639q0 111 -53.5 176.5t-151.5 65.5q-125 0 -193.5 -62.5t-93.5 -156.5v-662h-176z" />
<glyph unicode="i" horiz-adv-x="417" d="M121 1352q0 41 28.5 68.5t69.5 27.5t69.5 -27.5t28.5 -68.5t-28.5 -69t-69.5 -28t-69.5 28t-28.5 69zM133 0v1032h176v-1032h-176z" />
<glyph unicode="j" horiz-adv-x="425" d="M-111 -268h113q127 0 127 123v1177h176v-1177q0 -59 -20.5 -109.5t-57.5 -87.5t-85 -58.5t-103 -21.5q-29 0 -72 6t-78 19v129zM117 1352q0 41 28.5 68.5t69.5 27.5t69.5 -27.5t28.5 -68.5t-28.5 -69t-69.5 -28t-69.5 28t-28.5 69z" />
<glyph unicode="k" horiz-adv-x="940" d="M123 0v1399l176 49v-858h107l315 442h180l-348 -502l254 -350q20 -29 55 -41t74 -12v-127q-49 -25 -86 -25q-51 0 -94 39t-80 90l-273 369h-104v-473h-176z" />
<glyph unicode="l" horiz-adv-x="522" d="M113 252v1147l176 49v-1198q0 -123 127 -123h104v-127q-35 -12 -74.5 -18.5t-68.5 -6.5q-55 0 -103.5 21.5t-84 58.5t-56 87.5t-20.5 109.5z" />
<glyph unicode="m" horiz-adv-x="1673" d="M106 981l162 76q16 -29 28.5 -57.5t20.5 -63.5h13q20 25 50 46.5t62.5 37.5t66.5 26.5t66 10.5q88 0 165 -29t137 -113q82 74 152.5 108t162.5 34q174 0 269 -101.5t95 -265.5v-690h-176v692q0 213 -200 213q-41 0 -77 -10t-66.5 -25.5t-54.5 -34t-38 -32.5v-803h-176 v737q0 78 -52 123t-145 45q-92 0 -152.5 -35.5t-88.5 -66.5v-803h-176v778q0 109 -48 203z" />
<glyph unicode="n" horiz-adv-x="1095" d="M96 981l162 76q16 -29 28.5 -57.5t20.5 -63.5h12q43 53 120 87t147 34q94 0 168.5 -30t126 -82t78 -122.5t26.5 -152.5v-670h-176v672q0 106 -64.5 169.5t-162.5 63.5q-92 0 -163 -35.5t-100 -66.5v-803h-176v778q0 109 -47 203z" />
<glyph unicode="o" horiz-adv-x="1163" d="M100 516v39q2 106 27 190t104 168q72 74 160 109t191 35q102 0 189 -34t159 -105q74 -76 106.5 -164t32.5 -195v-43q0 -111 -24.5 -209t-106.5 -184q-72 -76 -162 -112t-194 -36q-100 0 -192.5 37t-164.5 111q-78 78 -101.5 180.5t-23.5 212.5zM264 508q0 -86 18.5 -160 t63.5 -127q37 -45 95.5 -69.5t142.5 -24.5q78 0 133 22.5t94 63.5q53 53 73.5 133t20.5 170v41q0 150 -78 244q-41 49 -102 76.5t-141 27.5q-78 0 -137.5 -25.5t-100.5 -72.5q-82 -94 -82 -252v-47z" />
<glyph unicode="p" horiz-adv-x="1114" d="M98 981l162 76q16 -29 28.5 -57.5t20.5 -63.5h13q47 51 120.5 86t159.5 35q129 0 222.5 -53.5t150.5 -151.5q37 -63 48 -137t11 -158v-131q0 -96 -26.5 -179t-78.5 -143.5t-129 -94.5t-177 -34q-55 0 -104.5 17.5t-89.5 40t-67.5 45t-39.5 35.5v-510h-177v1175 q0 109 -47 203zM322 289q80 -88 160.5 -125t140.5 -37q68 0 112.5 23.5t72.5 64.5t39 95.5t11 117.5v129q0 61 -9 117.5t-26 89.5q-29 63 -94 102t-131 39q-98 0 -167 -38t-109 -85v-493z" />
<glyph unicode="q" horiz-adv-x="1114" d="M100 446v107q0 260 130 382t384 122q102 0 196.5 -19.5t178.5 -54.5v-1380h-176v510q-12 -12 -40 -35t-66.5 -45.5t-87 -40t-103.5 -17.5q-115 0 -193.5 37t-128 100.5t-72 149.5t-22.5 184zM276 432q0 -63 11.5 -118.5t39 -97.5t72.5 -65.5t113 -23.5q59 0 140 38 t161 126v579q-39 16 -96.5 25.5t-116.5 9.5q-47 0 -91 -6t-79 -20q-45 -16 -74.5 -50t-47 -76t-25 -90.5t-7.5 -93.5v-137z" />
<glyph unicode="r" horiz-adv-x="720" d="M92 981l162 76q16 -29 29.5 -60.5t19.5 -68.5h12q39 61 91.5 95t125.5 34q80 0 170 -45l-61 -164q-63 33 -117 33q-53 0 -93 -28t-65.5 -75t-38 -111.5t-12.5 -138.5v-528h-176v778q0 109 -47 203z" />
<glyph unicode="s" horiz-adv-x="983" d="M76 193l127 79q27 -31 55.5 -57.5t63 -45.5t81 -30.5t109.5 -11.5q33 0 73 6t73.5 24.5t56 51.5t22.5 84q0 61 -46 92t-114.5 50.5t-148.5 35.5t-148.5 49t-114.5 91.5t-46 160.5q0 80 39 134.5t97 88t128 48t133 14.5q98 0 190.5 -39t157.5 -111l-106 -104 q-35 37 -92.5 69.5t-153.5 32.5q-33 0 -71 -5t-71.5 -20.5t-56 -44t-22.5 -73.5q0 -51 46 -79t115.5 -49.5t149.5 -41t149.5 -51t115.5 -83.5t46 -139q0 -160 -104 -252t-307 -92q-154 0 -258.5 52.5t-167.5 165.5z" />
<glyph unicode="t" horiz-adv-x="591" d="M55 895v137h117v221l176 50v-271h189l-43 -137h-146v-645q0 -123 127 -123h76v-129q-35 -12 -60.5 -17.5t-54.5 -5.5q-55 0 -105 17.5t-87 52.5t-54.5 87t-17.5 118v645h-117z" />
<glyph unicode="u" horiz-adv-x="1114" d="M125 352v672l176 33v-705q0 -121 47 -173t148 -52q59 0 136 38t156 126v733l177 33v-821q0 -76 14 -126.5t45 -109.5h-188q-14 20 -24.5 56t-12.5 65q-39 -41 -88 -74q-41 -29 -96.5 -50.5t-118.5 -21.5q-197 0 -284 94.5t-87 282.5z" />
<glyph unicode="v" horiz-adv-x="991" d="M35 1008l158 49l237 -629l66 -223l65 223l238 629l157 -49l-378 -1008h-164z" />
<glyph unicode="w" horiz-adv-x="1441" d="M25 1008l157 49l244 -799l221 633h135l222 -633l243 799l158 -49l-305 -1008h-174l-211 586l-211 -586h-174z" />
<glyph unicode="x" horiz-adv-x="948" d="M14 0l373 545l-317 463l166 49l245 -379l246 379l166 -49l-318 -463l373 -545h-200l-267 399l-266 -399h-201z" />
<glyph unicode="y" horiz-adv-x="1044" d="M2 1008l170 49l320 -836q8 -20 19 -32.5t34 -12.5h8l317 881l170 -49l-456 -1227q-35 -90 -93.5 -146.5t-144.5 -56.5q-29 0 -60.5 5t-78.5 20v129h86q47 0 80 13t49 60l70 201q-59 14 -101.5 55t-64.5 99z" />
<glyph unicode="z" horiz-adv-x="1024" d="M68 0v59q0 45 17 84t46 74l596 707l-203 -13h-383v144h807v-33q0 -94 -65 -160l-602 -723l221 11h459l-35 -150h-858z" />
<glyph unicode="{" horiz-adv-x="628" d="M4 446v154q41 0 79 6t66.5 24.5t45 52.5t16.5 89v412q0 55 20.5 103t57.5 85t85 57.5t103 20.5h94v-154h-94q-47 0 -79.5 -32.5t-32.5 -79.5v-471q0 -35 -12.5 -63.5t-31 -52.5t-41 -42t-42.5 -31q20 -12 42.5 -30.5t41 -42t31 -53t12.5 -64.5v-492q0 -47 32.5 -78.5 t79.5 -31.5h94v-154h-94q-55 0 -103 20.5t-85 56.5t-57.5 84t-20.5 103v432q0 55 -16.5 89t-45 52.5t-66.5 24.5t-79 6z" />
<glyph unicode="|" horiz-adv-x="417" d="M123 -397v1820q45 12 78 13q31 0 78 -13v-1820q-47 -12 -78 -13q-33 0 -78 13z" />
<glyph unicode="}" horiz-adv-x="626" d="M55 -268h95q47 0 79.5 31.5t32.5 78.5v492q0 35 12.5 64.5t31 53t41 42t42.5 30.5q-20 12 -42.5 30.5t-41 42.5t-31 52.5t-12.5 63.5v471q0 47 -32.5 79.5t-79.5 32.5h-95v154h95q55 0 103 -20.5t85 -57.5t57.5 -85t20.5 -103v-412q0 -55 16.5 -89t45 -52.5t66.5 -24.5 t79 -6v-154q-41 0 -79 -6t-66.5 -24.5t-45 -52t-16.5 -89.5v-432q0 -55 -20.5 -103t-57.5 -84t-85 -56.5t-103 -20.5h-95v154z" />
<glyph unicode="~" horiz-adv-x="1124" d="M57 543v102q74 59 144.5 93t148.5 34q57 0 114.5 -18.5t115 -42t115 -42t112.5 -18.5t116.5 30t114.5 83v-105q-86 -82 -166.5 -124.5t-169.5 -42.5q-59 0 -116.5 20t-115.5 45t-115.5 45.5t-112.5 20.5q-45 0 -93.5 -22.5t-91.5 -57.5z" />
<glyph unicode="&#xa1;" horiz-adv-x="346" d="M70 952q0 41 29.5 70t72.5 29q41 0 70.5 -29t29.5 -70t-29.5 -70.5t-70.5 -29.5q-43 0 -72.5 29.5t-29.5 70.5zM72 -397l53 1104h115l51 -1104h-219z" />
<glyph unicode="&#xa2;" horiz-adv-x="833" d="M39 514v37q0 49 3 92t14.5 83t33 80t57.5 83q53 59 122 93t147 44v137h129v-133q72 -8 138.5 -37.5t119.5 -85.5l-113 -110q-41 41 -89 58t-103 17h-19.5t-19.5 -2q-55 -6 -104.5 -28.5t-88.5 -63.5q-37 -39 -50 -98t-13 -131v-31q0 -41 1 -82t9 -78q25 -137 160 -184 q53 -20 116 -20q59 0 108.5 15t90.5 60l117 -106q-106 -113 -260 -129v-180h-129v182q-25 4 -48.5 9t-45.5 13q-37 12 -68 30t-59 40q-109 88 -138 236q-18 94 -18 190z" />
<glyph unicode="&#xa3;" horiz-adv-x="1157" d="M66 133q37 31 72.5 67t68.5 76.5t56.5 85t35.5 91.5q8 31 8 69q0 37 -6 74h-215v127h184q-16 51 -30.5 88t-20.5 53q-10 35 -18 75t-8 87v12q2 90 36.5 162t91 121t133 75.5t162.5 26.5q129 0 233.5 -49t174.5 -139l-123 -113q-41 61 -109.5 100.5t-170.5 39.5 q-115 0 -189 -56.5t-78 -177.5v-8q0 -41 8.5 -80t18.5 -76q8 -20 16 -43q14 -41 35 -98h295v-127h-264q2 -10 3 -19.5t1 -19.5l2 -25q0 -43 -11.5 -89t-29.5 -91t-42 -85t-50 -70q29 4 58.5 6t60.5 2q55 0 106 -12.5t100.5 -27.5t98.5 -27.5t102 -12.5q43 0 86 17.5t78 37.5 l70 -135q-59 -29 -112.5 -49.5t-121.5 -20.5q-57 0 -109.5 12.5t-101.5 27t-98 26.5t-98 12q-53 0 -91 -3t-72 -12t-69 -23.5t-80 -39.5q-18 41 -37.5 79t-39.5 79z" />
<glyph unicode="&#xa4;" horiz-adv-x="1142" d="M100 422l136 135q-70 98 -70 227q0 61 17.5 119t49.5 105l-133 133l111 114l133 -135q100 70 227 70q63 0 121 -17.5t105 -50.5l133 133l114 -110l-135 -133q33 -49 51.5 -106.5t18.5 -121.5q0 -123 -68 -225l133 -131l-110 -115l-135 133q-47 -33 -104.5 -51t-123.5 -18 q-61 0 -118.5 17.5t-104.5 49.5l-133 -133zM324 784q0 -51 19 -97t53 -80t79 -53t96 -19t97.5 19t80 53t53 80t19.5 97t-19.5 96.5t-53 79t-80 53t-97.5 19.5t-96 -19.5t-79 -53t-53 -78.5t-19 -97z" />
<glyph unicode="&#xa5;" horiz-adv-x="1284" d="M35 1374l182 49l406 -641h41l403 641l182 -49l-405 -633h282v-135h-389v-149h389v-135h-389v-322h-190v322h-389v135h389v149h-389v135h282z" />
<glyph unicode="&#xa6;" horiz-adv-x="413" d="M123 342v-739q45 -12 76 -13q30 1 77 13v739h-153zM123 682v741q45 12 76 13q30 -1 77 -13v-741h-153z" />
<glyph unicode="&#xa7;" horiz-adv-x="1017" d="M66 567q0 61 23.5 105.5t61 76t83 56t88.5 49.5q-78 61 -127.5 130t-49.5 163q0 74 30 131t79 95t113.5 57.5t134.5 19.5q268 0 416 -193l-123 -102q-53 66 -120 108t-169 42q-35 0 -70 -9.5t-63.5 -28t-46 -48t-17.5 -68.5t22.5 -75t60.5 -69.5t87 -66.5t101 -63l36 -23 q66 -41 127.5 -81t108.5 -86t75.5 -97t28.5 -113q0 -61 -25.5 -108t-64.5 -83t-83 -59.5t-83 -36.5q76 -61 126.5 -137t50.5 -172q0 -76 -30 -133t-78 -95t-111.5 -56.5t-131.5 -18.5q-133 0 -240.5 52.5t-197.5 152.5l127 113q68 -78 137.5 -118t171.5 -40q33 0 67 7 t60.5 24.5t43 44t16.5 63.5q0 41 -24.5 81t-64.5 77t-90.5 71.5t-103.5 67.5l-22 14q-66 41 -127.5 82t-108.5 87t-75.5 97.5t-28.5 112.5zM231 573q0 -29 22.5 -58.5t59.5 -60t84 -61.5t99 -63l96 -62q20 8 53 26.5t65.5 44.5t56.5 58.5t24 73.5q0 27 -20.5 55.5t-54.5 57 t-77 57.5t-90 59l-23 15q-25 16 -50 30.5t-46 30.5q-29 -16 -63.5 -32.5t-64.5 -40t-50.5 -54.5t-20.5 -76z" />
<glyph unicode="&#xa8;" horiz-adv-x="772" d="M104 1665q0 41 29 68.5t70 27.5t69.5 -27.5t28.5 -68.5t-28.5 -68.5t-69.5 -27.5t-70 27.5t-29 68.5zM469 1665q0 41 28.5 68.5t69.5 27.5t70 -27.5t29 -68.5t-29 -68.5t-70 -27.5t-69.5 27.5t-28.5 68.5z" />
<glyph unicode="&#xa9;" horiz-adv-x="1626" d="M74 715q0 154 58 288t158.5 233t235.5 156.5t289 57.5t288 -57.5t234.5 -156.5t157.5 -233.5t57 -287.5q0 -154 -57 -288t-157.5 -234.5t-234.5 -159t-288 -58.5t-289 58.5t-235.5 159t-158.5 234.5t-58 288zM199 715q0 -127 48 -238.5t132 -195.5t196.5 -132.5 t239.5 -48.5t238.5 48.5t194.5 132.5t130 195.5t47 238.5t-47 238.5t-130 194.5t-194.5 130t-238.5 47t-239.5 -47t-196.5 -130t-132 -194.5t-48 -238.5zM434 709v32q0 78 22.5 150t66.5 129t110.5 94t154.5 47q10 2 20.5 2h20.5q78 0 149 -26.5t126 -83.5l-98 -99 q-35 37 -78 52.5t-90 15.5h-17.5t-17.5 -2q-117 -10 -172.5 -85t-55.5 -196v-26q0 -49 5.5 -95.5t20.5 -86t46 -70.5t80 -49t102 -19q53 0 96.5 13.5t80.5 54.5l100 -96q-57 -59 -126 -87t-151 -28q-78 0 -147 24q-72 25 -119 69t-75.5 102.5t-41 126t-12.5 137.5z" />
<glyph unicode="&#xaa;" horiz-adv-x="788" d="M76 934q0 45 17.5 84t47 66.5t69.5 43t83 15.5h260v63q0 76 -45 109t-115 33q-63 0 -109 -15.5t-100 -48.5l-49 88q66 41 123 58.5t135 17.5q117 0 197 -63.5t80 -186.5v-301q0 -47 9 -81t32 -79h-125q-12 16 -18.5 41t-6.5 43q-57 -41 -125.5 -70.5t-138.5 -29.5 q-94 0 -157.5 59.5t-63.5 153.5zM188 934q0 -47 39 -78t82 -31q27 0 59.5 10.5t66.5 26t64.5 31.5t53.5 29v120h-260q-41 0 -73 -31.5t-32 -76.5z" />
<glyph unicode="&#xab;" horiz-adv-x="960" d="M31 530q94 104 177 215t142 230h123q-53 -129 -113.5 -241.5t-128.5 -203.5q68 -92 128.5 -204.5t113.5 -241.5h-123q-59 119 -142 229.5t-177 216.5zM414 530q94 104 177 215t142 230h123q-53 -129 -113.5 -241.5t-128.5 -203.5q68 -92 128.5 -204.5t113.5 -241.5h-123 q-59 119 -142 229.5t-177 216.5z" />
<glyph unicode="&#xac;" horiz-adv-x="1071" d="M0 866v166h946v-594h-166v428h-780z" />
<glyph unicode="&#xad;" horiz-adv-x="808" d="M119 557q0 20 4 40.5t12 47.5h539q8 -27 12 -47t4 -41q0 -35 -16 -88h-539q-16 53 -16 88z" />
<glyph unicode="&#xae;" horiz-adv-x="1058" d="M74 995q0 94 35.5 177t97 144.5t144.5 97.5t177 36t177 -36t145.5 -97.5t98.5 -144t36 -177.5q0 -94 -36 -177t-98.5 -144.5t-145 -97t-177.5 -35.5q-94 0 -177 35.5t-144.5 97t-97 144.5t-35.5 177zM166 995q0 -74 28.5 -140.5t78 -115.5t115 -77.5t140.5 -28.5 q76 0 141.5 28.5t115 77.5t78 116t28.5 140q0 76 -28.5 141.5t-78 114.5t-115 78t-141.5 29t-141 -29t-114.5 -78t-78 -114.5t-28.5 -141.5zM336 735v520h221q72 0 120 -38.5t48 -108.5t-31.5 -113t-103.5 -47l92 -133q16 -23 27.5 -28t27.5 -5v-47q-14 -8 -35 -8 q-29 0 -53 14.5t-39 32.5l-100 150q-8 10 -21.5 15t-25.5 5h-41v-209h-86zM422 1026h141q47 0 67.5 17.5t20.5 64.5q0 39 -23.5 53.5t-64.5 14.5h-141v-150z" />
<glyph unicode="&#xb0;" horiz-adv-x="675" d="M74 1186q0 55 20.5 103t56 84t84 56.5t103.5 20.5t103 -20.5t84 -56.5t56.5 -84t20.5 -103t-20.5 -102.5t-56.5 -83t-84 -56t-103 -20.5t-103.5 20.5t-84 56t-56 82.5t-20.5 103zM170 1186q0 -70 49 -118t119 -48t119 48t49 118q0 72 -49 120t-119 48t-119 -48.5 t-49 -119.5z" />
<glyph unicode="&#xb1;" horiz-adv-x="1009" d="M27 80q0 35 14 80h928q14 -49 14 -80q0 -18 -4 -37.5t-10 -42.5h-928q-14 43 -14 80zM27 715q0 35 14 80h383v383q23 6 42 10t38 4q18 0 37.5 -4t44.5 -10v-383h383q14 -49 14 -80q0 -18 -4 -38t-10 -44h-383v-383q-25 -6 -44.5 -10t-37.5 -4t-38 4t-42 10v383h-383 q-14 45 -14 82z" />
<glyph unicode="&#xb2;" horiz-adv-x="624" d="M86 711v57q0 49 35 84l282 285q16 18 29.5 46.5t13.5 59.5q0 55 -42 77.5t-97 22.5q-84 0 -121 -75l-86 41q66 129 207 129q41 0 79 -8.5t73 -30.5q41 -29 61.5 -74t20.5 -92q0 -43 -16.5 -85t-45.5 -71l-272 -272h336v-94h-457z" />
<glyph unicode="&#xb3;" horiz-adv-x="595" d="M61 838l86 39q29 -51 61 -68.5t79 -17.5q57 0 93 33.5t36 93.5q0 70 -40 104.5t-100 34.5h-69v71l170 201h-293v94h393v-80q0 -23 -7 -40t-19 -33l-119 -137q178 -31 178 -218q0 -104 -58.5 -161.5t-164.5 -57.5q-162 0 -226 142z" />
<glyph unicode="&#xb4;" horiz-adv-x="372" d="M31 1509l155 252h158l2 -22l-174 -230h-141z" />
<glyph unicode="&#xb5;" horiz-adv-x="1044" d="M123 -397v1405l176 49v-729q0 -111 50 -156t147 -45q31 0 60.5 6t64 21.5t75.5 44t90 71.5v738l177 49v-821q0 -76 14 -126.5t45 -109.5h-188q-14 20 -24.5 56t-12.5 65q-39 -41 -86 -74q-41 -29 -94 -50.5t-119 -21.5q-59 0 -108.5 11.5t-90.5 31.5v-415h-176z" />
<glyph unicode="&#xb6;" horiz-adv-x="1175" d="M33 1032q0 193 102.5 292t313.5 99h653v-135h-139v-1685h-152v1685h-197v-1685h-143v1011h-22q-219 0 -317.5 113t-98.5 305z" />
<glyph unicode="&#xb7;" horiz-adv-x="350" d="M76 737q0 41 28.5 69t69.5 28t69.5 -28t28.5 -69t-28.5 -68.5t-69.5 -27.5t-69.5 27.5t-28.5 68.5z" />
<glyph unicode="&#xb8;" horiz-adv-x="440" d="M23 -395l16 86q29 -10 61.5 -14.5t61.5 -4.5q37 0 68.5 18.5t31.5 53.5q0 29 -28.5 55.5t-75.5 30.5l53 188l96 -6l-43 -143q47 -10 82 -45t35 -86q0 -41 -17.5 -70.5t-46 -49t-63.5 -30t-68 -10.5q-39 0 -83 6t-80 21z" />
<glyph unicode="&#xb9;" horiz-adv-x="450" d="M37 1268l164 155h96v-618h100v-94h-311v94h107v479l-89 -84z" />
<glyph unicode="&#xba;" horiz-adv-x="827" d="M84 1079q0 74 15.5 138.5t54.5 115.5q39 53 102.5 84t159.5 31q92 0 154.5 -29.5t103.5 -83.5q41 -55 55 -121.5t14 -134.5t-14 -134t-55 -124q-39 -53 -101.5 -82.5t-154.5 -29.5q-98 0 -161.5 30.5t-102.5 83.5q-39 51 -54.5 117t-15.5 139zM205 1079q0 -57 10 -110.5 t35 -87.5q23 -29 62.5 -51.5t105.5 -22.5q59 0 97 21.5t60 50.5q29 41 38.5 97t9.5 103t-9.5 102.5t-38.5 94.5q-23 29 -60.5 50.5t-98.5 21.5q-63 0 -103.5 -21.5t-62.5 -52.5q-25 -33 -35 -85t-10 -110z" />
<glyph unicode="&#xbb;" horiz-adv-x="960" d="M104 84q53 129 114 241.5t128 204.5q-68 90 -128 203t-114 242h123q59 -119 142.5 -229.5t177.5 -215.5q-94 -106 -177 -216.5t-143 -229.5h-123zM487 84q53 129 114 241.5t128 204.5q-68 90 -128 203t-114 242h123q59 -119 142.5 -229.5t177.5 -215.5 q-94 -106 -177 -216.5t-143 -229.5h-123z" />
<glyph unicode="&#xbc;" horiz-adv-x="1339" d="M80 1268l164 155h96v-618h100v-94h-311v94h107v479l-89 -84zM123 -25l1038 1473h139l-1034 -1473h-143zM743 174v92l314 447h104v-445h92l-30 -94h-62v-174h-100v174h-318zM862 268h199v279z" />
<glyph unicode="&#xbd;" horiz-adv-x="1351" d="M80 1268l164 155h96v-618h100v-94h-311v94h107v479l-89 -84zM90 -25l1038 1473h140l-1035 -1473h-143zM823 4v57q0 49 35 84l282 285q16 18 29.5 46.5t13.5 59.5q0 55 -42 77.5t-97 22.5q-84 0 -121 -75l-86 41q66 129 207 129q41 0 79 -8.5t73 -30.5q41 -29 61.5 -74 t20.5 -92q0 -43 -16.5 -85t-45.5 -71l-272 -272h336v-94h-457z" />
<glyph unicode="&#xbe;" horiz-adv-x="1300" d="M72 838l86 39q29 -51 60.5 -68.5t78.5 -17.5q57 0 93 33.5t36 93.5q0 70 -40 104.5t-99 34.5h-70v71l170 201h-293v94h393v-80q0 -23 -7 -40t-19 -33l-119 -137q178 -31 178 -218q0 -104 -58.5 -161.5t-164.5 -57.5q-162 0 -225 142zM84 -25l1038 1473h140l-1035 -1473 h-143zM702 174v92l314 447h104v-445h92l-30 -94h-62v-174h-100v174h-318zM821 268h199v279z" />
<glyph unicode="&#xbf;" horiz-adv-x="786" d="M-19 -47q0 55 12.5 96t32 75t47 63.5t58.5 60.5l32 32q31 31 65 69t61.5 88t46 117.5t18.5 158.5h131q0 -129 -20.5 -220.5t-52.5 -157t-72.5 -110.5t-83.5 -86q-45 -43 -77 -85t-32 -101q0 -55 20.5 -95t55.5 -67t81 -39t97 -12q68 0 137.5 25.5t126.5 72.5l103 -129 q-74 -66 -173.5 -97.5t-193.5 -31.5q-86 0 -163 24.5t-134 71.5t-90 117t-33 160zM317 956q0 41 29.5 70t72.5 29q41 0 71 -29t30 -70t-30 -70.5t-71 -29.5q-43 0 -72.5 29.5t-29.5 70.5z" />
<glyph unicode="&#xc0;" horiz-adv-x="1386" d="M37 0l530 1423h230l557 -1423h-193l-166 430h-604l-158 -430h-196zM444 584h492l-195 499l-57 207l-55 -207zM463 1735l2 26h157l156 -252h-141z" />
<glyph unicode="&#xc1;" horiz-adv-x="1386" d="M37 0l530 1423h230l557 -1423h-193l-166 430h-604l-158 -430h-196zM444 584h492l-195 499l-57 207l-55 -207zM602 1509l155 252h158l2 -22l-174 -230h-141z" />
<glyph unicode="&#xc2;" horiz-adv-x="1386" d="M37 0l530 1423h230l557 -1423h-193l-166 430h-604l-158 -430h-196zM408 1509v23l238 229h82l237 -229v-23h-156l-122 123l-123 -123h-156zM444 584h492l-195 499l-57 207l-55 -207z" />
<glyph unicode="&#xc3;" horiz-adv-x="1386" d="M37 0l530 1423h230l557 -1423h-193l-166 430h-604l-158 -430h-196zM379 1540q0 43 10.5 83t33 70.5t55 49t79.5 18.5q37 0 70 -13t62.5 -29.5t58.5 -30t57 -13.5q51 0 71.5 27t20.5 59h97q0 -98 -49.5 -159.5t-139.5 -61.5q-41 0 -71.5 14.5t-58 32t-56.5 31.5t-62 14 q-35 0 -58 -28.5t-23 -63.5h-97zM444 584h492l-195 499l-57 207l-55 -207z" />
<glyph unicode="&#xc4;" horiz-adv-x="1386" d="M37 0l530 1423h230l557 -1423h-193l-166 430h-604l-158 -430h-196zM405 1665q0 41 29 68.5t70 27.5t69.5 -27.5t28.5 -68.5t-28.5 -68.5t-69.5 -27.5t-70 27.5t-29 68.5zM444 584h492l-195 499l-57 207l-55 -207zM770 1665q0 41 28.5 68.5t69.5 27.5t70 -27.5t29 -68.5 t-29 -68.5t-70 -27.5t-69.5 27.5t-28.5 68.5z" />
<glyph unicode="&#xc5;" horiz-adv-x="1386" d="M37 0l514 1380q-4 4 -8 9q-59 57 -60 139q0 39 15.5 74.5t43 62.5t63.5 43t79 16t80 -16t64.5 -43t44 -62.5t16.5 -74.5q0 -41 -16.5 -77t-45.5 -62q-6 -6 -12 -13l539 -1376h-193l-166 430h-604l-158 -430h-196zM444 584h492l-148 377l-104 335l-100 -338zM588 1528 q0 -39 24.5 -65.5t71.5 -26.5q43 0 69.5 26.5t26.5 65.5t-26.5 64.5t-69.5 25.5q-39 0 -67.5 -25.5t-28.5 -64.5z" />
<glyph unicode="&#xc6;" horiz-adv-x="1978" d="M41 0l768 1423h1085l-53 -170h-663v-422h585v-165h-585v-500h720v-166h-909v412h-522l-221 -412h-205zM549 578h440v675h-80z" />
<glyph unicode="&#xc7;" horiz-adv-x="1257" d="M80 713v75q0 156 40 278t119.5 207t200.5 130t283 45q125 0 244.5 -42t208.5 -132l-125 -125q-63 66 -150.5 97.5t-177.5 31.5q-135 0 -222 -44t-138.5 -114.5t-71 -159t-19.5 -176.5v-67q0 -102 13.5 -203.5t59.5 -184.5t135 -134.5t243 -51.5q92 0 177 34t151 104 l129 -121q-90 -96 -209 -142q-109 -39 -226 -43l-34 -106q51 -10 90 -45t39 -84q0 -41 -19.5 -70.5t-51.5 -49t-71 -30t-75 -10.5q-43 0 -92.5 6t-90.5 21l19 86q33 -10 68.5 -14.5t68.5 -4.5q41 0 77 18.5t36 53.5q0 29 -33 54.5t-84 29.5l47 150q-129 10 -221 51 q-123 57 -198 155.5t-107.5 233.5t-32.5 293z" />
<glyph unicode="&#xc8;" horiz-adv-x="1191" d="M123 0v1423h1024l-53 -168h-787v-415h705v-170h-705v-502h834v-168h-1018zM437 1751l2 26h157l156 -252h-141z" />
<glyph unicode="&#xc9;" horiz-adv-x="1191" d="M123 0v1423h1024l-53 -168h-787v-415h705v-170h-705v-502h834v-168h-1018zM551 1538l155 252h158l2 -22l-174 -230h-141z" />
<glyph unicode="&#xca;" horiz-adv-x="1191" d="M123 0v1423h1024l-53 -168h-787v-415h705v-170h-705v-502h834v-168h-1018zM387 1529v23l238 229h82l237 -229v-23h-156l-122 123l-123 -123h-156z" />
<glyph unicode="&#xcb;" horiz-adv-x="1191" d="M123 0v1423h1024l-53 -168h-787v-415h705v-170h-705v-502h834v-168h-1018zM383 1665q0 41 29 68.5t70 27.5t69.5 -27.5t28.5 -68.5t-28.5 -68.5t-69.5 -27.5t-70 27.5t-29 68.5zM748 1665q0 41 28.5 68.5t69.5 27.5t70 -27.5t29 -68.5t-29 -68.5t-70 -27.5t-69.5 27.5 t-28.5 68.5z" />
<glyph unicode="&#xcc;" horiz-adv-x="444" d="M-20 1743l2 26h157l156 -252h-141zM125 0v1423h185v-1423h-185z" />
<glyph unicode="&#xcd;" horiz-adv-x="444" d="M125 0v1423h185v-1423h-185zM127 1525l155 252h158l2 -22l-174 -230h-141z" />
<glyph unicode="&#xce;" horiz-adv-x="444" d="M-57 1515v23l238 229h82l237 -229v-23h-156l-122 123l-123 -123h-156zM125 0v1423h185v-1423h-185z" />
<glyph unicode="&#xcf;" horiz-adv-x="444" d="M-66 1665q0 41 29 68.5t70 27.5t69.5 -27.5t28.5 -68.5t-28.5 -68.5t-69.5 -27.5t-70 27.5t-29 68.5zM125 0v1423h185v-1423h-185zM299 1665q0 41 28.5 68.5t69.5 27.5t70 -27.5t29 -68.5t-29 -68.5t-70 -27.5t-69.5 27.5t-28.5 68.5z" />
<glyph unicode="&#xd0;" horiz-adv-x="1382" d="M-23 647v127h146v649h622q152 0 256.5 -57t170 -155.5t95 -227.5t29.5 -272q0 -154 -26.5 -284t-90 -225.5t-168.5 -148.5t-261 -53h-627v647h-146zM307 168h418q113 0 185.5 41t113.5 113.5t56.5 172t15.5 216.5q0 113 -18.5 212t-61.5 172.5t-115 116.5t-178 43h-416 v-481h324v-127h-324v-479z" />
<glyph unicode="&#xd1;" horiz-adv-x="1378" d="M123 0v1423h235l711 -1142v1142h184v-1423h-225l-721 1165v-1165h-184zM401 1540q0 43 10.5 83t33 70.5t55 49t79.5 18.5q37 0 70 -13t62.5 -29.5t58.5 -30t57 -13.5q51 0 71.5 27t20.5 59h97q0 -98 -49.5 -159.5t-139.5 -61.5q-41 0 -71.5 14.5t-58 32t-56.5 31.5 t-62 14q-35 0 -58 -28.5t-23 -63.5h-97z" />
<glyph unicode="&#xd2;" horiz-adv-x="1499" d="M82 713v55q0 145 46 270t132 216.5t210 142.5t280 51t279.5 -51t209.5 -142.5t132 -216.5t46 -270v-55q0 -154 -38 -289t-117.5 -234.5t-206.5 -157t-305 -57.5t-305.5 57.5t-207 157t-117.5 234.5t-38 289zM274 717q0 -117 28 -220.5t85 -182t146.5 -125t211.5 -46.5 q127 0 218.5 44t149.5 121t85 181.5t27 227.5v47q0 104 -32 198.5t-92.5 164t-149 110.5t-201.5 41q-115 0 -203 -41t-148.5 -110.5t-92.5 -164t-32 -198.5v-47zM539 1766l2 26h157l156 -252h-141z" />
<glyph unicode="&#xd3;" horiz-adv-x="1499" d="M82 713v55q0 145 46 270t132 216.5t210 142.5t280 51t279.5 -51t209.5 -142.5t132 -216.5t46 -270v-55q0 -154 -38 -289t-117.5 -234.5t-206.5 -157t-305 -57.5t-305.5 57.5t-207 157t-117.5 234.5t-38 289zM274 717q0 -117 28 -220.5t85 -182t146.5 -125t211.5 -46.5 q127 0 218.5 44t149.5 121t85 181.5t27 227.5v47q0 104 -32 198.5t-92.5 164t-149 110.5t-201.5 41q-115 0 -203 -41t-148.5 -110.5t-92.5 -164t-32 -198.5v-47zM664 1546l155 252h158l2 -22l-174 -230h-141z" />
<glyph unicode="&#xd4;" horiz-adv-x="1499" d="M82 713v55q0 145 46 270t132 216.5t210 142.5t280 51t279.5 -51t209.5 -142.5t132 -216.5t46 -270v-55q0 -154 -38 -289t-117.5 -234.5t-206.5 -157t-305 -57.5t-305.5 57.5t-207 157t-117.5 234.5t-38 289zM274 717q0 -117 28 -220.5t85 -182t146.5 -125t211.5 -46.5 q127 0 218.5 44t149.5 121t85 181.5t27 227.5v47q0 104 -32 198.5t-92.5 164t-149 110.5t-201.5 41q-115 0 -203 -41t-148.5 -110.5t-92.5 -164t-32 -198.5v-47zM473 1548v23l238 229h82l237 -229v-23h-156l-122 123l-123 -123h-156z" />
<glyph unicode="&#xd5;" horiz-adv-x="1499" d="M82 713v55q0 145 46 270t132 216.5t210 142.5t280 51t279.5 -51t209.5 -142.5t132 -216.5t46 -270v-55q0 -154 -38 -289t-117.5 -234.5t-206.5 -157t-305 -57.5t-305.5 57.5t-207 157t-117.5 234.5t-38 289zM274 717q0 -117 28 -220.5t85 -182t146.5 -125t211.5 -46.5 q127 0 218.5 44t149.5 121t85 181.5t27 227.5v47q0 104 -32 198.5t-92.5 164t-149 110.5t-201.5 41q-115 0 -203 -41t-148.5 -110.5t-92.5 -164t-32 -198.5v-47zM442 1540q0 43 10.5 83t33 70.5t55 49t79.5 18.5q37 0 70 -13t62.5 -29.5t58.5 -30t57 -13.5q51 0 71.5 27 t20.5 59h97q0 -98 -49.5 -159.5t-139.5 -61.5q-41 0 -71.5 14.5t-58 32t-56.5 31.5t-62 14q-35 0 -58 -28.5t-23 -63.5h-97z" />
<glyph unicode="&#xd6;" horiz-adv-x="1499" d="M82 713v55q0 145 46 270t132 216.5t210 142.5t280 51t279.5 -51t209.5 -142.5t132 -216.5t46 -270v-55q0 -154 -38 -289t-117.5 -234.5t-206.5 -157t-305 -57.5t-305.5 57.5t-207 157t-117.5 234.5t-38 289zM274 717q0 -117 28 -220.5t85 -182t146.5 -125t211.5 -46.5 q127 0 218.5 44t149.5 121t85 181.5t27 227.5v47q0 104 -32 198.5t-92.5 164t-149 110.5t-201.5 41q-115 0 -203 -41t-148.5 -110.5t-92.5 -164t-32 -198.5v-47zM469 1665q0 41 29 68.5t70 27.5t69.5 -27.5t28.5 -68.5t-28.5 -68.5t-69.5 -27.5t-70 27.5t-29 68.5zM834 1665 q0 41 28.5 68.5t69.5 27.5t70 -27.5t29 -68.5t-29 -68.5t-70 -27.5t-69.5 27.5t-28.5 68.5z" />
<glyph unicode="&#xd7;" horiz-adv-x="1021" d="M94 338l303 303l-303 303l115 115l303 -303l301 303l115 -115l-310 -303l310 -301l-115 -115l-309 301l-295 -301z" />
<glyph unicode="&#xd8;" horiz-adv-x="1499" d="M78 39l147 166q-72 94 -106 219q-37 135 -37 289v55q0 145 46 270t132 216.5t210 142.5t280 51t278 -51q96 -41 170 -105l123 138l96 -82l-133 -150q53 -72 86 -160q47 -125 47 -270v-55q0 -154 -38 -289t-117.5 -234.5t-206.5 -157t-305 -57.5t-306 58q-74 33 -131 80 l-139 -156zM274 717q0 -117 27 -221q20 -78 59 -142l713 799q-51 51 -123 84q-87 41 -200 41q-115 0 -203 -41t-148.5 -110.5t-92.5 -164t-32 -198.5v-47zM440 254q41 -39 92 -66q90 -45 213 -45q127 0 218.5 44t149.5 121t85 181.5t27 227.5v47q0 104 -33 199 q-16 47 -39 88z" />
<glyph unicode="&#xd9;" horiz-adv-x="1333" d="M108 612v811h185v-819q0 -111 12 -195.5t52 -144t113.5 -90.5t196.5 -31q119 0 193 32t115 92.5t54 145.5t13 191v819h184v-811q0 -147 -26.5 -265t-91 -201t-172 -127t-269.5 -44q-164 0 -272.5 43t-172 124t-89 200t-25.5 270zM488 1735l2 26h157l156 -252h-141z" />
<glyph unicode="&#xda;" horiz-adv-x="1333" d="M108 612v811h185v-819q0 -111 12 -195.5t52 -144t113.5 -90.5t196.5 -31q119 0 193 32t115 92.5t54 145.5t13 191v819h184v-811q0 -147 -26.5 -265t-91 -201t-172 -127t-269.5 -44q-164 0 -272.5 43t-172 124t-89 200t-25.5 270zM568 1513l155 252h158l2 -22l-174 -230 h-141z" />
<glyph unicode="&#xdb;" horiz-adv-x="1333" d="M108 612v811h185v-819q0 -111 12 -195.5t52 -144t113.5 -90.5t196.5 -31q119 0 193 32t115 92.5t54 145.5t13 191v819h184v-811q0 -147 -26.5 -265t-91 -201t-172 -127t-269.5 -44q-164 0 -272.5 43t-172 124t-89 200t-25.5 270zM410 1509v23l238 229h82l237 -229v-23 h-156l-122 123l-123 -123h-156z" />
<glyph unicode="&#xdc;" horiz-adv-x="1333" d="M108 612v811h185v-819q0 -111 12 -195.5t52 -144t113.5 -90.5t196.5 -31q119 0 193 32t115 92.5t54 145.5t13 191v819h184v-811q0 -147 -26.5 -265t-91 -201t-172 -127t-269.5 -44q-164 0 -272.5 43t-172 124t-89 200t-25.5 270zM405 1665q0 41 29 68.5t70 27.5 t69.5 -27.5t28.5 -68.5t-28.5 -68.5t-69.5 -27.5t-70 27.5t-29 68.5zM770 1665q0 41 28.5 68.5t69.5 27.5t70 -27.5t29 -68.5t-29 -68.5t-70 -27.5t-69.5 27.5t-28.5 68.5z" />
<glyph unicode="&#xdd;" horiz-adv-x="1263" d="M25 1399l182 49l405 -641h41l404 641l182 -49l-471 -735q-14 -20 -41 -21v-643h-190v643q-25 0 -41 21zM525 1509l155 252h158l2 -22l-174 -230h-141z" />
<glyph unicode="&#xde;" horiz-adv-x="1251" d="M123 0v1423h188v-288h430q446 0 447 -424q0 -211 -117 -316.5t-340 -105.5h-420v-289h-188zM311 455h420q143 0 209 60t66 196q0 135 -59.5 195.5t-205.5 60.5h-430v-512z" />
<glyph unicode="&#xdf;" horiz-adv-x="1165" d="M115 0v1018q0 96 24.5 176t73.5 136t125 87t178 31q82 0 150.5 -21.5t118 -61.5t77 -96.5t27.5 -125.5q0 -49 -22.5 -98.5t-49 -96.5t-49.5 -91t-23 -83q0 -43 28 -74.5t70 -61.5t90 -59.5t90 -68.5t69.5 -89t27.5 -120q0 -68 -28.5 -127t-77.5 -103t-111.5 -70 t-130.5 -26q-125 0 -215 60.5t-143 173.5l149 72q35 -70 83 -114t126 -44q68 0 115 47t47 119q0 49 -27.5 87t-68.5 69.5t-89.5 61.5t-89.5 63.5t-68.5 75.5t-27.5 99q0 55 22.5 103.5t49.5 96.5t49.5 96.5t22.5 101.5q0 47 -20.5 77.5t-50.5 48t-62.5 24.5t-57.5 7 q-63 0 -106 -20t-70 -58t-38 -90.5t-11 -113.5v-1018h-176z" />
<glyph unicode="&#xe0;" horiz-adv-x="1097" d="M74 293q0 68 26.5 124t71.5 97t104.5 63.5t125.5 22.5h385v94q0 111 -66.5 161t-171.5 52q-94 0 -161.5 -22.5t-147.5 -69.5l-76 131q49 29 93 49.5t90 34.5t95.5 20.5t106.5 6.5q86 0 161 -24.5t131 -72t89 -117t33 -161.5v-446q0 -72 13 -123.5t46 -112.5h-188 q-16 23 -25.5 57.5t-11.5 63.5q-84 -61 -185.5 -103.5t-205.5 -42.5q-70 0 -130.5 22.5t-105.5 64.5t-70.5 100.5t-25.5 130.5zM248 291q0 -37 15.5 -66.5t41 -51t57 -34t66.5 -12.5q37 0 85 15.5t98.5 39t96.5 48t79 42.5v179h-383q-33 0 -61.5 -13.5t-49 -35t-33 -51 t-12.5 -60.5zM422 1397v49h160l116 -240h-127z" />
<glyph unicode="&#xe1;" horiz-adv-x="1097" d="M74 293q0 68 26.5 124t71.5 97t104.5 63.5t125.5 22.5h385v94q0 111 -66.5 161t-171.5 52q-94 0 -161.5 -22.5t-147.5 -69.5l-76 131q49 29 93 49.5t90 34.5t95.5 20.5t106.5 6.5q86 0 161 -24.5t131 -72t89 -117t33 -161.5v-446q0 -72 13 -123.5t46 -112.5h-188 q-16 23 -25.5 57.5t-11.5 63.5q-84 -61 -185.5 -103.5t-205.5 -42.5q-70 0 -130.5 22.5t-105.5 64.5t-70.5 100.5t-25.5 130.5zM248 291q0 -37 15.5 -66.5t41 -51t57 -34t66.5 -12.5q37 0 85 15.5t98.5 39t96.5 48t79 42.5v179h-383q-33 0 -61.5 -13.5t-49 -35t-33 -51 t-12.5 -60.5zM465 1197l112 242h158v-50l-146 -192h-124z" />
<glyph unicode="&#xe2;" horiz-adv-x="1097" d="M74 293q0 68 26.5 124t71.5 97t104.5 63.5t125.5 22.5h385v94q0 111 -66.5 161t-171.5 52q-94 0 -161.5 -22.5t-147.5 -69.5l-76 131q49 29 93 49.5t90 34.5t95.5 20.5t106.5 6.5q86 0 161 -24.5t131 -72t89 -117t33 -161.5v-446q0 -72 13 -123.5t46 -112.5h-188 q-16 23 -25.5 57.5t-11.5 63.5q-84 -61 -185.5 -103.5t-205.5 -42.5q-70 0 -130.5 22.5t-105.5 64.5t-70.5 100.5t-25.5 130.5zM248 291q0 -37 15.5 -66.5t41 -51t57 -34t66.5 -12.5q37 0 85 15.5t98.5 39t96.5 48t79 42.5v179h-383q-33 0 -61.5 -13.5t-49 -35t-33 -51 t-12.5 -60.5zM285 1196v23l237 229h82l238 -229v-23h-156l-123 123l-122 -123h-156z" />
<glyph unicode="&#xe3;" horiz-adv-x="1097" d="M74 293q0 68 26.5 124t71.5 97t104.5 63.5t125.5 22.5h385v94q0 111 -66.5 161t-171.5 52q-94 0 -161.5 -22.5t-147.5 -69.5l-76 131q49 29 93 49.5t90 34.5t95.5 20.5t106.5 6.5q86 0 161 -24.5t131 -72t89 -117t33 -161.5v-446q0 -72 13 -123.5t46 -112.5h-188 q-16 23 -25.5 57.5t-11.5 63.5q-84 -61 -185.5 -103.5t-205.5 -42.5q-70 0 -130.5 22.5t-105.5 64.5t-70.5 100.5t-25.5 130.5zM248 291q0 -37 15.5 -66.5t41 -51t57 -34t66.5 -12.5q37 0 85 15.5t98.5 39t96.5 48t79 42.5v179h-383q-33 0 -61.5 -13.5t-49 -35t-33 -51 t-12.5 -60.5zM268 1227q0 43 10.5 83t33 70.5t55 49t79.5 18.5q37 0 70 -13.5t62.5 -29.5t58.5 -29.5t57 -13.5q51 0 71.5 26.5t20.5 59.5h97q0 -98 -49.5 -159.5t-139.5 -61.5q-41 0 -71.5 14t-58 31.5t-56.5 32t-62 14.5q-35 0 -58 -28.5t-23 -63.5h-97z" />
<glyph unicode="&#xe4;" horiz-adv-x="1097" d="M74 293q0 68 26.5 124t71.5 97t104.5 63.5t125.5 22.5h385v94q0 111 -66.5 161t-171.5 52q-94 0 -161.5 -22.5t-147.5 -69.5l-76 131q49 29 93 49.5t90 34.5t95.5 20.5t106.5 6.5q86 0 161 -24.5t131 -72t89 -117t33 -161.5v-446q0 -72 13 -123.5t46 -112.5h-188 q-16 23 -25.5 57.5t-11.5 63.5q-84 -61 -185.5 -103.5t-205.5 -42.5q-70 0 -130.5 22.5t-105.5 64.5t-70.5 100.5t-25.5 130.5zM248 291q0 -37 15.5 -66.5t41 -51t57 -34t66.5 -12.5q37 0 85 15.5t98.5 39t96.5 48t79 42.5v179h-383q-33 0 -61.5 -13.5t-49 -35t-33 -51 t-12.5 -60.5zM262 1352q0 41 29 68.5t70 27.5t69.5 -27.5t28.5 -68.5t-28.5 -69t-69.5 -28t-70 28t-29 69zM627 1352q0 41 28.5 68.5t69.5 27.5t70 -27.5t29 -68.5t-29 -69t-70 -28t-69.5 28t-28.5 69z" />
<glyph unicode="&#xe5;" horiz-adv-x="1097" d="M74 293q0 68 26.5 124t71.5 97t104.5 63.5t125.5 22.5h385v94q0 111 -66.5 161t-171.5 52q-94 0 -161.5 -22.5t-147.5 -69.5l-76 131q49 29 93 49.5t90 34.5t95.5 20.5t106.5 6.5q86 0 161 -24.5t131 -72t89 -117t33 -161.5v-446q0 -72 13 -123.5t46 -112.5h-188 q-16 23 -25.5 57.5t-11.5 63.5q-84 -61 -185.5 -103.5t-205.5 -42.5q-70 0 -130.5 22.5t-105.5 64.5t-70.5 100.5t-25.5 130.5zM248 291q0 -37 15.5 -66.5t41 -51t57 -34t66.5 -12.5q37 0 85 15.5t98.5 39t96.5 48t79 42.5v179h-383q-33 0 -61.5 -13.5t-49 -35t-33 -51 t-12.5 -60.5zM359 1276q0 36 13 66t37 52.5t55.5 36t68.5 13.5t68.5 -13.5t55 -36t38 -52.5t14.5 -66q0 -35 -14.5 -65.5t-38 -53t-55 -34.5t-68.5 -12q-72 0 -123 48.5t-51 116.5zM428 1276q0 -41 31 -70.5t74 -29.5q45 0 74.5 29.5t29.5 70.5q0 43 -29.5 71.5t-74.5 28.5 q-43 0 -74 -28.5t-31 -71.5z" />
<glyph unicode="&#xe6;" horiz-adv-x="1802" d="M72 295q0 68 26.5 124t71.5 97t104.5 64.5t124.5 23.5h385v92q0 113 -65.5 161t-173.5 48q-94 0 -163 -22.5t-146 -69.5l-74 133q49 29 93 50.5t89 34.5t94.5 20.5t106.5 7.5q104 0 198.5 -37t153.5 -117q72 80 177.5 117t207.5 37q109 0 194 -38t142 -103.5t87 -156.5 t30 -196v-92h-777v-20q4 -168 97.5 -247t259.5 -79q152 0 244 129l153 -63q-66 -104 -172 -161t-231 -57q-121 0 -233.5 34t-186.5 124q-104 -72 -231.5 -115t-256.5 -43q-70 0 -130 24t-104 67t-69.5 101t-25.5 128zM244 295q0 -78 51 -123t129 -45q104 0 206.5 42 t186.5 99q-16 47 -23.5 93.5t-9.5 91.5h-385q-66 0 -110.5 -46.5t-44.5 -111.5zM958 616h601v17q0 61 -23 111.5t-61.5 86t-88 55t-104.5 19.5q-66 0 -123 -22.5t-101 -61.5t-71 -92.5t-29 -112.5z" />
<glyph unicode="&#xe7;" horiz-adv-x="991" d="M100 514v39q0 49 3 94t14.5 87t33 84t60.5 87q33 39 78 67.5t96 47t105.5 28t103.5 9.5q92 0 182 -33t156 -98l-109 -107q-45 39 -99 62.5t-138 23.5q-70 0 -129.5 -23.5t-102.5 -70.5q-45 -49 -67.5 -118.5t-22.5 -141.5v-33q0 -90 24.5 -173t82.5 -138q39 -37 91 -58.5 t124 -21.5q61 0 129.5 20.5t109.5 69.5l109 -104q-68 -72 -159 -105t-189 -33q-82 0 -171 25t-155 78q-55 45 -91 103.5t-52 135.5q-10 49 -13.5 98.5t-3.5 98.5zM287 -395l16 86q29 -10 61.5 -14.5t61.5 -4.5q37 0 68.5 18.5t31.5 53.5q0 29 -28.5 55.5t-75.5 30.5l53 188 l96 -6l-43 -143q47 -10 82 -45t35 -86q0 -41 -17.5 -70.5t-46 -49t-63.5 -30t-68 -10.5q-39 0 -83 6t-80 21z" />
<glyph unicode="&#xe8;" horiz-adv-x="1120" d="M96 502v22q0 51 2 99.5t12.5 95.5t33 93t63.5 91q70 78 166 116t198 38q115 0 204 -37t149.5 -102.5t91.5 -155.5t31 -199v-92h-775q0 -180 83 -262t251 -82q82 0 139.5 34t102.5 93l156 -64q-59 -100 -166 -157.5t-242 -57.5q-137 0 -232.5 38t-154.5 106.5t-86 166 t-27 216.5zM272 614h598v19q0 51 -20.5 100t-59 87t-94 61.5t-125.5 23.5q-66 0 -121 -22.5t-95 -60.5t-61.5 -87t-21.5 -102v-19zM379 1397v51h147l107 -250h-117z" />
<glyph unicode="&#xe9;" horiz-adv-x="1120" d="M96 502v22q0 51 2 99.5t12.5 95.5t33 93t63.5 91q70 78 166 116t198 38q115 0 204 -37t149.5 -102.5t91.5 -155.5t31 -199v-92h-775q0 -180 83 -262t251 -82q82 0 139.5 34t102.5 93l156 -64q-59 -100 -166 -157.5t-242 -57.5q-137 0 -232.5 38t-154.5 106.5t-86 166 t-27 216.5zM272 614h598v19q0 51 -20.5 100t-59 87t-94 61.5t-125.5 23.5q-66 0 -121 -22.5t-95 -60.5t-61.5 -87t-21.5 -102v-19zM494 1198l106 250h148v-51l-137 -199h-117z" />
<glyph unicode="&#xea;" horiz-adv-x="1120" d="M96 502v22q0 51 2 99.5t12.5 95.5t33 93t63.5 91q70 78 166 116t198 38q115 0 204 -37t149.5 -102.5t91.5 -155.5t31 -199v-92h-775q0 -180 83 -262t251 -82q82 0 139.5 34t102.5 93l156 -64q-59 -100 -166 -157.5t-242 -57.5q-137 0 -232.5 38t-154.5 106.5t-86 166 t-27 216.5zM272 614h598v19q0 51 -20.5 100t-59 87t-94 61.5t-125.5 23.5q-66 0 -121 -22.5t-95 -60.5t-61.5 -87t-21.5 -102v-19zM299 1196v23l237 229h82l238 -229v-23h-156l-123 123l-122 -123h-156z" />
<glyph unicode="&#xeb;" horiz-adv-x="1120" d="M96 502v22q0 51 2 99.5t12.5 95.5t33 93t63.5 91q70 78 166 116t198 38q115 0 204 -37t149.5 -102.5t91.5 -155.5t31 -199v-92h-775q0 -180 83 -262t251 -82q82 0 139.5 34t102.5 93l156 -64q-59 -100 -166 -157.5t-242 -57.5q-137 0 -232.5 38t-154.5 106.5t-86 166 t-27 216.5zM272 614h598v19q0 51 -20.5 100t-59 87t-94 61.5t-125.5 23.5q-66 0 -121 -22.5t-95 -60.5t-61.5 -87t-21.5 -102v-19zM294 1352q0 41 29 68.5t70 27.5t69.5 -27.5t28.5 -68.5t-28.5 -69t-69.5 -28t-70 28t-29 69zM659 1352q0 41 28.5 68.5t69.5 27.5t70 -27.5 t29 -68.5t-29 -69t-70 -28t-69.5 28t-28.5 69z" />
<glyph unicode="&#xec;" horiz-adv-x="348" d="M4 1419v29h148l106 -250h-152zM86 0v1032h176v-1032h-176z" />
<glyph unicode="&#xed;" horiz-adv-x="350" d="M76 1198l106 250h148v-31l-119 -219h-135zM84 0v1032h176v-1032h-176z" />
<glyph unicode="&#xee;" horiz-adv-x="495" d="M29 1198v21l172 229h94l172 -231v-19h-123l-96 121l-96 -121h-123zM160 0v1032h176v-1032h-176z" />
<glyph unicode="&#xef;" horiz-adv-x="600" d="M16 1352q0 41 29 68.5t70 27.5t69.5 -27.5t28.5 -68.5t-28.5 -69t-69.5 -28t-70 28t-29 69zM209 0v1032h176v-1032h-176zM381 1352q0 41 28.5 68.5t69.5 27.5t70 -27.5t29 -68.5t-29 -69t-70 -28t-69.5 28t-28.5 69z" />
<glyph unicode="&#xf0;" horiz-adv-x="1019" d="M55 504v35q0 51 5.5 97t18.5 88t36.5 83t60.5 82q66 72 148 106.5t176 34.5q86 0 162 -29q-29 47 -61 92.5t-66 86.5l-226 -105l-49 92l199 93q-100 96 -207 163l86 107q78 -43 145.5 -93.5t126.5 -107.5l199 94l49 -94l-172 -80q127 -145 194.5 -319t71.5 -377v-51 q0 -109 -23.5 -204t-97.5 -179q-66 -74 -150.5 -109t-180.5 -35q-92 0 -178 36t-152 108q-72 78 -93.5 176t-21.5 209zM203 504q0 -80 14 -149.5t50 -121t93.5 -81t143.5 -29.5q84 0 141 30.5t92 83t50.5 122t15.5 145.5v49q-2 70 -22.5 130t-58.5 105.5t-93.5 70 t-126.5 24.5q-74 0 -129.5 -26t-93 -72t-57 -109.5t-19.5 -136.5v-35z" />
<glyph unicode="&#xf1;" horiz-adv-x="1095" d="M96 981l162 76q16 -29 28.5 -57.5t20.5 -63.5h12q43 53 120 87t147 34q94 0 168.5 -30t126 -82t78 -122.5t26.5 -152.5v-670h-176v672q0 106 -64.5 169.5t-162.5 63.5q-92 0 -163 -35.5t-100 -66.5v-803h-176v778q0 109 -47 203zM239 1227q0 43 10.5 83t33 70.5t55 49 t79.5 18.5q37 0 70 -13.5t62.5 -29.5t58.5 -29.5t57 -13.5q51 0 71.5 26.5t20.5 59.5h97q0 -98 -49.5 -159.5t-139.5 -61.5q-41 0 -71.5 14t-58 31.5t-56.5 32t-62 14.5q-35 0 -58 -28.5t-23 -63.5h-97z" />
<glyph unicode="&#xf2;" horiz-adv-x="1130" d="M90 516v39q2 106 27 190t104 168q72 74 160 109t191 35q102 0 189 -34t159 -105q74 -76 106.5 -164t32.5 -195v-43q0 -111 -24.5 -209t-106.5 -184q-72 -76 -162 -112t-194 -36q-100 0 -192.5 37t-164.5 111q-78 78 -101.5 180.5t-23.5 212.5zM254 508q0 -86 18.5 -160 t63.5 -127q37 -45 95.5 -69.5t142.5 -24.5q78 0 133 22.5t94 63.5q53 53 73.5 133t20.5 170v41q0 150 -78 244q-41 49 -102 76.5t-141 27.5q-78 0 -137.5 -25.5t-100.5 -72.5q-82 -94 -82 -252v-47zM422 1397v51h147l107 -250h-117z" />
<glyph unicode="&#xf3;" horiz-adv-x="1130" d="M90 516v39q2 106 27 190t104 168q72 74 160 109t191 35q102 0 189 -34t159 -105q74 -76 106.5 -164t32.5 -195v-43q0 -111 -24.5 -209t-106.5 -184q-72 -76 -162 -112t-194 -36q-100 0 -192.5 37t-164.5 111q-78 78 -101.5 180.5t-23.5 212.5zM254 508q0 -86 18.5 -160 t63.5 -127q37 -45 95.5 -69.5t142.5 -24.5q78 0 133 22.5t94 63.5q53 53 73.5 133t20.5 170v41q0 150 -78 244q-41 49 -102 76.5t-141 27.5q-78 0 -137.5 -25.5t-100.5 -72.5q-82 -94 -82 -252v-47zM481 1198l106 250h148v-51l-137 -199h-117z" />
<glyph unicode="&#xf4;" horiz-adv-x="1130" d="M90 516v39q2 106 27 190t104 168q72 74 160 109t191 35q102 0 189 -34t159 -105q74 -76 106.5 -164t32.5 -195v-43q0 -111 -24.5 -209t-106.5 -184q-72 -76 -162 -112t-194 -36q-100 0 -192.5 37t-164.5 111q-78 78 -101.5 180.5t-23.5 212.5zM254 508q0 -86 18.5 -160 t63.5 -127q37 -45 95.5 -69.5t142.5 -24.5q78 0 133 22.5t94 63.5q53 53 73.5 133t20.5 170v41q0 150 -78 244q-41 49 -102 76.5t-141 27.5q-78 0 -137.5 -25.5t-100.5 -72.5q-82 -94 -82 -252v-47zM299 1196v23l237 229h82l238 -229v-23h-156l-123 123l-122 -123h-156z" />
<glyph unicode="&#xf5;" horiz-adv-x="1130" d="M90 516v39q2 106 27 190t104 168q72 74 160 109t191 35q102 0 189 -34t159 -105q74 -76 106.5 -164t32.5 -195v-43q0 -111 -24.5 -209t-106.5 -184q-72 -76 -162 -112t-194 -36q-100 0 -192.5 37t-164.5 111q-78 78 -101.5 180.5t-23.5 212.5zM254 508q0 -86 18.5 -160 t63.5 -127q37 -45 95.5 -69.5t142.5 -24.5q78 0 133 22.5t94 63.5q53 53 73.5 133t20.5 170v41q0 150 -78 244q-41 49 -102 76.5t-141 27.5q-78 0 -137.5 -25.5t-100.5 -72.5q-82 -94 -82 -252v-47zM262 1227q0 43 10.5 83t33 70.5t55 49t79.5 18.5q37 0 70 -13.5 t62.5 -29.5t58.5 -29.5t57 -13.5q51 0 71.5 26.5t20.5 59.5h97q0 -98 -49.5 -159.5t-139.5 -61.5q-41 0 -71.5 14t-58 31.5t-56.5 32t-62 14.5q-35 0 -58 -28.5t-23 -63.5h-97z" />
<glyph unicode="&#xf6;" horiz-adv-x="1130" d="M90 516v39q2 106 27 190t104 168q72 74 160 109t191 35q102 0 189 -34t159 -105q74 -76 106.5 -164t32.5 -195v-43q0 -111 -24.5 -209t-106.5 -184q-72 -76 -162 -112t-194 -36q-100 0 -192.5 37t-164.5 111q-78 78 -101.5 180.5t-23.5 212.5zM254 508q0 -86 18.5 -160 t63.5 -127q37 -45 95.5 -69.5t142.5 -24.5q78 0 133 22.5t94 63.5q53 53 73.5 133t20.5 170v41q0 150 -78 244q-41 49 -102 76.5t-141 27.5q-78 0 -137.5 -25.5t-100.5 -72.5q-82 -94 -82 -252v-47zM278 1352q0 41 29 68.5t70 27.5t69.5 -27.5t28.5 -68.5t-28.5 -69 t-69.5 -28t-70 28t-29 69zM643 1352q0 41 28.5 68.5t69.5 27.5t70 -27.5t29 -68.5t-29 -69t-70 -28t-69.5 28t-28.5 69z" />
<glyph unicode="&#xf7;" horiz-adv-x="1017" d="M6 645q0 35 14 80h979q6 -25 9.5 -43t3.5 -37q0 -33 -13 -82h-979q-14 45 -14 82zM403 348q0 41 29 69.5t70 28.5t70.5 -28.5t29.5 -69.5t-29.5 -69.5t-70.5 -28.5t-70 28.5t-29 69.5zM403 934q0 41 29 69.5t70 28.5t70.5 -28.5t29.5 -69.5t-29.5 -69.5t-70.5 -28.5 t-70 28.5t-29 69.5z" />
<glyph unicode="&#xf8;" horiz-adv-x="1130" d="M61 39l916 1028l96 -82l-915 -1028zM82 516v39q2 106 26.5 190t104.5 168q72 74 160 109t190 35t189.5 -34t158.5 -105q74 -76 107 -164t33 -195v-43q0 -111 -24.5 -209t-106.5 -184q-72 -76 -162 -112t-195 -36q-100 0 -192 37t-164 111q-78 78 -101.5 180.5 t-23.5 212.5zM246 508q0 -86 18.5 -160t63.5 -127q37 -45 95 -69.5t142 -24.5q78 0 133.5 22.5t94.5 63.5q53 53 73.5 133t20.5 170v41q0 150 -78 244q-41 49 -102.5 76.5t-141.5 27.5q-78 0 -137 -25.5t-100 -72.5q-82 -94 -82 -252v-47z" />
<glyph unicode="&#xf9;" d="M115 352v672l176 33v-705q0 -121 47 -173t148 -52q59 0 136 38t156 126v733l177 33v-821q0 -76 14 -126.5t45 -109.5h-188q-14 20 -24.5 56t-12.5 65q-39 -41 -88 -74q-41 -29 -96.5 -50.5t-118.5 -21.5q-197 0 -284 94.5t-87 282.5zM418 1397v51h147l107 -250h-117z" />
<glyph unicode="&#xfa;" d="M115 352v672l176 33v-705q0 -121 47 -173t148 -52q59 0 136 38t156 126v733l177 33v-821q0 -76 14 -126.5t45 -109.5h-188q-14 20 -24.5 56t-12.5 65q-39 -41 -88 -74q-41 -29 -96.5 -50.5t-118.5 -21.5q-197 0 -284 94.5t-87 282.5zM451 1198l106 250h148v-51l-137 -199 h-117z" />
<glyph unicode="&#xfb;" d="M115 352v672l176 33v-705q0 -121 47 -173t148 -52q59 0 136 38t156 126v733l177 33v-821q0 -76 14 -126.5t45 -109.5h-188q-14 20 -24.5 56t-12.5 65q-39 -41 -88 -74q-41 -29 -96.5 -50.5t-118.5 -21.5q-197 0 -284 94.5t-87 282.5zM277 1196v23l237 229h82l238 -229 v-23h-156l-123 123l-122 -123h-156z" />
<glyph unicode="&#xfc;" d="M115 352v672l176 33v-705q0 -121 47 -173t148 -52q59 0 136 38t156 126v733l177 33v-821q0 -76 14 -126.5t45 -109.5h-188q-14 20 -24.5 56t-12.5 65q-39 -41 -88 -74q-41 -29 -96.5 -50.5t-118.5 -21.5q-197 0 -284 94.5t-87 282.5zM276 1352q0 41 29 68.5t70 27.5 t69.5 -27.5t28.5 -68.5t-28.5 -69t-69.5 -28t-70 28t-29 69zM641 1352q0 41 28.5 68.5t69.5 27.5t70 -27.5t29 -68.5t-29 -69t-70 -28t-69.5 28t-28.5 69z" />
<glyph unicode="&#xfd;" horiz-adv-x="1110" d="M51 1008l170 49l320 -836q8 -20 19 -32.5t34 -12.5h8l317 881l170 -49l-456 -1227q-35 -90 -93.5 -146.5t-144.5 -56.5q-29 0 -60.5 5t-78.5 20v129h86q47 0 80 13t49 60l70 201q-59 14 -101.5 55t-64.5 99zM471 1198l106 250h148v-51l-137 -199h-117z" />
<glyph unicode="&#xfe;" horiz-adv-x="1009" d="M123 -397v1794l176 51v-477q51 41 117.5 63.5t154.5 22.5q109 0 191 -38t137 -104.5t83 -157.5t28 -198v-45q0 -115 -22.5 -213t-75 -171t-136.5 -114t-205 -41q-90 0 -156.5 21.5t-115.5 60.5v-454h-176zM299 516q0 -82 8 -152.5t37 -124t83 -84t146 -30.5 q90 0 144.5 31.5t84 85t39 124t9.5 148.5v43q0 74 -14.5 138.5t-46 111.5t-85 73.5t-131.5 26.5q-80 0 -132 -26.5t-83.5 -73.5t-45 -110.5t-13.5 -139.5v-41z" />
<glyph unicode="&#xff;" horiz-adv-x="1110" d="M51 1008l170 49l320 -836q8 -20 19 -32.5t34 -12.5h8l317 881l170 -49l-456 -1227q-35 -90 -93.5 -146.5t-144.5 -56.5q-29 0 -60.5 5t-78.5 20v129h86q47 0 80 13t49 60l70 201q-59 14 -101.5 55t-64.5 99zM297 1352q0 41 29 68.5t70 27.5t69.5 -27.5t28.5 -68.5 t-28.5 -69t-69.5 -28t-70 28t-29 69zM662 1352q0 41 28.5 68.5t69.5 27.5t70 -27.5t29 -68.5t-29 -69t-70 -28t-69.5 28t-28.5 69z" />
<glyph unicode="&#x100;" horiz-adv-x="1386" d="M37 0l530 1423h230l557 -1423h-193l-166 430h-604l-158 -430h-196zM375 1618q0 41 14 70h606q14 -31 15 -72q0 -18 -3 -36.5t-12 -35.5h-606q-14 31 -14 74zM444 584h492l-195 499l-57 207l-55 -207z" />
<glyph unicode="&#x101;" horiz-adv-x="1097" d="M74 293q0 68 26.5 124t71.5 97t104.5 63.5t125.5 22.5h385v94q0 111 -66.5 161t-171.5 52q-94 0 -161.5 -22.5t-147.5 -69.5l-76 131q49 29 93 49.5t90 34.5t95.5 20.5t106.5 6.5q86 0 161 -24.5t131 -72t89 -117t33 -161.5v-446q0 -72 13 -123.5t46 -112.5h-188 q-16 23 -25.5 57.5t-11.5 63.5q-84 -61 -185.5 -103.5t-205.5 -42.5q-70 0 -130.5 22.5t-105.5 64.5t-70.5 100.5t-25.5 130.5zM236 1354q0 40 14 69h606q14 -31 15 -71q0 -18 -3 -37t-12 -35h-606q-14 31 -14 74zM248 291q0 -37 15.5 -66.5t41 -51t57 -34t66.5 -12.5 q37 0 85 15.5t98.5 39t96.5 48t79 42.5v179h-383q-33 0 -61.5 -13.5t-49 -35t-33 -51t-12.5 -60.5z" />
<glyph unicode="&#x102;" horiz-adv-x="1386" d="M37 0l530 1423h230l557 -1423h-193l-166 430h-604l-158 -430h-196zM410 1761h104q0 -35 15.5 -59.5t41 -40.5t57.5 -24.5t64 -8.5q31 0 63 7t57.5 23.5t41.5 42t16 60.5h105q0 -61 -23.5 -107t-62.5 -78t-90.5 -48.5t-106.5 -16.5q-57 0 -108 16.5t-90 48.5t-61.5 79 t-22.5 106zM444 584h492l-195 499l-57 207l-55 -207z" />
<glyph unicode="&#x103;" horiz-adv-x="1097" d="M74 293q0 68 26.5 124t71.5 97t104.5 63.5t125.5 22.5h385v94q0 111 -66.5 161t-171.5 52q-94 0 -161.5 -22.5t-147.5 -69.5l-76 131q49 29 93 49.5t90 34.5t95.5 20.5t106.5 6.5q86 0 161 -24.5t131 -72t89 -117t33 -161.5v-446q0 -72 13 -123.5t46 -112.5h-188 q-16 23 -25.5 57.5t-11.5 63.5q-84 -61 -185.5 -103.5t-205.5 -42.5q-70 0 -130.5 22.5t-105.5 64.5t-70.5 100.5t-25.5 130.5zM248 291q0 -37 15.5 -66.5t41 -51t57 -34t66.5 -12.5q37 0 85 15.5t98.5 39t96.5 48t79 42.5v179h-383q-33 0 -61.5 -13.5t-49 -35t-33 -51 t-12.5 -60.5zM269 1448h104q0 -35 15.5 -59.5t41 -41t57.5 -24.5t64 -8q31 0 63 7t57.5 23.5t41.5 42t16 60.5h105q0 -61 -23.5 -107.5t-62.5 -78t-90.5 -48t-106.5 -16.5q-57 0 -108 16.5t-90 48t-61.5 79t-22.5 106.5z" />
<glyph unicode="&#x104;" horiz-adv-x="1386" d="M37 0l530 1423h230l557 -1423h-193l-166 430h-604l-158 -430h-196zM444 584h492l-195 499l-57 207l-55 -207zM1059 -240q0 55 26.5 129t83.5 134h138q-55 -41 -81 -100.5t-26 -100.5t25.5 -69.5t72.5 -28.5q37 0 91 18v-125q-84 -39 -152 -39q-84 0 -131 52.5t-47 129.5z " />
<glyph unicode="&#x105;" horiz-adv-x="1097" d="M74 293q0 68 26.5 124t71.5 97t104.5 63.5t125.5 22.5h385v94q0 111 -66.5 161t-171.5 52q-94 0 -161.5 -22.5t-147.5 -69.5l-76 131q49 29 93 49.5t90 34.5t95.5 20.5t106.5 6.5q86 0 161 -24.5t131 -72t89 -117t33 -161.5v-446q0 -72 13 -123.5t46 -112.5h-188 q-16 23 -25.5 57.5t-11.5 63.5q-84 -61 -185.5 -103.5t-205.5 -42.5q-70 0 -130.5 22.5t-105.5 64.5t-70.5 100.5t-25.5 130.5zM248 291q0 -37 15.5 -66.5t41 -51t57 -34t66.5 -12.5q37 0 85 15.5t98.5 39t96.5 48t79 42.5v179h-383q-33 0 -61.5 -13.5t-49 -35t-33 -51 t-12.5 -60.5zM744 -240q0 55 26.5 129t83.5 134h138q-55 -41 -81 -100.5t-26 -100.5t25.5 -69.5t72.5 -28.5q37 0 91 18v-125q-84 -39 -152 -39q-84 0 -131 52.5t-47 129.5z" />
<glyph unicode="&#x106;" horiz-adv-x="1257" d="M82 713v75q0 156 40 278t120 207t201 130t282 45q125 0 245 -42t208 -132l-125 -125q-63 66 -150.5 97.5t-177.5 31.5q-135 0 -222 -44t-138 -114.5t-70.5 -159t-19.5 -176.5v-67q0 -102 13 -203.5t59.5 -184.5t135.5 -134.5t242 -51.5q92 0 177 34t151 104l129 -121 q-90 -96 -209 -140.5t-248 -44.5q-182 0 -305 56.5t-197.5 155t-107.5 233.5t-33 293zM586 1509l155 252h158l2 -22l-174 -230h-141z" />
<glyph unicode="&#x107;" horiz-adv-x="991" d="M100 514v39q0 49 3 94t14.5 87t33 84t60.5 87q33 39 78 67.5t96 47t105.5 28t103.5 9.5q92 0 182 -33t156 -98l-109 -107q-45 39 -99 62.5t-138 23.5q-70 0 -129.5 -23.5t-102.5 -70.5q-45 -49 -67.5 -118.5t-22.5 -141.5v-33q0 -90 24.5 -173t82.5 -138q39 -37 91 -58.5 t124 -21.5q61 0 129.5 20.5t109.5 69.5l109 -104q-68 -72 -159 -105t-189 -33q-82 0 -171 25t-155 78q-55 45 -91 103.5t-52 135.5q-10 49 -13.5 98.5t-3.5 98.5zM444 1198l106 250h148v-51l-137 -199h-117z" />
<glyph unicode="&#x108;" horiz-adv-x="1257" d="M82 713v75q0 156 40 278t120 207t201 130t282 45q125 0 245 -42t208 -132l-125 -125q-63 66 -150.5 97.5t-177.5 31.5q-135 0 -222 -44t-138 -114.5t-70.5 -159t-19.5 -176.5v-67q0 -102 13 -203.5t59.5 -184.5t135.5 -134.5t242 -51.5q92 0 177 34t151 104l129 -121 q-90 -96 -209 -140.5t-248 -44.5q-182 0 -305 56.5t-197.5 155t-107.5 233.5t-33 293zM424 1509v23l238 229h82l237 -229v-23h-156l-122 123l-123 -123h-156z" />
<glyph unicode="&#x109;" horiz-adv-x="991" d="M100 514v39q0 49 3 94t14.5 87t33 84t60.5 87q33 39 78 67.5t96 47t105.5 28t103.5 9.5q92 0 182 -33t156 -98l-109 -107q-45 39 -99 62.5t-138 23.5q-70 0 -129.5 -23.5t-102.5 -70.5q-45 -49 -67.5 -118.5t-22.5 -141.5v-33q0 -90 24.5 -173t82.5 -138q39 -37 91 -58.5 t124 -21.5q61 0 129.5 20.5t109.5 69.5l109 -104q-68 -72 -159 -105t-189 -33q-82 0 -171 25t-155 78q-55 45 -91 103.5t-52 135.5q-10 49 -13.5 98.5t-3.5 98.5zM256 1196v23l237 229h82l238 -229v-23h-156l-123 123l-122 -123h-156z" />
<glyph unicode="&#x10a;" horiz-adv-x="1257" d="M82 713v75q0 156 40 278t120 207t201 130t282 45q125 0 245 -42t208 -132l-125 -125q-63 66 -150.5 97.5t-177.5 31.5q-135 0 -222 -44t-138 -114.5t-70.5 -159t-19.5 -176.5v-67q0 -102 13 -203.5t59.5 -184.5t135.5 -134.5t242 -51.5q92 0 177 34t151 104l129 -121 q-90 -96 -209 -140.5t-248 -44.5q-182 0 -305 56.5t-197.5 155t-107.5 233.5t-33 293zM611 1665q0 41 28.5 68.5t69.5 27.5t69.5 -27.5t28.5 -68.5t-28.5 -68.5t-69.5 -27.5t-69.5 27.5t-28.5 68.5z" />
<glyph unicode="&#x10b;" horiz-adv-x="991" d="M100 514v39q0 49 3 94t14.5 87t33 84t60.5 87q33 39 78 67.5t96 47t105.5 28t103.5 9.5q92 0 182 -33t156 -98l-109 -107q-45 39 -99 62.5t-138 23.5q-70 0 -129.5 -23.5t-102.5 -70.5q-45 -49 -67.5 -118.5t-22.5 -141.5v-33q0 -90 24.5 -173t82.5 -138q39 -37 91 -58.5 t124 -21.5q61 0 129.5 20.5t109.5 69.5l109 -104q-68 -72 -159 -105t-189 -33q-82 0 -171 25t-155 78q-55 45 -91 103.5t-52 135.5q-10 49 -13.5 98.5t-3.5 98.5zM445 1352q0 41 28.5 68.5t69.5 27.5t69.5 -27.5t28.5 -68.5t-28.5 -69t-69.5 -28t-69.5 28t-28.5 69z" />
<glyph unicode="&#x10c;" horiz-adv-x="1257" d="M82 713v75q0 156 40 278t120 207t201 130t282 45q125 0 245 -42t208 -132l-125 -125q-63 66 -150.5 97.5t-177.5 31.5q-135 0 -222 -44t-138 -114.5t-70.5 -159t-19.5 -176.5v-67q0 -102 13 -203.5t59.5 -184.5t135.5 -134.5t242 -51.5q92 0 177 34t151 104l129 -121 q-90 -96 -209 -140.5t-248 -44.5q-182 0 -305 56.5t-197.5 155t-107.5 233.5t-33 293zM424 1735v22h156l122 -123l123 123h156v-22l-238 -230h-81z" />
<glyph unicode="&#x10d;" horiz-adv-x="991" d="M100 514v39q0 49 3 94t14.5 87t33 84t60.5 87q33 39 78 67.5t96 47t105.5 28t103.5 9.5q92 0 182 -33t156 -98l-109 -107q-45 39 -99 62.5t-138 23.5q-70 0 -129.5 -23.5t-102.5 -70.5q-45 -49 -67.5 -118.5t-22.5 -141.5v-33q0 -90 24.5 -173t82.5 -138q39 -37 91 -58.5 t124 -21.5q61 0 129.5 20.5t109.5 69.5l109 -104q-68 -72 -159 -105t-189 -33q-82 0 -171 25t-155 78q-55 45 -91 103.5t-52 135.5q-10 49 -13.5 98.5t-3.5 98.5zM301 1425v23h156l123 -123l123 123h155v-23l-237 -229h-82z" />
<glyph unicode="&#x10e;" horiz-adv-x="1382" d="M125 0v1423h623q152 0 256 -57t169.5 -155.5t95.5 -227.5t30 -272q0 -154 -27 -284t-90.5 -225.5t-168.5 -148.5t-261 -53h-627zM309 168h418q113 0 185.5 41t113.5 113.5t56.5 172t15.5 216.5q0 113 -18.5 212t-61.5 172.5t-114.5 116.5t-178.5 43h-416v-1087zM332 1735 v22h156l122 -123l123 123h156v-22l-238 -230h-81z" />
<glyph unicode="&#x10f;" horiz-adv-x="1189" d="M84 436v99q0 262 129 392t385 130q96 0 197 -39v381l176 49v-1212q0 -76 14.5 -126.5t44.5 -109.5h-188q-14 20 -24.5 56t-12.5 65q-41 -41 -90 -74q-41 -29 -98.5 -50.5t-120.5 -21.5q-111 0 -189 37t-128 99.5t-72.5 146.5t-22.5 178zM260 426q0 -59 12.5 -112.5 t41 -95.5t72.5 -66.5t110 -24.5q59 0 139 38t160 126v567q-39 23 -96.5 35t-116.5 12q-154 0 -238 -95t-84 -261v-123zM1037 1073q39 16 60.5 45t31.5 60q-35 2 -59.5 27.5t-24.5 60.5t25.5 60.5t62.5 25.5q35 0 59 -23q39 -35 39 -92q0 -74 -46 -129t-113 -82z" />
<glyph unicode="&#x110;" horiz-adv-x="1382" d="M0 647v127h733v-127h-733zM123 0v1423h622q152 0 256.5 -57t170 -155.5t95 -227.5t29.5 -272q0 -154 -26.5 -284t-90 -225.5t-168.5 -148.5t-261 -53h-627zM307 168h418q113 0 185.5 41t113.5 113.5t56.5 172t15.5 216.5q0 113 -18.5 212t-61.5 172.5t-115 116.5t-178 43 h-416v-1087z" />
<glyph unicode="&#x111;" horiz-adv-x="1058" d="M25 436v99q0 262 129 392t385 130q96 0 196 -39v381l176 49v-1212q0 -76 14.5 -126.5t45.5 -109.5h-189q-14 20 -24 56t-13 65q-41 -41 -90 -74q-41 -29 -98 -50.5t-121 -21.5q-111 0 -188.5 37t-127.5 99.5t-72.5 146.5t-22.5 178zM201 426q0 -59 12 -112.5t41 -95.5 t73 -66.5t109 -24.5q59 0 139 38t160 126v567q-39 23 -96 35t-117 12q-154 0 -237.5 -95t-83.5 -261v-123zM518 1147v125h645l-39 -125h-606z" />
<glyph unicode="&#x112;" horiz-adv-x="1191" d="M123 0v1423h1024l-53 -168h-787v-415h705v-170h-705v-502h834v-168h-1018zM314 1618q0 41 14 70h606q14 -31 15 -72q0 -18 -3 -36.5t-12 -35.5h-606q-14 31 -14 74z" />
<glyph unicode="&#x113;" d="M86 502v22q0 51 2 99.5t12.5 95.5t33 93t63.5 91q70 78 166 116t198 38q115 0 204 -37t149.5 -102.5t91.5 -155.5t31 -199v-92h-775q0 -180 83 -262t251 -82q82 0 139.5 34t102.5 93l156 -64q-59 -100 -166 -157.5t-242 -57.5q-137 0 -232.5 38t-154.5 106.5t-86 166 t-27 216.5zM238 1354q0 40 14 69h606q14 -31 15 -71q0 -18 -3 -37t-12 -35h-606q-14 31 -14 74zM262 614h598v19q0 51 -20.5 100t-59 87t-94 61.5t-125.5 23.5q-66 0 -121 -22.5t-95 -60.5t-61.5 -87t-21.5 -102v-19z" />
<glyph unicode="&#x116;" horiz-adv-x="1191" d="M123 0v1423h1024l-53 -168h-787v-415h705v-170h-705v-502h834v-168h-1018zM574 1665q0 41 28.5 68.5t69.5 27.5t69.5 -27.5t28.5 -68.5t-28.5 -68.5t-69.5 -27.5t-69.5 27.5t-28.5 68.5z" />
<glyph unicode="&#x117;" d="M86 502v22q0 51 2 99.5t12.5 95.5t33 93t63.5 91q70 78 166 116t198 38q115 0 204 -37t149.5 -102.5t91.5 -155.5t31 -199v-92h-775q0 -180 83 -262t251 -82q82 0 139.5 34t102.5 93l156 -64q-59 -100 -166 -157.5t-242 -57.5q-137 0 -232.5 38t-154.5 106.5t-86 166 t-27 216.5zM262 614h598v19q0 51 -20.5 100t-59 87t-94 61.5t-125.5 23.5q-66 0 -121 -22.5t-95 -60.5t-61.5 -87t-21.5 -102v-19zM469 1352q0 41 28.5 68.5t69.5 27.5t69.5 -27.5t28.5 -68.5t-28.5 -69t-69.5 -28t-69.5 28t-28.5 69z" />
<glyph unicode="&#x118;" horiz-adv-x="1191" d="M123 0v1423h1024l-53 -168h-787v-415h705v-170h-705v-502h834v-168h-1018zM877 -240q0 55 26.5 129t83.5 134h138q-55 -41 -81 -100.5t-26 -100.5t25.5 -69.5t72.5 -28.5q37 0 91 18v-125q-84 -39 -152 -39q-84 0 -131 52.5t-47 129.5z" />
<glyph unicode="&#x119;" d="M86 502v22q0 51 2 99.5t12.5 95.5t33 93t63.5 91q70 78 166 116t198 38q115 0 204 -37t149.5 -102.5t91.5 -155.5t31 -199v-92h-775q0 -180 83 -262t251 -82q82 0 139.5 34t102.5 93l156 -64q-59 -100 -166 -157.5t-242 -57.5q-137 0 -232.5 38t-154.5 106.5t-86 166 t-27 216.5zM262 614h598v19q0 51 -20.5 100t-59 87t-94 61.5t-125.5 23.5q-66 0 -121 -22.5t-95 -60.5t-61.5 -87t-21.5 -102v-19zM410 -240q0 55 26.5 129t83.5 134h138q-55 -41 -81 -100.5t-26 -100.5t25.5 -69.5t72.5 -28.5q37 0 91 18v-125q-84 -39 -152 -39 q-84 0 -131 52.5t-47 129.5z" />
<glyph unicode="&#x11a;" horiz-adv-x="1191" d="M123 0v1423h1024l-53 -168h-787v-415h705v-170h-705v-502h834v-168h-1018zM367 1735v22h156l122 -123l123 123h156v-22l-238 -230h-81z" />
<glyph unicode="&#x11b;" d="M86 502v22q0 51 2 99.5t12.5 95.5t33 93t63.5 91q70 78 166 116t198 38q115 0 204 -37t149.5 -102.5t91.5 -155.5t31 -199v-92h-775q0 -180 83 -262t251 -82q82 0 139.5 34t102.5 93l156 -64q-59 -100 -166 -157.5t-242 -57.5q-137 0 -232.5 38t-154.5 106.5t-86 166 t-27 216.5zM262 614h598v19q0 51 -20.5 100t-59 87t-94 61.5t-125.5 23.5q-66 0 -121 -22.5t-95 -60.5t-61.5 -87t-21.5 -102v-19zM289 1425v23h156l123 -123l123 123h155v-23l-237 -229h-82z" />
<glyph unicode="&#x11c;" horiz-adv-x="1325" d="M76 686v47q0 72 4 137.5t19.5 128t48 124t90.5 122.5q102 111 232 157t275 46q129 0 247 -44t210 -153l-127 -106q-25 35 -62.5 60.5t-81.5 42t-92 23.5t-94 7q-111 0 -202.5 -36t-165.5 -118q-80 -86 -98.5 -183t-18.5 -210v-51q0 -113 24.5 -206t102.5 -181 q37 -41 87 -69.5t105.5 -46t113 -26t112.5 -8.5t125.5 19.5t122.5 42.5v362h-308v172h484v-639q-98 -53 -210 -89t-226 -36q-74 0 -149 11.5t-146.5 37t-136 64.5t-113.5 94q-102 113 -137 235t-35 269zM434 1509v23l238 229h82l237 -229v-23h-156l-122 123l-123 -123h-156z " />
<glyph unicode="&#x11d;" horiz-adv-x="1069" d="M86 446v107q0 260 125 382t377 122q102 0 197.5 -19.5t177.5 -54.5v-946q0 -98 -33 -182t-92.5 -145.5t-143.5 -96.5t-188 -35q-115 0 -203 26.5t-186 84.5l84 145q78 -47 147.5 -68.5t161.5 -21.5q133 0 205 81t72 208v102q-12 -12 -39 -34.5t-65 -45t-85 -39 t-102 -16.5q-88 0 -163 24.5t-130 78t-86 138.5t-31 205zM262 434q0 -154 61.5 -218t172.5 -64q59 0 135 37.5t156 125.5v559q-43 14 -93.5 22.5t-101.5 8.5q-178 0 -254 -84t-76 -250v-137zM299 1196v23l237 229h82l238 -229v-23h-156l-123 123l-122 -123h-156z" />
<glyph unicode="&#x11e;" horiz-adv-x="1325" d="M76 686v47q0 72 4 137.5t19.5 128t48 124t90.5 122.5q102 111 232 157t275 46q129 0 247 -44t210 -153l-127 -106q-25 35 -62.5 60.5t-81.5 42t-92 23.5t-94 7q-111 0 -202.5 -36t-165.5 -118q-80 -86 -98.5 -183t-18.5 -210v-51q0 -113 24.5 -206t102.5 -181 q37 -41 87 -69.5t105.5 -46t113 -26t112.5 -8.5t125.5 19.5t122.5 42.5v362h-308v172h484v-639q-98 -53 -210 -89t-226 -36q-74 0 -149 11.5t-146.5 37t-136 64.5t-113.5 94q-102 113 -137 235t-35 269zM465 1790h104q0 -35 15.5 -59.5t41 -40.5t57.5 -24.5t64 -8.5 q31 0 63 7t57.5 23.5t41.5 42t16 60.5h105q0 -61 -23.5 -107t-62.5 -78t-90.5 -48.5t-106.5 -16.5q-57 0 -108 16.5t-90 48.5t-61.5 79t-22.5 106z" />
<glyph unicode="&#x11f;" horiz-adv-x="1069" d="M86 446v107q0 260 125 382t377 122q102 0 197.5 -19.5t177.5 -54.5v-946q0 -98 -33 -182t-92.5 -145.5t-143.5 -96.5t-188 -35q-115 0 -203 26.5t-186 84.5l84 145q78 -47 147.5 -68.5t161.5 -21.5q133 0 205 81t72 208v102q-12 -12 -39 -34.5t-65 -45t-85 -39 t-102 -16.5q-88 0 -163 24.5t-130 78t-86 138.5t-31 205zM262 434q0 -154 61.5 -218t172.5 -64q59 0 135 37.5t156 125.5v559q-43 14 -93.5 22.5t-101.5 8.5q-178 0 -254 -84t-76 -250v-137zM283 1448h104q0 -35 15.5 -59.5t41 -41t57.5 -24.5t64 -8q31 0 63 7t57.5 23.5 t41.5 42t16 60.5h105q0 -61 -23.5 -107.5t-62.5 -78t-90.5 -48t-106.5 -16.5q-57 0 -108 16.5t-90 48t-61.5 79t-22.5 106.5z" />
<glyph unicode="&#x120;" horiz-adv-x="1325" d="M76 686v47q0 72 4 137.5t19.5 128t48 124t90.5 122.5q102 111 232 157t275 46q129 0 247 -44t210 -153l-127 -106q-25 35 -62.5 60.5t-81.5 42t-92 23.5t-94 7q-111 0 -202.5 -36t-165.5 -118q-80 -86 -98.5 -183t-18.5 -210v-51q0 -113 24.5 -206t102.5 -181 q37 -41 87 -69.5t105.5 -46t113 -26t112.5 -8.5t125.5 19.5t122.5 42.5v362h-308v172h484v-639q-98 -53 -210 -89t-226 -36q-74 0 -149 11.5t-146.5 37t-136 64.5t-113.5 94q-102 113 -137 235t-35 269zM633 1665q0 41 28.5 68.5t69.5 27.5t69.5 -27.5t28.5 -68.5 t-28.5 -68.5t-69.5 -27.5t-69.5 27.5t-28.5 68.5z" />
<glyph unicode="&#x121;" horiz-adv-x="1069" d="M86 446v107q0 260 125 382t377 122q102 0 197.5 -19.5t177.5 -54.5v-946q0 -98 -33 -182t-92.5 -145.5t-143.5 -96.5t-188 -35q-115 0 -203 26.5t-186 84.5l84 145q78 -47 147.5 -68.5t161.5 -21.5q133 0 205 81t72 208v102q-12 -12 -39 -34.5t-65 -45t-85 -39 t-102 -16.5q-88 0 -163 24.5t-130 78t-86 138.5t-31 205zM262 434q0 -154 61.5 -218t172.5 -64q59 0 135 37.5t156 125.5v559q-43 14 -93.5 22.5t-101.5 8.5q-178 0 -254 -84t-76 -250v-137zM467 1352q0 41 28.5 68.5t69.5 27.5t69.5 -27.5t28.5 -68.5t-28.5 -69t-69.5 -28 t-69.5 28t-28.5 69z" />
<glyph unicode="&#x122;" horiz-adv-x="1325" d="M76 686v47q0 72 4 137.5t19.5 128t48 124t90.5 122.5q102 111 232 157t275 46q129 0 247 -44t210 -153l-127 -106q-25 35 -62.5 60.5t-81.5 42t-92 23.5t-94 7q-111 0 -202.5 -36t-165.5 -118q-80 -86 -98.5 -183t-18.5 -210v-51q0 -113 24.5 -206t102.5 -181 q37 -41 87 -69.5t105.5 -46t113 -26t112.5 -8.5t125.5 19.5t122.5 42.5v362h-308v172h484v-639q-98 -53 -210 -89t-226 -36q-74 0 -149 11.5t-146.5 37t-136 64.5t-113.5 94q-102 113 -137 235t-35 269zM621 -375q39 16 60.5 45t31.5 60q-35 2 -59.5 27.5t-24.5 60.5 t25.5 60.5t62.5 25.5q35 0 59 -23q39 -35 39 -92q0 -74 -46 -129t-113 -82z" />
<glyph unicode="&#x123;" horiz-adv-x="1069" d="M86 446v107q0 260 125 382t377 122q102 0 197.5 -19.5t177.5 -54.5v-946q0 -98 -33 -182t-92.5 -145.5t-143.5 -96.5t-188 -35q-115 0 -203 26.5t-186 84.5l84 145q78 -47 147.5 -68.5t161.5 -21.5q133 0 205 81t72 208v102q-12 -12 -39 -34.5t-65 -45t-85 -39 t-102 -16.5q-88 0 -163 24.5t-130 78t-86 138.5t-31 205zM262 434q0 -154 61.5 -218t172.5 -64q59 0 135 37.5t156 125.5v559q-43 14 -93.5 22.5t-101.5 8.5q-178 0 -254 -84t-76 -250v-137zM490 1237q0 74 46 129t113 82l35 -47q-39 -16 -60.5 -45t-31.5 -60 q35 -2 59.5 -27.5t24.5 -60.5t-25.5 -60.5t-62.5 -25.5q-35 0 -59 23q-39 35 -39 92z" />
<glyph unicode="&#x124;" horiz-adv-x="1366" d="M123 0v1423h184v-583h750v583h184v-1423h-184v670h-750v-670h-184zM426 1509v23l238 229h82l237 -229v-23h-156l-122 123l-123 -123h-156z" />
<glyph unicode="&#x125;" horiz-adv-x="1052" d="M57 1509v23l238 229h82l237 -229v-23h-156l-122 123l-123 -123h-156zM123 0v1399l176 49v-543q63 72 144 100.5t149 26.5q86 0 155.5 -28.5t120 -82t75 -124t24.5 -152.5v-645h-176v639q0 111 -53.5 176.5t-151.5 65.5q-125 0 -193.5 -62.5t-93.5 -156.5v-662h-176z" />
<glyph unicode="&#x126;" horiz-adv-x="1366" d="M-49 1032v127h1468v-127h-1468zM123 0v1423h184v-583h750v583h184v-1423h-184v670h-750v-670h-184z" />
<glyph unicode="&#x127;" horiz-adv-x="1052" d="M0 1143v125h645l-39 -125h-606zM123 0v1399l176 49v-543q63 78 140 102.5t153 24.5q86 0 155.5 -29.5t117.5 -82t75 -123t27 -152.5v-645h-176v668q0 96 -53.5 154.5t-151.5 58.5q-125 0 -193.5 -62.5t-93.5 -156.5v-662h-176z" />
<glyph unicode="&#x12a;" horiz-adv-x="444" d="M-94 1618q0 41 14 70h606q14 -31 15 -72q0 -18 -3 -36.5t-12 -35.5h-606q-14 31 -14 74zM125 0v1423h185v-1423h-185z" />
<glyph unicode="&#x12b;" horiz-adv-x="645" d="M8 1354q1 40 15 69h606q14 -31 14 -71q0 -18 -3 -37t-11 -35h-606q-14 31 -15 74zM238 0v1032h176v-1032h-176z" />
<glyph unicode="&#x12e;" horiz-adv-x="444" d="M23 -240q0 55 26.5 129t83.5 134h138q-55 -41 -81 -100.5t-26 -100.5t25.5 -69.5t72.5 -28.5q37 0 91 18v-125q-84 -39 -152 -39q-84 0 -131 52.5t-47 129.5zM125 0v1423h185v-1423h-185z" />
<glyph unicode="&#x12f;" horiz-adv-x="452" d="M76 -240q0 55 26.5 129t83.5 134h138q-55 -41 -81 -100.5t-26 -100.5t25.5 -69.5t72.5 -28.5q37 0 91 18v-125q-84 -39 -152 -39q-84 0 -131 52.5t-47 129.5z" />
<glyph unicode="&#x130;" horiz-adv-x="444" d="M123 1665q0 41 28.5 68.5t69.5 27.5t69.5 -27.5t28.5 -68.5t-28.5 -68.5t-69.5 -27.5t-69.5 27.5t-28.5 68.5zM125 0v1423h185v-1423h-185z" />
<glyph unicode="&#x131;" horiz-adv-x="436" d="M123 0v1032h176v-1032h-176z" />
<glyph unicode="&#x132;" horiz-adv-x="894" d="M0 373h180q0 -49 8.5 -91t29 -73t57 -48.5t94.5 -17.5q127 0 176 65.5t49 182.5v1032h188v-1032q0 -201 -105 -308.5t-310 -107.5q-98 0 -168 32t-114 86t-64.5 126t-20.5 154zM0 487v936h184v-936h-184z" />
<glyph unicode="&#x133;" horiz-adv-x="724" d="M70 1352q0 41 28.5 68.5t69.5 27.5t69.5 -27.5t28.5 -68.5t-28.5 -69t-69.5 -28t-69.5 28t-28.5 69zM82 0v1032h176v-1032h-176zM213 -268h113q127 0 127 123v1177h176v-1177q0 -59 -20.5 -109.5t-57.5 -87.5t-85 -58.5t-104 -21.5q-29 0 -71.5 6t-77.5 19v129zM438 1352 q0 41 29 68.5t70 27.5t69.5 -27.5t28.5 -68.5t-28.5 -69t-69.5 -28t-70 28t-29 69z" />
<glyph unicode="&#x134;" horiz-adv-x="1091" d="M82 373h180q0 -49 8 -91t28.5 -73t57.5 -48.5t94 -17.5q127 0 176.5 65.5t49.5 182.5v1032h188v-1032q0 -201 -105.5 -308.5t-310.5 -107.5q-98 0 -167.5 32t-113.5 86t-64.5 126t-20.5 154zM434 1509v23l238 229h82l237 -229v-23h-156l-122 123l-123 -123h-156z" />
<glyph unicode="&#x135;" horiz-adv-x="608" d="M-16 -268h92q59 0 103 31.5t44 91.5v1177h176v-1177q0 -59 -20.5 -109.5t-56 -87.5t-85 -58.5t-104.5 -21.5q-31 0 -57 6l-92 19v129zM74 1198v21l186 229h94l187 -229v-21h-138l-96 129l-96 -129h-137z" />
<glyph unicode="&#x136;" horiz-adv-x="1220" d="M123 0v1423h184v-622h144l407 622h211l-442 -690l528 -733h-221l-479 666h-148v-666h-184zM459 -375q39 16 60.5 45t31.5 60q-35 2 -59.5 27.5t-24.5 60.5t25.5 60.5t62.5 25.5q35 0 59 -23q39 -35 39 -92q0 -74 -46 -129t-113 -82z" />
<glyph unicode="&#x137;" horiz-adv-x="937" d="M123 0v1399l176 49v-858h107l315 442h180l-348 -502l254 -350q20 -29 55 -41t74 -12v-127q-49 -25 -86 -25q-51 0 -94 39t-80 90l-273 369h-104v-473h-176zM365 -375q39 16 60.5 45t31.5 60q-35 2 -59.5 27.5t-24.5 60.5t25.5 60.5t62.5 25.5q35 0 59 -23q39 -35 39 -92 q0 -74 -46 -129t-113 -82z" />
<glyph unicode="&#x139;" horiz-adv-x="1009" d="M123 0v1423h184v-1255h703l-52 -168h-835zM150 1521l155 252h158l2 -22l-174 -230h-141z" />
<glyph unicode="&#x13a;" horiz-adv-x="522" d="M113 252v1147l176 49v-1198q0 -123 127 -123h104v-127q-35 -12 -74.5 -18.5t-68.5 -6.5q-55 0 -103.5 21.5t-84 58.5t-56 87.5t-20.5 109.5zM137 1509l155 252h158l2 -22l-174 -230h-141z" />
<glyph unicode="&#x13b;" horiz-adv-x="1009" d="M123 0v1423h184v-1255h703l-52 -168h-835zM443 -375q39 16 60.5 45t31.5 60q-35 2 -59.5 27.5t-24.5 60.5t25.5 60.5t62.5 25.5q35 0 59 -23q39 -35 39 -92q0 -74 -46 -129t-113 -82z" />
<glyph unicode="&#x13c;" horiz-adv-x="522" d="M113 252v1147l176 49v-1198q0 -123 127 -123h104v-127q-35 -12 -74.5 -18.5t-68.5 -6.5q-55 0 -103.5 21.5t-84 58.5t-56 87.5t-20.5 109.5zM189 -375q39 16 60.5 45t31.5 60q-35 2 -59.5 27.5t-24.5 60.5t25.5 60.5t62.5 25.5q35 0 59 -23q39 -35 39 -92q0 -74 -46 -129 t-113 -82z" />
<glyph unicode="&#x13d;" horiz-adv-x="1009" d="M123 0v1423h184v-1255h703l-52 -168h-835zM637 1169q39 16 60.5 45t31.5 60q-35 2 -59.5 27.5t-24.5 60.5t25.5 60.5t62.5 25.5q35 0 59 -23q39 -35 39 -92q0 -74 -46 -129t-113 -82z" />
<glyph unicode="&#x13e;" horiz-adv-x="663" d="M113 252v1147l176 49v-1198q0 -123 127 -123h104v-127q-35 -12 -74.5 -18.5t-68.5 -6.5q-55 0 -103.5 21.5t-84 58.5t-56 87.5t-20.5 109.5zM424 1169q39 16 60.5 45t31.5 60q-35 2 -59.5 27.5t-24.5 60.5t25.5 60.5t62.5 25.5q35 0 59 -23q39 -35 39 -92q0 -74 -46 -129 t-113 -82z" />
<glyph unicode="&#x13f;" horiz-adv-x="1009" d="M123 0v1423h184v-1255h703l-52 -168h-835zM592 690q0 41 28.5 69t69.5 28t69.5 -28t28.5 -69t-28.5 -68.5t-69.5 -27.5t-69.5 27.5t-28.5 68.5z" />
<glyph unicode="&#x140;" horiz-adv-x="604" d="M113 252v1147l176 49v-1198q0 -123 127 -123h104v-127q-35 -12 -74.5 -18.5t-68.5 -6.5q-55 0 -103.5 21.5t-84 58.5t-56 87.5t-20.5 109.5zM402 694q0 41 28.5 69t69.5 28t69.5 -28t28.5 -69t-28.5 -68.5t-69.5 -27.5t-69.5 27.5t-28.5 68.5z" />
<glyph unicode="&#x141;" horiz-adv-x="1009" d="M-6 446v150l129 98v729h184v-587l219 168v-150l-219 -168v-518h703l-52 -168h-835v545z" />
<glyph unicode="&#x142;" horiz-adv-x="522" d="M-16 446v148l129 94v711l176 49v-629l162 121v-147l-162 -121v-422q0 -123 127 -123h104v-127q-35 -12 -74.5 -18.5t-68.5 -6.5q-55 0 -103.5 21.5t-84 58.5t-56 87.5t-20.5 109.5v289z" />
<glyph unicode="&#x143;" horiz-adv-x="1378" d="M123 0v1423h235l711 -1142v1142h184v-1423h-225l-721 1165v-1165h-184zM634 1509l175 252h179l2 -22l-197 -230h-159z" />
<glyph unicode="&#x144;" horiz-adv-x="1095" d="M96 981l162 76q16 -29 28.5 -57.5t20.5 -63.5h12q43 53 120 87t147 34q94 0 168.5 -30t126 -82t78 -122.5t26.5 -152.5v-670h-176v672q0 106 -64.5 169.5t-162.5 63.5q-92 0 -163 -35.5t-100 -66.5v-803h-176v778q0 109 -47 203zM463 1198l106 250h148v-51l-137 -199 h-117z" />
<glyph unicode="&#x145;" horiz-adv-x="1378" d="M123 0v1423h235l711 -1142v1142h184v-1423h-225l-721 1165v-1165h-184zM545 -375q39 16 60.5 45t31.5 60q-35 2 -59.5 27.5t-24.5 60.5t25.5 60.5t62.5 25.5q35 0 59 -23q39 -35 39 -92q0 -74 -46 -129t-113 -82z" />
<glyph unicode="&#x146;" horiz-adv-x="1095" d="M96 981l162 76q16 -29 28.5 -57.5t20.5 -63.5h12q43 53 120 87t147 34q94 0 168.5 -30t126 -82t78 -122.5t26.5 -152.5v-670h-176v672q0 106 -64.5 169.5t-162.5 63.5q-92 0 -163 -35.5t-100 -66.5v-803h-176v778q0 109 -47 203zM463 -375q39 16 60.5 45t31.5 60 q-35 2 -59.5 27.5t-24.5 60.5t25.5 60.5t62.5 25.5q35 0 59 -23q39 -35 39 -92q0 -74 -46 -129t-113 -82z" />
<glyph unicode="&#x147;" horiz-adv-x="1378" d="M123 0v1423h235l711 -1142v1142h184v-1423h-225l-721 1165v-1165h-184zM414 1721v22h156l122 -123l123 123h156v-22l-238 -230h-81z" />
<glyph unicode="&#x148;" horiz-adv-x="1095" d="M96 981l162 76q16 -29 28.5 -57.5t20.5 -63.5h12q43 53 120 87t147 34q94 0 168.5 -30t126 -82t78 -122.5t26.5 -152.5v-670h-176v672q0 106 -64.5 169.5t-162.5 63.5q-92 0 -163 -35.5t-100 -66.5v-803h-176v778q0 109 -47 203zM301 1425v23h156l123 -123l123 123h155 v-23l-237 -229h-82z" />
<glyph unicode="&#x14c;" horiz-adv-x="1499" d="M82 713v55q0 145 46 270t132 216.5t210 142.5t280 51t279.5 -51t209.5 -142.5t132 -216.5t46 -270v-55q0 -154 -38 -289t-117.5 -234.5t-206.5 -157t-305 -57.5t-305.5 57.5t-207 157t-117.5 234.5t-38 289zM274 717q0 -117 28 -220.5t85 -182t146.5 -125t211.5 -46.5 q127 0 218.5 44t149.5 121t85 181.5t27 227.5v47q0 104 -32 198.5t-92.5 164t-149 110.5t-201.5 41q-115 0 -203 -41t-148.5 -110.5t-92.5 -164t-32 -198.5v-47zM430 1643q0 41 14 70h606q14 -31 15 -72q0 -18 -3 -36.5t-12 -35.5h-606q-14 31 -14 74z" />
<glyph unicode="&#x14d;" horiz-adv-x="1130" d="M90 516v39q2 106 27 190t104 168q72 74 160 109t191 35q102 0 189 -34t159 -105q74 -76 106.5 -164t32.5 -195v-43q0 -111 -24.5 -209t-106.5 -184q-72 -76 -162 -112t-194 -36q-100 0 -192.5 37t-164.5 111q-78 78 -101.5 180.5t-23.5 212.5zM254 508q0 -86 18.5 -160 t63.5 -127q37 -45 95.5 -69.5t142.5 -24.5q78 0 133 22.5t94 63.5q53 53 73.5 133t20.5 170v41q0 150 -78 244q-41 49 -102 76.5t-141 27.5q-78 0 -137.5 -25.5t-100.5 -72.5q-82 -94 -82 -252v-47zM264 1307q0 40 14 69h606q14 -31 15 -71q0 -18 -3 -37t-12 -35h-606 q-14 31 -14 74z" />
<glyph unicode="&#x150;" horiz-adv-x="1499" d="M82 713v55q0 145 46 270t132 216.5t210 142.5t280 51t279.5 -51t209.5 -142.5t132 -216.5t46 -270v-55q0 -154 -38 -289t-117.5 -234.5t-206.5 -157t-305 -57.5t-305.5 57.5t-207 157t-117.5 234.5t-38 289zM274 717q0 -117 28 -220.5t85 -182t146.5 -125t211.5 -46.5 q127 0 218.5 44t149.5 121t85 181.5t27 227.5v47q0 104 -32 198.5t-92.5 164t-149 110.5t-201.5 41q-115 0 -203 -41t-148.5 -110.5t-92.5 -164t-32 -198.5v-47zM601 1521l180 258h144v-53l-201 -205h-123zM838 1521l183 258h144v-53l-202 -205h-125z" />
<glyph unicode="&#x151;" horiz-adv-x="1130" d="M90 516v39q2 106 27 190t104 168q72 74 160 109t191 35q102 0 189 -34t159 -105q74 -76 106.5 -164t32.5 -195v-43q0 -111 -24.5 -209t-106.5 -184q-72 -76 -162 -112t-194 -36q-100 0 -192.5 37t-164.5 111q-78 78 -101.5 180.5t-23.5 212.5zM254 508q0 -86 18.5 -160 t63.5 -127q37 -45 95.5 -69.5t142.5 -24.5q78 0 133 22.5t94 63.5q53 53 73.5 133t20.5 170v41q0 150 -78 244q-41 49 -102 76.5t-141 27.5q-78 0 -137.5 -25.5t-100.5 -72.5q-82 -94 -82 -252v-47zM474 1178l138 221h145v-46l-177 -175h-106zM688 1178l138 221h145v-46 l-178 -175h-105z" />
<glyph unicode="&#x152;" horiz-adv-x="2299" d="M82 713v75q0 145 43 267.5t128 209.5t210 135t289 48q160 0 280.5 -45t206.5 -129v149h1016l-53 -168h-779v-415h697v-170h-697v-502h826v-168h-1010v152q-80 -84 -199.5 -130.5t-287.5 -46.5q-186 0 -314.5 57.5t-207 157t-113.5 234.5t-35 289zM274 717 q0 -117 25 -220.5t81 -182t146 -125t222 -46.5q135 0 227 44t148.5 121t81 181.5t24.5 227.5v67q0 104 -29 195.5t-88 157t-149 103.5t-211 38t-211 -38t-149.5 -103.5t-88.5 -156.5t-29 -196v-67z" />
<glyph unicode="&#x153;" horiz-adv-x="1908" d="M84 516v39q2 106 26.5 190t104.5 168q72 74 160 109t190 35t189.5 -34t158.5 -105q27 -31 50 -62q10 12 19 23.5t19 23.5q70 78 166.5 116t198.5 38q115 0 204 -37t149.5 -102.5t91 -155.5t30.5 -199v-92h-774q0 -180 83 -262t251 -82q82 0 139 34t102 93l156 -64 q-59 -100 -165.5 -157.5t-241.5 -57.5q-164 0 -267.5 52.5t-158.5 146.5q-10 -12 -20.5 -25.5t-22.5 -25.5q-72 -76 -162 -112t-195 -36q-100 0 -192 37t-164 111q-78 78 -101.5 180.5t-23.5 212.5zM248 508q0 -86 18.5 -160t63.5 -127q37 -45 95 -69.5t142 -24.5 q78 0 133.5 22.5t94.5 63.5q53 53 73.5 133t20.5 170v41q0 150 -78 244q-41 49 -102.5 76.5t-141.5 27.5q-78 0 -137 -25.5t-100 -72.5q-82 -94 -82 -252v-47zM1067 614h598v19q0 51 -20.5 100t-59.5 87t-94 61.5t-125 23.5q-66 0 -121 -22.5t-95 -60.5t-61.5 -87 t-21.5 -102v-19z" />
<glyph unicode="&#x154;" horiz-adv-x="1335" d="M123 0v1423h647q90 0 166 -27.5t130 -79.5t85 -126t31 -166q0 -182 -103.5 -294t-290.5 -122l330 -413q37 -47 65.5 -56.5t71.5 -9.5v-129q-23 -12 -52 -18.5t-50 -6.5q-59 0 -107.5 41t-87.5 88l-360 449q-23 29 -57.5 41t-69.5 12h-164v-606h-184zM307 772h430 q133 0 196.5 61.5t63.5 190.5q0 119 -60 175t-175 56h-455v-483zM494 1525l155 252h158l2 -22l-174 -230h-141z" />
<glyph unicode="&#x155;" horiz-adv-x="698" d="M86 981l162 76q16 -29 29.5 -60.5t19.5 -68.5h12q39 61 91.5 95t125.5 34q80 0 170 -45l-61 -164q-63 33 -117 33q-53 0 -93 -28t-65.5 -75t-38 -111.5t-12.5 -138.5v-528h-176v778q0 109 -47 203zM244 1198l106 250h148v-51l-137 -199h-117z" />
<glyph unicode="&#x156;" horiz-adv-x="1335" d="M123 0v1423h647q90 0 166 -27.5t130 -79.5t85 -126t31 -166q0 -182 -103.5 -294t-290.5 -122l330 -413q37 -47 65.5 -56.5t71.5 -9.5v-129q-23 -12 -52 -18.5t-50 -6.5q-59 0 -107.5 41t-87.5 88l-360 449q-23 29 -57.5 41t-69.5 12h-164v-606h-184zM307 772h430 q133 0 196.5 61.5t63.5 190.5q0 119 -60 175t-175 56h-455v-483zM537 -375q39 16 60.5 45t31.5 60q-35 2 -59.5 27.5t-24.5 60.5t25.5 60.5t62.5 25.5q35 0 59 -23q39 -35 39 -92q0 -74 -46 -129t-113 -82z" />
<glyph unicode="&#x157;" horiz-adv-x="698" d="M86 981l162 76q16 -29 29.5 -60.5t19.5 -68.5h12q39 61 91.5 95t125.5 34q80 0 170 -45l-61 -164q-63 33 -117 33q-53 0 -93 -28t-65.5 -75t-38 -111.5t-12.5 -138.5v-528h-176v778q0 109 -47 203zM183 -375q39 16 60.5 45t31.5 60q-35 2 -59.5 27.5t-24.5 60.5 t25.5 60.5t62.5 25.5q35 0 59 -23q39 -35 39 -92q0 -74 -46 -129t-113 -82z" />
<glyph unicode="&#x158;" horiz-adv-x="1335" d="M123 0v1423h647q90 0 166 -27.5t130 -79.5t85 -126t31 -166q0 -182 -103.5 -294t-290.5 -122l330 -413q37 -47 65.5 -56.5t71.5 -9.5v-129q-23 -12 -52 -18.5t-50 -6.5q-59 0 -107.5 41t-87.5 88l-360 449q-23 29 -57.5 41t-69.5 12h-164v-606h-184zM268 1735v22h156 l122 -123l123 123h156v-22l-238 -230h-81zM307 772h430q133 0 196.5 61.5t63.5 190.5q0 119 -60 175t-175 56h-455v-483z" />
<glyph unicode="&#x159;" horiz-adv-x="698" d="M76 1425v23h156l123 -123l123 123h155v-23l-237 -229h-82zM86 981l162 76q16 -29 29.5 -60.5t19.5 -68.5h12q39 61 91.5 95t125.5 34q80 0 170 -45l-61 -164q-63 33 -117 33q-53 0 -93 -28t-65.5 -75t-38 -111.5t-12.5 -138.5v-528h-176v778q0 109 -47 203z" />
<glyph unicode="&#x15a;" horiz-adv-x="1200" d="M61 285l160 84q63 -117 151.5 -171.5t211.5 -54.5q53 0 115.5 10.5t116.5 37t91 73.5t37 121q0 90 -61.5 138t-153.5 79t-198.5 56.5t-198.5 70.5t-153.5 123t-61.5 211q0 104 45 178t117.5 120t165 66.5t184.5 20.5q131 0 250.5 -52.5t205.5 -150.5l-133 -119 q-66 78 -153.5 115t-192.5 37q-51 0 -104 -12.5t-96.5 -39t-71 -65.5t-27.5 -90q0 -96 60.5 -146.5t152.5 -80t197.5 -54t198 -68.5t152.5 -122t60 -215q0 -111 -51 -188.5t-131 -127t-177 -72t-187 -22.5q-174 0 -307.5 79t-213.5 231zM469 1509l155 252h158l2 -22 l-174 -230h-141z" />
<glyph unicode="&#x15b;" horiz-adv-x="970" d="M66 193l127 79q27 -31 55.5 -57.5t63 -45.5t81 -30.5t109.5 -11.5q33 0 73 6t73.5 24.5t56 51.5t22.5 84q0 61 -46 92t-114.5 50.5t-148.5 35.5t-148.5 49t-114.5 91.5t-46 160.5q0 80 39 134.5t97 88t128 48t133 14.5q98 0 190.5 -39t157.5 -111l-106 -104 q-35 37 -92.5 69.5t-153.5 32.5q-33 0 -71 -5t-71.5 -20.5t-56 -44t-22.5 -73.5q0 -51 46 -79t115.5 -49.5t149.5 -41t149.5 -51t115.5 -83.5t46 -139q0 -160 -104 -252t-307 -92q-154 0 -258.5 52.5t-167.5 165.5zM373 1198l106 250h148v-51l-137 -199h-117z" />
<glyph unicode="&#x15c;" horiz-adv-x="1200" d="M61 285l160 84q63 -117 151.5 -171.5t211.5 -54.5q53 0 115.5 10.5t116.5 37t91 73.5t37 121q0 90 -61.5 138t-153.5 79t-198.5 56.5t-198.5 70.5t-153.5 123t-61.5 211q0 104 45 178t117.5 120t165 66.5t184.5 20.5q131 0 250.5 -52.5t205.5 -150.5l-133 -119 q-66 78 -153.5 115t-192.5 37q-51 0 -104 -12.5t-96.5 -39t-71 -65.5t-27.5 -90q0 -96 60.5 -146.5t152.5 -80t197.5 -54t198 -68.5t152.5 -122t60 -215q0 -111 -51 -188.5t-131 -127t-177 -72t-187 -22.5q-174 0 -307.5 79t-213.5 231zM299 1509v23l238 229h82l237 -229 v-23h-156l-122 123l-123 -123h-156z" />
<glyph unicode="&#x15d;" horiz-adv-x="970" d="M66 193l127 79q27 -31 55.5 -57.5t63 -45.5t81 -30.5t109.5 -11.5q33 0 73 6t73.5 24.5t56 51.5t22.5 84q0 61 -46 92t-114.5 50.5t-148.5 35.5t-148.5 49t-114.5 91.5t-46 160.5q0 80 39 134.5t97 88t128 48t133 14.5q98 0 190.5 -39t157.5 -111l-106 -104 q-35 37 -92.5 69.5t-153.5 32.5q-33 0 -71 -5t-71.5 -20.5t-56 -44t-22.5 -73.5q0 -51 46 -79t115.5 -49.5t149.5 -41t149.5 -51t115.5 -83.5t46 -139q0 -160 -104 -252t-307 -92q-154 0 -258.5 52.5t-167.5 165.5zM205 1196v23l237 229h82l238 -229v-23h-156l-123 123 l-122 -123h-156z" />
<glyph unicode="&#x15e;" horiz-adv-x="1200" d="M61 285l160 84q63 -117 151.5 -171.5t211.5 -54.5q53 0 115.5 10.5t116.5 37t91 73.5t37 121q0 90 -61.5 138t-153.5 79t-198.5 56.5t-198.5 70.5t-153.5 123t-61.5 211q0 104 45 178t117.5 120t165 66.5t184.5 20.5q131 0 250.5 -52.5t205.5 -150.5l-133 -119 q-66 78 -153.5 115t-192.5 37q-51 0 -104 -12.5t-96.5 -39t-71 -65.5t-27.5 -90q0 -96 60.5 -146.5t152.5 -80t197.5 -54t198 -68.5t152.5 -122t60 -215q0 -111 -51 -188.5t-131 -127t-177 -72t-187 -22.5q-174 0 -307.5 79t-213.5 231zM390 -395l16 86q29 -10 61.5 -14.5 t61.5 -4.5q37 0 68.5 18.5t31.5 53.5q0 29 -28.5 55.5t-75.5 30.5l53 188l96 -6l-43 -143q47 -10 82 -45t35 -86q0 -41 -17.5 -70.5t-46 -49t-63.5 -30t-68 -10.5q-39 0 -83 6t-80 21z" />
<glyph unicode="&#x15f;" horiz-adv-x="970" d="M66 193l127 79q27 -31 55.5 -57.5t63 -45.5t81 -30.5t109.5 -11.5q33 0 73 6t73.5 24.5t56 51.5t22.5 84q0 61 -46 92t-114.5 50.5t-148.5 35.5t-148.5 49t-114.5 91.5t-46 160.5q0 80 39 134.5t97 88t128 48t133 14.5q98 0 190.5 -39t157.5 -111l-106 -104 q-35 37 -92.5 69.5t-153.5 32.5q-33 0 -71 -5t-71.5 -20.5t-56 -44t-22.5 -73.5q0 -51 46 -79t115.5 -49.5t149.5 -41t149.5 -51t115.5 -83.5t46 -139q0 -160 -104 -252t-307 -92q-154 0 -258.5 52.5t-167.5 165.5zM277 -395l16 86q29 -10 61.5 -14.5t61.5 -4.5 q37 0 68.5 18.5t31.5 53.5q0 29 -28.5 55.5t-75.5 30.5l53 188l96 -6l-43 -143q47 -10 82 -45t35 -86q0 -41 -17.5 -70.5t-46 -49t-63.5 -30t-68 -10.5q-39 0 -83 6t-80 21z" />
<glyph unicode="&#x160;" horiz-adv-x="1200" d="M61 285l160 84q63 -117 151.5 -171.5t211.5 -54.5q53 0 115.5 10.5t116.5 37t91 73.5t37 121q0 90 -61.5 138t-153.5 79t-198.5 56.5t-198.5 70.5t-153.5 123t-61.5 211q0 104 45 178t117.5 120t165 66.5t184.5 20.5q131 0 250.5 -52.5t205.5 -150.5l-133 -119 q-66 78 -153.5 115t-192.5 37q-51 0 -104 -12.5t-96.5 -39t-71 -65.5t-27.5 -90q0 -96 60.5 -146.5t152.5 -80t197.5 -54t198 -68.5t152.5 -122t60 -215q0 -111 -51 -188.5t-131 -127t-177 -72t-187 -22.5q-174 0 -307.5 79t-213.5 231zM320 1735v22h156l122 -123l123 123 h156v-22l-238 -230h-81z" />
<glyph unicode="&#x161;" horiz-adv-x="970" d="M66 193l127 79q27 -31 55.5 -57.5t63 -45.5t81 -30.5t109.5 -11.5q33 0 73 6t73.5 24.5t56 51.5t22.5 84q0 61 -46 92t-114.5 50.5t-148.5 35.5t-148.5 49t-114.5 91.5t-46 160.5q0 80 39 134.5t97 88t128 48t133 14.5q98 0 190.5 -39t157.5 -111l-106 -104 q-35 37 -92.5 69.5t-153.5 32.5q-33 0 -71 -5t-71.5 -20.5t-56 -44t-22.5 -73.5q0 -51 46 -79t115.5 -49.5t149.5 -41t149.5 -51t115.5 -83.5t46 -139q0 -160 -104 -252t-307 -92q-154 0 -258.5 52.5t-167.5 165.5zM207 1425v23h156l123 -123l123 123h155v-23l-237 -229h-82 z" />
<glyph unicode="&#x162;" horiz-adv-x="1167" d="M18 1255v168h1133l-53 -168h-420v-1255h-184v1255h-476zM477 -375q39 16 60.5 45t31.5 60q-35 2 -59.5 27.5t-24.5 60.5t25.5 60.5t62.5 25.5q35 0 59 -23q39 -35 39 -92q0 -74 -46 -129t-113 -82z" />
<glyph unicode="&#x163;" horiz-adv-x="559" d="M28 895v137h117v221l176 50v-271h189l-43 -137h-146v-645q0 -123 127 -123h76v-129q-35 -12 -60.5 -17.5t-54.5 -5.5q-55 0 -105 17.5t-87 52.5t-54.5 87t-17.5 118v645h-117zM213 -375q39 16 60.5 45t31.5 60q-35 2 -59.5 27.5t-24.5 60.5t25.5 60.5t62.5 25.5 q35 0 59 -23q39 -35 39 -92q0 -74 -46 -129t-113 -82z" />
<glyph unicode="&#x164;" horiz-adv-x="1167" d="M18 1255v168h1133l-53 -168h-420v-1255h-184v1255h-476zM311 1735v22h156l122 -123l123 123h156v-22l-238 -230h-81z" />
<glyph unicode="&#x165;" horiz-adv-x="643" d="M28 895v137h117v221l176 50v-271h189l-43 -137h-146v-645q0 -123 127 -123h76v-129q-35 -12 -60.5 -17.5t-54.5 -5.5q-55 0 -105 17.5t-87 52.5t-54.5 87t-17.5 118v645h-117zM496 1169q39 16 60.5 45t31.5 60q-35 2 -59.5 27.5t-24.5 60.5t25.5 60.5t62.5 25.5 q35 0 59 -23q39 -35 39 -92q0 -74 -46 -129t-113 -82z" />
<glyph unicode="&#x16a;" horiz-adv-x="1333" d="M108 612v811h185v-819q0 -111 12 -195.5t52 -144t113.5 -90.5t196.5 -31q119 0 193 32t115 92.5t54 145.5t13 191v819h184v-811q0 -147 -26.5 -265t-91 -201t-172 -127t-269.5 -44q-164 0 -272.5 43t-172 124t-89 200t-25.5 270zM348 1618q0 41 14 70h606q14 -31 15 -72 q0 -18 -3 -36.5t-12 -35.5h-606q-14 31 -14 74z" />
<glyph unicode="&#x16b;" d="M115 352v672l176 33v-705q0 -121 47 -173t148 -52q59 0 136 38t156 126v733l177 33v-821q0 -76 14 -126.5t45 -109.5h-188q-14 20 -24.5 56t-12.5 65q-39 -41 -88 -74q-41 -29 -96.5 -50.5t-118.5 -21.5q-197 0 -284 94.5t-87 282.5zM230 1354q0 40 14 69h606 q14 -31 15 -71q0 -18 -3 -37t-12 -35h-606q-14 31 -14 74z" />
<glyph unicode="&#x16e;" horiz-adv-x="1333" d="M108 612v811h185v-819q0 -111 12 -195.5t52 -144t113.5 -90.5t196.5 -31q119 0 193 32t115 92.5t54 145.5t13 191v819h184v-811q0 -147 -26.5 -265t-91 -201t-172 -127t-269.5 -44q-164 0 -272.5 43t-172 124t-89 200t-25.5 270zM498 1552q0 37 13 69t37 55.5t55.5 38 t68.5 14.5t68.5 -14.5t55 -38t38 -55.5t14.5 -69t-14.5 -68.5t-38 -55t-55 -37t-68.5 -13.5q-72 0 -123 51.5t-51 122.5zM567 1552q0 -43 31 -73.5t74 -30.5q45 0 74.5 30.5t29.5 73.5q0 45 -29.5 75t-74.5 30q-43 0 -74 -30t-31 -75z" />
<glyph unicode="&#x16f;" d="M115 352v672l176 33v-705q0 -121 47 -173t148 -52q59 0 136 38t156 126v733l177 33v-821q0 -76 14 -126.5t45 -109.5h-188q-14 20 -24.5 56t-12.5 65q-39 -41 -88 -74q-41 -29 -96.5 -50.5t-118.5 -21.5q-197 0 -284 94.5t-87 282.5zM379 1272q0 37 13 68.5t37 55 t55.5 38t68.5 14.5t68.5 -14.5t55 -38t38 -55t14.5 -68.5t-14.5 -69t-38 -55.5t-55 -36.5t-68.5 -13q-72 0 -123 51t-51 123zM448 1272q0 -43 31 -74t74 -31q45 0 74.5 31t29.5 74q0 45 -29.5 74.5t-74.5 29.5q-43 0 -74 -29.5t-31 -74.5z" />
<glyph unicode="&#x170;" horiz-adv-x="1333" d="M108 612v811h185v-819q0 -111 12 -195.5t52 -144t113.5 -90.5t196.5 -31q119 0 193 32t115 92.5t54 145.5t13 191v819h184v-811q0 -147 -26.5 -265t-91 -201t-172 -127t-269.5 -44q-164 0 -272.5 43t-172 124t-89 200t-25.5 270zM491 1511l154 250h123v-51l-172 -199 h-105zM694 1511l156 250h123v-51l-172 -199h-107z" />
<glyph unicode="&#x171;" d="M115 352v672l176 33v-705q0 -121 47 -173t148 -52q59 0 136 38t156 126v733l177 33v-821q0 -76 14 -126.5t45 -109.5h-188q-14 20 -24.5 56t-12.5 65q-39 -41 -88 -74q-41 -29 -96.5 -50.5t-118.5 -21.5q-197 0 -284 94.5t-87 282.5zM409 1196l107 252h113v-53l-138 -199 h-82zM575 1196l107 252h113v-53l-138 -199h-82z" />
<glyph unicode="&#x172;" horiz-adv-x="1333" d="M108 612v811h185v-819q0 -111 12 -195.5t52 -144t113.5 -90.5t196.5 -31q119 0 193 32t115 92.5t54 145.5t13 191v819h184v-811q0 -147 -26.5 -265t-91 -201t-172 -127t-269.5 -44q-164 0 -272.5 43t-172 124t-89 200t-25.5 270zM512 -240q0 55 26.5 129t83.5 134h138 q-55 -41 -81 -100.5t-26 -100.5t25.5 -69.5t72.5 -28.5q37 0 91 18v-125q-84 -39 -152 -39q-84 0 -131 52.5t-47 129.5z" />
<glyph unicode="&#x173;" d="M115 352v672l176 33v-705q0 -121 47 -173t148 -52q59 0 136 38t156 126v733l177 33v-821q0 -76 14 -126.5t45 -109.5h-188q-14 20 -24.5 56t-12.5 65q-39 -41 -88 -74q-41 -29 -96.5 -50.5t-118.5 -21.5q-197 0 -284 94.5t-87 282.5zM717 -240q0 55 26.5 129t83.5 134 h138q-55 -41 -81 -100.5t-26 -100.5t25.5 -69.5t72.5 -28.5q37 0 91 18v-125q-84 -39 -152 -39q-84 0 -131 52.5t-47 129.5z" />
<glyph unicode="&#x178;" horiz-adv-x="1263" d="M25 1399l182 49l405 -641h41l404 641l182 -49l-471 -735q-14 -20 -41 -21v-643h-190v643q-25 0 -41 21zM352 1665q0 41 29 68.5t70 27.5t69.5 -27.5t28.5 -68.5t-28.5 -68.5t-69.5 -27.5t-70 27.5t-29 68.5zM717 1665q0 41 28.5 68.5t69.5 27.5t70 -27.5t29 -68.5 t-29 -68.5t-70 -27.5t-69.5 27.5t-28.5 68.5z" />
<glyph unicode="&#x179;" horiz-adv-x="1273" d="M70 0v94q0 86 57 150l674 843l149 168h-831l51 168h1006v-88q0 -43 -15.5 -79.5t-42.5 -69.5l-741 -916l-94 -102h915v-168h-1128zM508 1509l155 252h158l2 -22l-174 -230h-141z" />
<glyph unicode="&#x17a;" horiz-adv-x="1093" d="M93 0v59q0 45 17 84t46 74l596 707l-203 -13h-383v144h807v-33q0 -94 -65 -160l-602 -723l221 11h459l-35 -150h-858zM467 1198l106 250h148v-51l-137 -199h-117z" />
<glyph unicode="&#x17b;" horiz-adv-x="1273" d="M70 0v94q0 86 57 150l674 843l149 168h-831l51 168h1006v-88q0 -43 -15.5 -79.5t-42.5 -69.5l-741 -916l-94 -102h915v-168h-1128zM539 1665q0 41 28.5 68.5t69.5 27.5t69.5 -27.5t28.5 -68.5t-28.5 -68.5t-69.5 -27.5t-69.5 27.5t-28.5 68.5z" />
<glyph unicode="&#x17c;" horiz-adv-x="1093" d="M93 0v59q0 45 17 84t46 74l596 707l-203 -13h-383v144h807v-33q0 -94 -65 -160l-602 -723l221 11h459l-35 -150h-858zM438 1352q0 41 28.5 68.5t69.5 27.5t69.5 -27.5t28.5 -68.5t-28.5 -69t-69.5 -28t-69.5 28t-28.5 69z" />
<glyph unicode="&#x17d;" horiz-adv-x="1273" d="M70 0v94q0 86 57 150l674 843l149 168h-831l51 168h1006v-88q0 -43 -15.5 -79.5t-42.5 -69.5l-741 -916l-94 -102h915v-168h-1128zM373 1735v22h156l122 -123l123 123h156v-22l-238 -230h-81z" />
<glyph unicode="&#x17e;" horiz-adv-x="1093" d="M93 0v59q0 45 17 84t46 74l596 707l-203 -13h-383v144h807v-33q0 -94 -65 -160l-602 -723l221 11h459l-35 -150h-858zM293 1425v23h156l123 -123l123 123h155v-23l-237 -229h-82z" />
<glyph unicode="&#x18f;" horiz-adv-x="1394" d="M70 647v123h1060q0 45 -5 95t-16 97.5t-29.5 90.5t-45.5 75q-66 82 -164 120t-204 38q-59 0 -116.5 -9t-109 -31.5t-92.5 -58.5t-65 -91l-164 63q35 76 92 130t130 90t157 52.5t170 16.5q152 0 279.5 -45t217.5 -156q90 -113 118 -253t28 -287v-54q0 -156 -41 -280.5 t-121 -212.5t-197.5 -136.5t-271.5 -48.5h-14q-152 2 -264.5 54.5t-186.5 142.5t-109.5 212t-35.5 263zM254 602q0 -96 26.5 -180t79 -146.5t129 -100.5t177.5 -40h16q100 0 183 36t140.5 98.5t89 148.5t31.5 184h-872z" />
<glyph unicode="&#x192;" horiz-adv-x="737" d="M14 -229l21 127h84q31 0 60.5 8t53 24.5t38 44t14.5 68.5v809h-154v135h154v146q0 57 21.5 110t61.5 93t96 63.5t124 23.5q23 0 61.5 -5t75.5 -19l-20 -121h-107q-59 0 -100 -40t-41 -105v-146h198v-135h-198v-809q0 -74 -28 -129t-72 -92t-98 -56.5t-109 -19.5 q-14 0 -48 3t-88 22z" />
<glyph unicode="&#x1cf;" horiz-adv-x="444" d="M-35 1735v22h156l122 -123l123 123h156v-22l-238 -230h-81zM125 0v1423h185v-1423h-185z" />
<glyph unicode="&#x1d0;" horiz-adv-x="497" d="M25 1397v51h122l97 -156l96 156h123v-51l-172 -199h-94zM156 0v1032h176v-1032h-176z" />
<glyph unicode="&#x1e6;" horiz-adv-x="1325" d="M76 686v47q0 72 4 137.5t19.5 128t48 124t90.5 122.5q102 111 232 157t275 46q129 0 247 -44t210 -153l-127 -106q-25 35 -62.5 60.5t-81.5 42t-92 23.5t-94 7q-111 0 -202.5 -36t-165.5 -118q-80 -86 -98.5 -183t-18.5 -210v-51q0 -113 24.5 -206t102.5 -181 q37 -41 87 -69.5t105.5 -46t113 -26t112.5 -8.5t125.5 19.5t122.5 42.5v362h-308v172h484v-639q-98 -53 -210 -89t-226 -36q-74 0 -149 11.5t-146.5 37t-136 64.5t-113.5 94q-102 113 -137 235t-35 269zM459 1792v23h156l123 -123l123 123h155v-23l-237 -229h-82z" />
<glyph unicode="&#x1e7;" horiz-adv-x="1069" d="M86 446v107q0 260 125 382t377 122q102 0 197.5 -19.5t177.5 -54.5v-946q0 -98 -33 -182t-92.5 -145.5t-143.5 -96.5t-188 -35q-115 0 -203 26.5t-186 84.5l84 145q78 -47 147.5 -68.5t161.5 -21.5q133 0 205 81t72 208v102q-12 -12 -39 -34.5t-65 -45t-85 -39 t-102 -16.5q-88 0 -163 24.5t-130 78t-86 138.5t-31 205zM262 434q0 -154 61.5 -218t172.5 -64q59 0 135 37.5t156 125.5v559q-43 14 -93.5 22.5t-101.5 8.5q-178 0 -254 -84t-76 -250v-137zM303 1425v23h156l123 -123l123 123h155v-23l-237 -229h-82z" />
<glyph unicode="&#x218;" horiz-adv-x="1200" d="M61 285l160 84q63 -117 151.5 -171.5t211.5 -54.5q53 0 115.5 10.5t116.5 37t91 73.5t37 121q0 90 -61.5 138t-153.5 79t-198.5 56.5t-198.5 70.5t-153.5 123t-61.5 211q0 104 45 178t117.5 120t165 66.5t184.5 20.5q131 0 250.5 -52.5t205.5 -150.5l-133 -119 q-66 78 -153.5 115t-192.5 37q-51 0 -104 -12.5t-96.5 -39t-71 -65.5t-27.5 -90q0 -96 60.5 -146.5t152.5 -80t197.5 -54t198 -68.5t152.5 -122t60 -215q0 -111 -51 -188.5t-131 -127t-177 -72t-187 -22.5q-174 0 -307.5 79t-213.5 231zM486 -375q39 16 60.5 45t31.5 60 q-35 2 -59.5 27.5t-24.5 60.5t25.5 60.5t62.5 25.5q35 0 59 -23q39 -35 39 -92q0 -74 -46 -129t-113 -82z" />
<glyph unicode="&#x219;" horiz-adv-x="970" d="M66 193l127 79q27 -31 55.5 -57.5t63 -45.5t81 -30.5t109.5 -11.5q33 0 73 6t73.5 24.5t56 51.5t22.5 84q0 61 -46 92t-114.5 50.5t-148.5 35.5t-148.5 49t-114.5 91.5t-46 160.5q0 80 39 134.5t97 88t128 48t133 14.5q98 0 190.5 -39t157.5 -111l-106 -104 q-35 37 -92.5 69.5t-153.5 32.5q-33 0 -71 -5t-71.5 -20.5t-56 -44t-22.5 -73.5q0 -51 46 -79t115.5 -49.5t149.5 -41t149.5 -51t115.5 -83.5t46 -139q0 -160 -104 -252t-307 -92q-154 0 -258.5 52.5t-167.5 165.5zM371 -375q39 16 60.5 45t31.5 60q-35 2 -59.5 27.5 t-24.5 60.5t25.5 60.5t62.5 25.5q35 0 59 -23q39 -35 39 -92q0 -74 -46 -129t-113 -82z" />
<glyph unicode="&#x237;" horiz-adv-x="348" d="M-158 -268h113q127 0 127 123v1177h176v-1177q0 -59 -20.5 -109.5t-57.5 -87.5t-85 -58.5t-103 -21.5q-29 0 -72 6t-78 19v129z" />
<glyph unicode="&#x259;" horiz-adv-x="1095" d="M68 467v96h780q0 31 -4 67t-13.5 69.5t-23.5 64.5t-35 51q-90 98 -262 98q-82 0 -140.5 -35.5t-107.5 -91.5l-156 60q59 100 169 155.5t245 55.5q137 0 231.5 -42t153 -116t84 -174t25.5 -219v-27q0 -102 -31 -193t-90 -161t-147.5 -110t-202.5 -40q-115 0 -203 37 t-148.5 101.5t-92 154.5t-31.5 199zM242 389q0 -51 20.5 -99t59 -86t94 -61.5t125.5 -23.5q66 0 122 22.5t97 59.5t64.5 86t23.5 102v31h-606v-31z" />
<glyph unicode="&#x2c6;" horiz-adv-x="559" d="M2 1509v23l238 229h82l237 -229v-23h-156l-122 123l-123 -123h-156z" />
<glyph unicode="&#x2c7;" horiz-adv-x="546" d="M-2 1735v22h156l122 -123l123 123h156v-22l-238 -230h-81z" />
<glyph unicode="&#x2c9;" horiz-adv-x="876" d="M121 1618q0 41 14 70h606q14 -31 15 -72q0 -18 -3 -36.5t-12 -35.5h-606q-14 31 -14 74z" />
<glyph unicode="&#x2d8;" horiz-adv-x="710" d="M72 1761h104q0 -35 15.5 -59.5t41 -40.5t57.5 -24.5t64 -8.5q31 0 63 7t57.5 23.5t41.5 42t16 60.5h105q0 -61 -23.5 -107t-62.5 -78t-90.5 -48.5t-106.5 -16.5q-57 0 -108 16.5t-90 48.5t-61.5 79t-22.5 106z" />
<glyph unicode="&#x2d9;" horiz-adv-x="350" d="M76 1665q0 41 28.5 68.5t69.5 27.5t69.5 -27.5t28.5 -68.5t-28.5 -68.5t-69.5 -27.5t-69.5 27.5t-28.5 68.5z" />
<glyph unicode="&#x2da;" horiz-adv-x="499" d="M76 1552q0 37 13 69t37 55.5t55.5 38t68.5 14.5t68.5 -14.5t55 -38t38 -55.5t14.5 -69t-14.5 -68.5t-38 -55t-55 -37t-68.5 -13.5q-72 0 -123 51.5t-51 122.5zM145 1552q0 -43 31 -73.5t74 -30.5q45 0 74.5 30.5t29.5 73.5q0 45 -29.5 75t-74.5 30q-43 0 -74 -30t-31 -75 z" />
<glyph unicode="&#x2db;" horiz-adv-x="452" d="M76 -240q0 55 26.5 129t83.5 134h138q-55 -41 -81 -100.5t-26 -100.5t25.5 -69.5t72.5 -28.5q37 0 91 18v-125q-84 -39 -152 -39q-84 0 -131 52.5t-47 129.5z" />
<glyph unicode="&#x2dc;" horiz-adv-x="804" d="M98 1540q0 43 10.5 83t33 70.5t55 49t79.5 18.5q37 0 70 -13t62.5 -29.5t58.5 -30t57 -13.5q51 0 71.5 27t20.5 59h97q0 -98 -49.5 -159.5t-139.5 -61.5q-41 0 -71.5 14.5t-58 32t-56.5 31.5t-62 14q-35 0 -58 -28.5t-23 -63.5h-97z" />
<glyph unicode="&#x2dd;" horiz-adv-x="591" d="M57 1511l154 250h123v-51l-172 -199h-105zM260 1511l156 250h123v-51l-172 -199h-107z" />
<glyph unicode="&#x300;" horiz-adv-x="323" d="M29 1397v51h147l107 -250h-117z" />
<glyph unicode="&#x301;" horiz-adv-x="325" d="M41 1198l106 250h148v-51l-137 -199h-117z" />
<glyph unicode="&#x302;" horiz-adv-x="550" d="M-4 1196v23l237 229h82l238 -229v-23h-156l-123 123l-122 -123h-156z" />
<glyph unicode="&#x303;" horiz-adv-x="804" d="M98 1227q0 43 10.5 83t33 70.5t55 49t79.5 18.5q37 0 70 -13.5t62.5 -29.5t58.5 -29.5t57 -13.5q51 0 71.5 26.5t20.5 59.5h97q0 -98 -49.5 -159.5t-139.5 -61.5q-41 0 -71.5 14t-58 31.5t-56.5 32t-62 14.5q-35 0 -58 -28.5t-23 -63.5h-97z" />
<glyph unicode="&#x304;" horiz-adv-x="876" d="M121 1354q0 40 14 69h606q14 -31 15 -71q0 -18 -3 -37t-12 -35h-606q-14 31 -14 74z" />
<glyph unicode="&#x306;" horiz-adv-x="708" d="M72 1448h104q0 -35 15.5 -59.5t41 -41t57.5 -24.5t64 -8q31 0 63 7t57.5 23.5t41.5 42t16 60.5h105q0 -61 -23.5 -107.5t-62.5 -78t-90.5 -48t-106.5 -16.5q-57 0 -108 16.5t-90 48t-61.5 79t-22.5 106.5z" />
<glyph unicode="&#x307;" horiz-adv-x="350" d="M76 1352q0 41 28.5 68.5t69.5 27.5t69.5 -27.5t28.5 -68.5t-28.5 -69t-69.5 -28t-69.5 28t-28.5 69z" />
<glyph unicode="&#x308;" horiz-adv-x="772" d="M104 1352q0 41 29 68.5t70 27.5t69.5 -27.5t28.5 -68.5t-28.5 -69t-69.5 -28t-70 28t-29 69zM469 1352q0 41 28.5 68.5t69.5 27.5t70 -27.5t29 -68.5t-29 -69t-70 -28t-69.5 28t-28.5 69z" />
<glyph unicode="&#x30a;" horiz-adv-x="499" d="M76 1272q0 37 13 68.5t37 55t55.5 38t68.5 14.5t68.5 -14.5t55 -38t38 -55t14.5 -68.5t-14.5 -69t-38 -55.5t-55 -36.5t-68.5 -13q-72 0 -123 51t-51 123zM145 1272q0 -43 31 -74t74 -31q45 0 74.5 31t29.5 74q0 45 -29.5 74.5t-74.5 29.5q-43 0 -74 -29.5t-31 -74.5z " />
<glyph unicode="&#x30b;" horiz-adv-x="503" d="M63 1196l107 252h113v-53l-138 -199h-82zM229 1196l107 252h113v-53l-138 -199h-82z" />
<glyph unicode="&#x30c;" horiz-adv-x="567" d="M8 1425v23h156l123 -123l123 123h155v-23l-237 -229h-82z" />
<glyph unicode="&#x326;" horiz-adv-x="315" d="M74 -375q39 16 60.5 45t31.5 60q-35 2 -59.5 27.5t-24.5 60.5t25.5 60.5t62.5 25.5q35 0 59 -23q39 -35 39 -92q0 -74 -46 -129t-113 -82z" />
<glyph unicode="&#x327;" horiz-adv-x="440" d="M23 -395l16 86q29 -10 61.5 -14.5t61.5 -4.5q37 0 68.5 18.5t31.5 53.5q0 29 -28.5 55.5t-75.5 30.5l53 188l96 -6l-43 -143q47 -10 82 -45t35 -86q0 -41 -17.5 -70.5t-46 -49t-63.5 -30t-68 -10.5q-39 0 -83 6t-80 21z" />
<glyph unicode="&#x328;" horiz-adv-x="452" d="M76 -240q0 55 26.5 129t83.5 134h138q-55 -41 -81 -100.5t-26 -100.5t25.5 -69.5t72.5 -28.5q37 0 91 18v-125q-84 -39 -152 -39q-84 0 -131 52.5t-47 129.5z" />
<glyph unicode="&#x3a0;" horiz-adv-x="1363" d="M86 1255v168h1192v-168h-139v-1255h-185v1255h-544v-1255h-185v1255h-139z" />
<glyph unicode="&#x3a3;" horiz-adv-x="1294" d="M119 -102l563 731l-563 717v190h1165v-162h-993l522 -649q35 -45 35 -96q0 -49 -33 -94l-502 -664h971v-164h-1165v191z" />
<glyph unicode="&#x3c0;" horiz-adv-x="1343" d="M68 889v143h1130v-143h-182v-639q0 -59 41 -91t100 -32h82v-127q-39 -8 -63.5 -13t-40 -7.5t-23.5 -3.5t-16 -1q-53 0 -100.5 20.5t-82 57.5t-54 87t-19.5 110v639h-424v-889h-176v889h-172z" />
<glyph unicode="&#x401;" horiz-adv-x="1191" d="M123 0v1423h1024l-53 -168h-787v-415h705v-170h-705v-502h834v-168h-1018zM383 1665q0 41 29 68.5t70 27.5t69.5 -27.5t28.5 -68.5t-28.5 -68.5t-69.5 -27.5t-70 27.5t-29 68.5zM748 1665q0 41 28.5 68.5t69.5 27.5t70 -27.5t29 -68.5t-29 -68.5t-70 -27.5t-69.5 27.5 t-28.5 68.5z" />
<glyph unicode="&#x402;" horiz-adv-x="1634" d="M33 1255v168h1130l-53 -168h-420v-471q43 25 94.5 46.5t104.5 39t105.5 27.5t99.5 10q111 0 215 -38t178 -126q55 -66 73.5 -138.5t18.5 -151.5q0 -86 -12.5 -171t-69.5 -155q-72 -88 -156 -120t-196 -32q-49 0 -100.5 7.5t-98.5 23.5l33 168q37 -10 82 -16t84 -6 q72 0 121 14t96 72q14 18 23.5 44.5t12.5 56.5t4 58.5t1 53.5q0 45 -10.5 95t-38.5 85q-49 57 -119 78.5t-141 21.5q-49 0 -102.5 -10t-105.5 -27.5t-102.5 -39t-93.5 -46.5v-608h-184v1255h-473z" />
<glyph unicode="&#x403;" horiz-adv-x="1005" d="M123 0v1423h911l-53 -168h-674v-1255h-184zM465 1509l155 252h158l2 -22l-174 -230h-141z" />
<glyph unicode="&#x404;" horiz-adv-x="1259" d="M82 713v75q0 100 13.5 189.5t50 164.5t99 136t161.5 108q70 35 155.5 48.5t163.5 13.5q125 0 245 -42t208 -132l-125 -125q-63 66 -150.5 97.5t-177.5 31.5q-72 0 -130 -14.5t-106 -36.5q-59 -31 -97 -75t-61.5 -98.5t-34.5 -113.5t-13 -121h493v-168h-493q2 -68 10 -134 t28.5 -124.5t56.5 -109t95 -82.5q96 -57 252 -58q92 0 177 34t151 104l129 -121q-90 -96 -209 -140.5t-248 -44.5q-78 0 -165 13.5t-157 48.5q-111 57 -175 126.5t-96 154.5t-41 183.5t-9 211.5z" />
<glyph unicode="&#x405;" horiz-adv-x="1200" d="M61 285l160 84q63 -117 151.5 -171.5t211.5 -54.5q53 0 115.5 10.5t116.5 37t91 73.5t37 121q0 90 -61.5 138t-153.5 79t-198.5 56.5t-198.5 70.5t-153.5 123t-61.5 211q0 104 45 178t117.5 120t165 66.5t184.5 20.5q131 0 250.5 -52.5t205.5 -150.5l-133 -119 q-66 78 -153.5 115t-192.5 37q-51 0 -104 -12.5t-96.5 -39t-71 -65.5t-27.5 -90q0 -96 60.5 -146.5t152.5 -80t197.5 -54t198 -68.5t152.5 -122t60 -215q0 -111 -51 -188.5t-131 -127t-177 -72t-187 -22.5q-174 0 -307.5 79t-213.5 231z" />
<glyph unicode="&#x406;" horiz-adv-x="444" d="M123 0v1423h184v-1423h-184z" />
<glyph unicode="&#x407;" horiz-adv-x="444" d="M-66 1665q0 41 29 68.5t70 27.5t69.5 -27.5t28.5 -68.5t-28.5 -68.5t-69.5 -27.5t-70 27.5t-29 68.5zM125 0v1423h185v-1423h-185zM299 1665q0 41 28.5 68.5t69.5 27.5t70 -27.5t29 -68.5t-29 -68.5t-70 -27.5t-69.5 27.5t-28.5 68.5z" />
<glyph unicode="&#x408;" horiz-adv-x="894" d="M2 373h180q0 -49 8 -91t28.5 -73t57.5 -48.5t94 -17.5q127 0 176.5 65.5t49.5 182.5v1032h188v-1032q0 -201 -105.5 -308.5t-310.5 -107.5q-98 0 -167.5 32t-113.5 86t-64.5 126t-20.5 154z" />
<glyph unicode="&#x409;" horiz-adv-x="2031" d="M80 0v127q47 0 83 11.5t54 39.5q25 35 45.5 108.5t30.5 202.5l76 934h757v-583h426q215 0 328 -105.5t113 -310.5t-118 -314.5t-333 -109.5h-600v1255h-405l-68 -766q-12 -137 -39 -231t-61 -154q-33 -53 -86.5 -91t-108.5 -38q-45 0 -94 25zM1128 168h406q276 0 276 256 q0 129 -63.5 187.5t-202.5 58.5h-416v-502z" />
<glyph unicode="&#x40a;" horiz-adv-x="2082" d="M123 0v1423h184v-583h705v583h184v-583h403q215 0 328 -105.5t113 -310.5t-118 -314.5t-333 -109.5h-577v670h-705v-670h-184zM1194 168h387q276 0 277 256q0 129 -63.5 187.5t-203.5 58.5h-397v-502z" />
<glyph unicode="&#x40b;" horiz-adv-x="1652" d="M39 1255v168h1128l-53 -168h-418v-438l246 72q94 27 186 26q100 0 185.5 -32.5t147 -95t96 -152.5t34.5 -207v-428h-188v428q0 166 -84 247t-219 81q-66 0 -150 -23l-254 -71v-662h-188v1255h-469z" />
<glyph unicode="&#x40c;" horiz-adv-x="1220" d="M123 0v1423h184v-622h144l407 622h211l-442 -690l528 -733h-221l-479 666h-148v-666h-184zM463 1509l155 252h158v-51l-172 -201h-141z" />
<glyph unicode="&#x40e;" horiz-adv-x="1236" d="M49 1401l182 49l390 -801q8 -16 23 -34.5t40 -18.5l377 854l172 -49l-549 -1223q-39 -86 -97.5 -144.5t-144.5 -58.5q-25 0 -55 7l-84 18v129h70q47 0 78.5 13.5t52.5 60.5l94 213q-49 18 -85 55t-58 84zM363 1761h104q0 -35 15.5 -59.5t41 -40.5t57.5 -24.5t64 -8.5 q31 0 63 7t57.5 23.5t41.5 42t16 60.5h105q0 -61 -23.5 -107t-62.5 -78t-90.5 -48.5t-106.5 -16.5q-57 0 -108 16.5t-90 48.5t-61.5 79t-22.5 106z" />
<glyph unicode="&#x40f;" horiz-adv-x="1294" d="M86 0v1423h188v-1255h742v1255h190v-1423h-477v-291h-168v291h-475z" />
<glyph unicode="&#x410;" horiz-adv-x="1386" d="M37 0l530 1423h230l557 -1423h-193l-166 430h-604l-158 -430h-196zM444 584h492l-195 499l-57 207l-55 -207z" />
<glyph unicode="&#x411;" horiz-adv-x="1243" d="M123 0v1423h924l-54 -168h-686v-415h432q213 0 331 -97.5t118 -320.5q0 -113 -32 -192.5t-92 -131t-145 -75t-190 -23.5h-606zM307 168h428q59 0 110.5 13.5t88.5 44t57.5 78.5t20.5 118q0 141 -69 195.5t-198 54.5h-438v-504z" />
<glyph unicode="&#x412;" horiz-adv-x="1271" d="M123 0v1423h571q88 0 164 -20.5t131 -65.5t87 -114.5t32 -167.5q0 -178 -139 -287v-12q102 -51 164.5 -134t62.5 -216q0 -109 -38 -186t-102.5 -126t-149.5 -71.5t-181 -22.5h-602zM307 168h438q59 0 105.5 10t79.5 37t49 74t16 119q0 123 -69.5 186t-192.5 63h-426v-489 zM307 825h342q49 0 97.5 14.5t86 42t60 70.5t22.5 103q0 117 -58 158.5t-157 41.5h-393v-430z" />
<glyph unicode="&#x413;" horiz-adv-x="1034" d="M123 0v1423h911l-53 -168h-674v-1255h-184z" />
<glyph unicode="&#x414;" horiz-adv-x="1443" d="M68 168q43 0 74.5 8t56 31.5t45 63.5t43.5 104q57 156 68.5 317.5t11.5 339.5v391h847v-1255h134v-461h-170v293h-940v-293h-170v461zM389 168h643v1087h-489v-223q0 -111 -4 -222.5t-19.5 -221t-46.5 -216t-84 -204.5z" />
<glyph unicode="&#x415;" horiz-adv-x="1191" d="M123 0v1423h1024l-53 -168h-787v-415h705v-170h-705v-502h834v-168h-1018z" />
<glyph unicode="&#x416;" horiz-adv-x="1886" d="M96 0v143q47 0 78 10.5t45 36.5l252 476q18 35 46 57t58 39l-466 661h233l436 -616h68v643h194v-643h68l436 616h234l-467 -661q31 -16 58.5 -39t45.5 -57l252 -476q14 -27 47 -37t76 -10v-143q-49 -25 -94 -25q-61 0 -108.5 36t-76.5 89l-274 506q-18 33 -51 42t-66 9 h-80v-657h-194v657h-80q-33 0 -65.5 -9t-51.5 -42l-274 -506q-29 -53 -76 -89t-109 -36q-45 0 -94 25z" />
<glyph unicode="&#x417;" horiz-adv-x="1054" d="M68 188l145 97q53 -78 120.5 -110t164.5 -32q131 0 215 57.5t84 196.5q0 70 -24.5 118t-67.5 79t-102.5 45t-129.5 14h-106v164h112q68 0 117 22.5t83 57.5t50 78t16 84q0 111 -66.5 165t-168.5 54q-92 0 -159.5 -34t-117.5 -105l-145 96q78 119 183.5 166t246.5 47 q88 0 163 -26.5t130 -76t86 -121t31 -161.5q0 -41 -11.5 -89t-32 -93t-48 -83t-60.5 -59q43 -16 80 -50t63.5 -81t42 -102.5t15.5 -110.5q0 -115 -38 -193.5t-104.5 -130t-155.5 -74t-194 -22.5q-139 0 -239.5 47.5t-177.5 165.5z" />
<glyph unicode="&#x418;" horiz-adv-x="1366" d="M123 0v1423h184v-1126l750 1126h184v-1423h-184v1124l-748 -1124h-186z" />
<glyph unicode="&#x419;" horiz-adv-x="1304" d="M123 0v1423h184v-1126l750 1126h184v-1423h-184v1124l-748 -1124h-186zM396 1761h104q0 -35 15.5 -59.5t41 -40.5t57.5 -24.5t64 -8.5q31 0 63 7t57.5 23.5t41.5 42t16 60.5h105q0 -61 -23.5 -107t-62.5 -78t-90.5 -48.5t-106.5 -16.5q-57 0 -108 16.5t-90 48.5t-61.5 79 t-22.5 106z" />
<glyph unicode="&#x41a;" horiz-adv-x="1220" d="M123 0v1423h184v-622h144l407 622h211l-442 -690l528 -733h-221l-479 666h-148v-666h-184z" />
<glyph unicode="&#x41b;" horiz-adv-x="1253" d="M53 0v143q59 0 97 14.5t60.5 53.5t35 106.5t20.5 171.5l76 934h786v-1423h-184v1255h-434l-68 -766q-6 -66 -21 -154.5t-48 -168.5t-87.5 -135.5t-138.5 -55.5q-45 0 -94 25z" />
<glyph unicode="&#x41c;" horiz-adv-x="1615" d="M125 0v1423h289l403 -1007l418 1007h258v-1423h-184v1190l-410 -1022h-176l-414 1046v-1214h-184z" />
<glyph unicode="&#x41d;" horiz-adv-x="1366" d="M123 0v1423h184v-583h750v583h184v-1423h-184v670h-750v-670h-184z" />
<glyph unicode="&#x41e;" horiz-adv-x="1499" d="M82 713v55q0 145 46 270t132 216.5t210 142.5t280 51t279.5 -51t209.5 -142.5t132 -216.5t46 -270v-55q0 -154 -38 -289t-117.5 -234.5t-206.5 -157t-305 -57.5t-305.5 57.5t-207 157t-117.5 234.5t-38 289zM274 717q0 -117 28 -220.5t85 -182t146.5 -125t211.5 -46.5 q127 0 218.5 44t149.5 121t85 181.5t27 227.5v47q0 104 -32 198.5t-92.5 164t-149 110.5t-201.5 41q-115 0 -203 -41t-148.5 -110.5t-92.5 -164t-32 -198.5v-47z" />
<glyph unicode="&#x41f;" horiz-adv-x="1320" d="M123 0v1423h1073v-1423h-184v1255h-705v-1255h-184z" />
<glyph unicode="&#x420;" horiz-adv-x="1200" d="M123 0v1423h657q102 0 180 -33.5t129.5 -92t77 -140.5t25.5 -176q0 -96 -23.5 -177t-74 -140.5t-128 -93t-186.5 -33.5h-473v-537h-184zM307 707h441q139 0 199.5 76.5t60.5 197.5q0 119 -67 196.5t-193 77.5h-441v-548z" />
<glyph unicode="&#x421;" horiz-adv-x="1257" d="M82 713v75q0 156 40 278t120 207t201 130t282 45q125 0 245 -42t208 -132l-125 -125q-63 66 -150.5 97.5t-177.5 31.5q-135 0 -222 -44t-138 -114.5t-70.5 -159t-19.5 -176.5v-67q0 -102 13 -203.5t59.5 -184.5t135.5 -134.5t242 -51.5q92 0 177 34t151 104l129 -121 q-90 -96 -209 -140.5t-248 -44.5q-182 0 -305 56.5t-197.5 155t-107.5 233.5t-33 293z" />
<glyph unicode="&#x422;" horiz-adv-x="1167" d="M18 1255v168h1133l-53 -168h-420v-1255h-184v1255h-476z" />
<glyph unicode="&#x423;" horiz-adv-x="1249" d="M49 1401l182 49l390 -801q8 -16 23 -34.5t40 -18.5l377 854l172 -49l-549 -1223q-39 -86 -97.5 -144.5t-144.5 -58.5q-25 0 -55 7l-84 18v129h70q47 0 78.5 13.5t52.5 60.5l94 213q-49 18 -85 55t-58 84z" />
<glyph unicode="&#x424;" horiz-adv-x="1544" d="M55 715v41q0 129 35 227t99.5 163.5t152.5 98.5t197 33q35 0 70.5 -8t70.5 -21v199h184v-199q35 12 72 20.5t72 8.5q106 0 195 -33t152.5 -98.5t98.5 -163.5t35 -227v-41q0 -129 -35 -227.5t-98.5 -165t-152.5 -99.5t-195 -33q-35 0 -72 8.5t-72 20.5v-219h-184v219 q-35 -12 -71 -20.5t-70 -8.5q-109 0 -197 33t-152.5 99.5t-99.5 165t-35 227.5zM225 709q2 -74 22.5 -137.5t59.5 -111.5t95.5 -76t132.5 -28q39 0 76.5 7.5t68.5 23.5v692q-66 31 -150 31q-74 0 -130 -27.5t-95 -74.5t-59.5 -110.5t-20.5 -135.5v-53zM864 387 q33 -16 71 -23.5t77 -7.5q78 0 136 30t96 79t56.5 112.5t18.5 131.5v53q0 72 -19.5 135.5t-58.5 110.5t-95 74.5t-130 27.5q-84 0 -152 -31v-692z" />
<glyph unicode="&#x425;" horiz-adv-x="1480" d="M78 0l551 739l-463 660l182 49l281 -391l113 -183l114 183l279 391l182 -49l-463 -660l551 -739h-225l-369 504l-69 110l-70 -110l-369 -504h-225z" />
<glyph unicode="&#x426;" horiz-adv-x="1398" d="M55 0v1423h185v-1255h743v1255h184v-1255h136v-461h-168v293h-1080z" />
<glyph unicode="&#x427;" horiz-adv-x="1218" d="M16 936v487h187v-485q0 -63 21.5 -119.5t59.5 -98.5t93 -66.5t123 -24.5q106 0 207.5 40t201.5 128v626h185v-1423h-185v618q-41 -27 -81 -52t-86 -44.5t-103 -32t-135 -12.5q-115 0 -205 34t-153.5 95.5t-96.5 145.5t-33 184z" />
<glyph unicode="&#x428;" horiz-adv-x="1744" d="M123 0v1423h184v-1255h473v1206h185v-1206h471v1255h184v-1423h-1497z" />
<glyph unicode="&#x429;" horiz-adv-x="1781" d="M53 0v1423h185v-1255h473v1206h184v-1206h471v1255h184v-1255h129v-461h-163v293h-1463z" />
<glyph unicode="&#x42a;" horiz-adv-x="1466" d="M47 1423h531v-583h436q217 0 323.5 -103.5t106.5 -308.5t-112.5 -316.5t-325.5 -111.5h-613v1255h-293zM578 168h417q139 0 202 65.5t63 194.5t-57.5 185.5t-198.5 56.5h-426v-502z" />
<glyph unicode="&#x42b;" horiz-adv-x="1673" d="M123 0v1423h184v-602h445q430 1 430 -407q0 -205 -113 -309.5t-328 -104.5h-618zM307 168h426q139 0 201.5 59.5t62.5 188.5t-57 183t-197 54h-436v-485zM1364 0v1423h184v-1423h-184z" />
<glyph unicode="&#x42c;" horiz-adv-x="1181" d="M123 0v1423h184v-583h426q215 0 328 -105.5t113 -310.5t-118 -314.5t-333 -109.5h-600zM307 168h408q276 0 276 256q0 129 -63.5 187.5t-202.5 58.5h-418v-502z" />
<glyph unicode="&#x42d;" horiz-adv-x="1245" d="M78 129q16 18 39 41l40.5 40.5t47.5 49.5q70 -66 148.5 -91.5t170.5 -25.5q121 0 203 36t133 101.5t74.5 160t30.5 210.5h-494v168h494q-6 102 -31 187.5t-74 145.5t-127 93t-188 33q-82 0 -169 -19.5t-157 -70.5l-106 141q86 68 203.5 93.5t228.5 25.5q307 0 463.5 -168 t156.5 -492v-75q0 -158 -31.5 -293t-107.5 -233.5t-198.5 -155t-303.5 -56.5q-125 0 -241.5 32t-204.5 122z" />
<glyph unicode="&#x42e;" horiz-adv-x="1853" d="M123 0v1423h190v-639h232q8 152 47 275t110.5 209t180 133t260.5 47q162 0 278.5 -54.5t192.5 -147.5t111.5 -220t35.5 -272v-39q0 -164 -32.5 -299t-106.5 -233.5t-191.5 -153t-285.5 -54.5q-160 0 -268.5 48.5t-178 134.5t-104.5 203.5t-45 256.5h-236v-618h-190z M729 715q0 -115 17.5 -219.5t64.5 -182t128 -124t208 -46.5q133 0 216 48.5t130 128t64.5 183t17.5 212.5v39q0 111 -23.5 206t-76 165.5t-134 111.5t-196.5 41q-119 0 -199 -44t-128 -118t-68.5 -169t-20.5 -195v-37z" />
<glyph unicode="&#x42f;" horiz-adv-x="1380" d="M82 0v127q41 0 74.5 9t68.5 57l316 436q-186 10 -288.5 108.5t-102.5 288.5q0 102 32.5 177t91 124t139.5 72.5t177 23.5h665v-1423h-188v627h-223q-35 0 -71 -13.5t-58 -42.5l-344 -467q-39 -53 -86 -91t-107 -38q-20 0 -47 6.5t-49 18.5zM334 1026q0 -66 17.5 -111 t51 -71.5t83 -37.5t110.5 -11h471v460h-471q-117 0 -189.5 -53t-72.5 -176z" />
<glyph unicode="&#x430;" horiz-adv-x="1097" d="M74 293q0 68 26.5 124t71.5 97t104.5 63.5t125.5 22.5h385v94q0 111 -66.5 161t-171.5 52q-94 0 -161.5 -22.5t-147.5 -69.5l-76 131q49 29 93 49.5t90 34.5t95.5 20.5t106.5 6.5q86 0 161 -24.5t131 -72t89 -117t33 -161.5v-446q0 -72 13 -123.5t46 -112.5h-188 q-16 23 -25.5 57.5t-11.5 63.5q-84 -61 -185.5 -103.5t-205.5 -42.5q-70 0 -130.5 22.5t-105.5 64.5t-70.5 100.5t-25.5 130.5zM248 291q0 -37 15.5 -66.5t41 -51t57 -34t66.5 -12.5q37 0 85 15.5t98.5 39t96.5 48t79 42.5v179h-383q-33 0 -61.5 -13.5t-49 -35t-33 -51 t-12.5 -60.5z" />
<glyph unicode="&#x431;" horiz-adv-x="1134" d="M98 567v15q0 59 2 124.5t6.5 129t12.5 121t22 102.5q59 180 175 263t290 91q74 4 130.5 13.5t94.5 58.5l130 -103q-31 -49 -70 -74.5t-83 -36.5t-92 -14.5t-98 -7.5q-162 -14 -254 -102t-94 -279q18 33 51 64t74 52.5t88 34.5t92 13q113 0 198 -39t143.5 -107.5 t88 -161.5t29.5 -202q0 -111 -29.5 -210t-88 -174t-145.5 -119t-204 -44q-125 0 -214 48.5t-145 129t-83 188.5t-27 226zM268 530q0 -80 15.5 -152.5t50.5 -128.5t93 -89t142 -33q76 0 132.5 33t93 87t55 123.5t18.5 145.5v8q0 76 -15 143.5t-49 117t-91.5 78t-139.5 28.5 q-74 0 -130 -28.5t-95 -78t-59.5 -113t-20.5 -132.5v-9z" />
<glyph unicode="&#x432;" horiz-adv-x="1044" d="M123 0v1032h461q63 0 123.5 -16.5t107.5 -50t75 -85t28 -122.5q0 -59 -30 -106.5t-71 -86.5q80 -47 113 -110.5t33 -132.5v-9q0 -78 -32 -136t-84 -97t-118.5 -59.5t-136.5 -20.5h-469zM299 152h297q33 0 67.5 10t61.5 29.5t44 50t17 71.5v9q0 35 -16 64.5t-43 51 t-59.5 33.5t-65.5 12h-303v-331zM299 629h276q29 0 59 7t53.5 22.5t38.5 40t15 59.5t-14 60.5t-36.5 40.5t-51.5 22.5t-57 7.5h-283v-260z" />
<glyph unicode="&#x433;" horiz-adv-x="749" d="M123 0v1032h627l-45 -143h-406v-889h-176z" />
<glyph unicode="&#x434;" horiz-adv-x="1243" d="M70 152q90 0 141 58t75.5 148.5t31 201t6.5 214.5v258h706v-880h115v-381h-146v229h-782v-229h-147v381zM377 152h489v737h-379v-115q0 -131 -5 -227t-18 -168t-34.5 -126t-52.5 -101z" />
<glyph unicode="&#x435;" horiz-adv-x="1142" d="M86 502v22q0 51 2 99.5t12.5 95.5t33 93t63.5 91q70 78 166 116t198 38q115 0 204 -37t149.5 -102.5t91.5 -155.5t31 -199v-92h-775q0 -180 83 -262t251 -82q82 0 139.5 34t102.5 93l156 -64q-59 -100 -166 -157.5t-242 -57.5q-137 0 -232.5 38t-154.5 106.5t-86 166 t-27 216.5zM262 614h598v19q0 51 -20.5 100t-59 87t-94 61.5t-125.5 23.5q-66 0 -121 -22.5t-95 -60.5t-61.5 -87t-21.5 -102v-19z" />
<glyph unicode="&#x436;" horiz-adv-x="1515" d="M106 0v127q37 0 73 13.5t54 41.5l228 346l-344 504h200l301 -440h52v440h176v-440h49l303 440h199l-344 -504l227 -346q18 -29 54 -42t75 -13v-127q-49 -25 -92 -25q-59 0 -106.5 38t-82.5 91l-235 369h-47v-473h-176v473h-47l-236 -369q-35 -53 -83 -91t-107 -38 q-41 0 -91 25z" />
<glyph unicode="&#x437;" horiz-adv-x="884" d="M72 909q57 78 150 113t192 35q68 0 131 -17.5t112.5 -52.5t80 -91t30.5 -132q0 -45 -12.5 -81t-29.5 -62.5t-37.5 -44t-39.5 -27.5q68 -31 113 -92.5t45 -153.5q0 -90 -31 -152.5t-84 -101.5t-122.5 -56.5t-149.5 -17.5q-98 0 -192.5 37t-153.5 113l116 96 q18 -18 45 -35.5t58 -31t63.5 -20.5t63.5 -7q43 0 83 5t70.5 23.5t50 54.5t19.5 97q0 51 -20.5 82t-52 48.5t-71.5 22.5t-79 5h-92v137h102q96 0 139 46t43 116q0 39 -17 65.5t-45 43t-63.5 24.5t-74.5 8q-51 0 -106.5 -15.5t-90.5 -66.5z" />
<glyph unicode="&#x438;" horiz-adv-x="1097" d="M123 0v1006l176 51v-813l483 788h191v-1032h-176v774l-482 -774h-192z" />
<glyph unicode="&#x439;" horiz-adv-x="1085" d="M113 0v1006l176 51v-813l483 788h191v-1032h-176v774l-482 -774h-192zM277 1448h104q0 -35 15.5 -59.5t41 -41t57.5 -24.5t64 -8q31 0 63 7t57.5 23.5t41.5 42t16 60.5h105q0 -61 -23.5 -107.5t-62.5 -78t-90.5 -48t-106.5 -16.5q-57 0 -108 16.5t-90 48t-61.5 79 t-22.5 106.5z" />
<glyph unicode="&#x43a;" horiz-adv-x="966" d="M121 0v1008l176 49v-467h86l291 442h180l-324 -502l230 -350q18 -29 54 -41t75 -12v-127q-49 -25 -86 -25q-55 0 -97 38t-77 91l-248 369h-84v-473h-176z" />
<glyph unicode="&#x43b;" horiz-adv-x="1105" d="M57 0v127q39 0 73 8t54 37q27 37 50.5 109.5t33.5 197.5l43 553h670v-1032h-176v889h-344l-31 -391q-10 -139 -36.5 -235.5t-65.5 -158.5q-35 -53 -82 -91t-103 -38q-37 0 -86 25z" />
<glyph unicode="&#x43c;" horiz-adv-x="1343" d="M123 0v1032h276l275 -641l299 641h246v-1032h-177v817l-294 -665h-148l-301 665v-817h-176z" />
<glyph unicode="&#x43d;" horiz-adv-x="1083" d="M123 0v1008l176 49v-428h483v379l176 49v-1057h-176v483h-483v-483h-176z" />
<glyph unicode="&#x43e;" horiz-adv-x="1130" d="M90 516v39q2 106 27 190t104 168q72 74 160 109t191 35q102 0 189 -34t159 -105q74 -76 106.5 -164t32.5 -195v-43q0 -111 -24.5 -209t-106.5 -184q-72 -76 -162 -112t-194 -36q-100 0 -192.5 37t-164.5 111q-78 78 -101.5 180.5t-23.5 212.5zM254 508q0 -86 18.5 -160 t63.5 -127q37 -45 95.5 -69.5t142.5 -24.5q78 0 133 22.5t94 63.5q53 53 73.5 133t20.5 170v41q0 150 -78 244q-41 49 -102 76.5t-141 27.5q-78 0 -137.5 -25.5t-100.5 -72.5q-82 -94 -82 -252v-47z" />
<glyph unicode="&#x43f;" horiz-adv-x="1062" d="M123 0v1032h815v-1032h-176v889h-463v-889h-176z" />
<glyph unicode="&#x440;" horiz-adv-x="1114" d="M98 981l162 76q16 -29 28.5 -57.5t20.5 -63.5h13q47 51 120.5 86t159.5 35q129 0 222.5 -53.5t150.5 -151.5q37 -63 48 -137t11 -158v-131q0 -96 -26.5 -179t-78.5 -143.5t-129 -94.5t-177 -34q-55 0 -104.5 17.5t-89.5 40t-67.5 45t-39.5 35.5v-510h-177v1175 q0 109 -47 203zM322 289q80 -88 160.5 -125t140.5 -37q68 0 112.5 23.5t72.5 64.5t39 95.5t11 117.5v129q0 61 -9 117.5t-26 89.5q-29 63 -94 102t-131 39q-98 0 -167 -38t-109 -85v-493z" />
<glyph unicode="&#x441;" horiz-adv-x="991" d="M100 514v39q0 49 3 94t14.5 87t33 84t60.5 87q33 39 78 67.5t96 47t105.5 28t103.5 9.5q92 0 182 -33t156 -98l-109 -107q-45 39 -99 62.5t-138 23.5q-70 0 -129.5 -23.5t-102.5 -70.5q-45 -49 -67.5 -118.5t-22.5 -141.5v-33q0 -90 24.5 -173t82.5 -138q39 -37 91 -58.5 t124 -21.5q61 0 129.5 20.5t109.5 69.5l109 -104q-68 -72 -159 -105t-189 -33q-82 0 -171 25t-155 78q-55 45 -91 103.5t-52 135.5q-10 49 -13.5 98.5t-3.5 98.5z" />
<glyph unicode="&#x442;" horiz-adv-x="894" d="M29 889v143h841l-45 -143h-286v-889h-177v889h-333z" />
<glyph unicode="&#x443;" horiz-adv-x="1110" d="M51 1008l170 49l320 -836q8 -20 19 -32.5t34 -12.5h8l317 881l170 -49l-456 -1227q-35 -90 -93.5 -146.5t-144.5 -56.5q-29 0 -60.5 5t-78.5 20v129h86q47 0 80 13t49 60l70 201q-59 14 -101.5 55t-64.5 99z" />
<glyph unicode="&#x444;" horiz-adv-x="1615" d="M100 492q0 102 15.5 203.5t58.5 181t120 130t198 50.5q61 0 128.5 -22.5t104.5 -63.5v428l174 49v-477q35 41 102.5 63.5t128.5 22.5q121 0 198 -50.5t120 -130t58.5 -181t15.5 -203.5q0 -90 -16.5 -181.5t-58.5 -166t-111.5 -122t-174.5 -47.5q-98 0 -153.5 19.5 t-108.5 54.5v-446h-176v446q-53 -35 -108.5 -54.5t-153.5 -19.5q-104 0 -174 47.5t-112 122t-58.5 165.5t-16.5 182zM276 492q0 -53 5.5 -117t24 -119t55 -92t102.5 -37q20 0 53 4t70 13.5t72.5 22.5t64.5 34v606q-39 47 -100.5 72.5t-124.5 25.5q-82 0 -127 -40 t-65.5 -101.5t-25 -134t-4.5 -137.5zM899 201q29 -20 64.5 -33.5t72.5 -23t70 -13.5t53 -4q63 0 101 37t56.5 92t24 118.5t5.5 117.5q0 66 -4.5 138t-25 133.5t-65.5 101.5t-127 40q-63 0 -124.5 -25.5t-100.5 -72.5v-606z" />
<glyph unicode="&#x445;" horiz-adv-x="983" d="M30 0l373 545l-317 463l166 49l245 -379l246 379l166 -49l-318 -463l373 -545h-200l-267 399l-266 -399h-201z" />
<glyph unicode="&#x446;" horiz-adv-x="1118" d="M141 0v1006l176 51v-914h484v863l176 51v-914h110v-370h-143v227h-803z" />
<glyph unicode="&#x447;" horiz-adv-x="1024" d="M78 729v277l176 51v-320q0 -45 9 -85t31.5 -70.5t58.5 -48t91 -17.5q59 0 135 38t144 118v334l176 51v-1057h-176v492q-43 -43 -111.5 -85t-167.5 -42q-176 0 -271 91t-95 273z" />
<glyph unicode="&#x448;" horiz-adv-x="1570" d="M123 0v1006l176 51v-905h397v825l176 51v-876h398v854l176 51v-1057h-1323z" />
<glyph unicode="&#x449;" horiz-adv-x="1615" d="M125 0v1006l176 51v-905h397v825l176 51v-876h398v854l176 51v-905h115v-381h-146v229h-1292z" />
<glyph unicode="&#x44a;" horiz-adv-x="1128" d="M25 1032h407v-403h309q80 0 145.5 -16.5t114 -54.5t75 -98.5t26.5 -146.5t-29 -145t-79 -96t-117.5 -54.5t-143.5 -17.5h-477v889h-184zM432 152h301q43 0 78 7t60.5 25.5t40 49t14.5 77.5q0 94 -50.5 132t-134.5 38h-309v-329z" />
<glyph unicode="&#x44b;" horiz-adv-x="1400" d="M123 0v1006l176 51v-422h303q80 0 146.5 -18.5t114.5 -57.5t76 -100.5t28 -147.5t-30 -145.5t-81 -96t-118.5 -53t-143.5 -16.5h-471zM299 152h295q43 0 79 7t61.5 25.5t41 49t15.5 77.5q0 88 -53.5 130t-135.5 42h-303v-331zM1100 0v1006l176 51v-1057h-176z" />
<glyph unicode="&#x44c;" horiz-adv-x="1019" d="M123 0v1006l176 51v-428h295q80 0 147.5 -16.5t115.5 -54.5t76 -98.5t28 -146.5t-30 -145t-81 -96t-118.5 -54.5t-143.5 -17.5h-465zM299 152h289q41 0 77.5 7t63.5 25.5t42 50t15 80.5q0 94 -53 131t-139 37h-295v-331z" />
<glyph unicode="&#x44d;" horiz-adv-x="944" d="M63 915q35 35 70 62t76 44t89 26.5t110 9.5q117 0 200.5 -44t139 -118t81 -172t25.5 -205q0 -115 -24.5 -213t-78 -172t-139.5 -116t-209 -42q-104 0 -184 34t-153 112l116 110q37 -45 88.5 -74.5t128.5 -29.5q74 0 129.5 26.5t91 71.5t53 104.5t17.5 127.5h-364v143h364 q0 61 -21.5 116.5t-60.5 97.5t-91 66.5t-116 24.5q-59 0 -114.5 -20.5t-102.5 -83.5z" />
<glyph unicode="&#x44e;" horiz-adv-x="1488" d="M121 0v1006l176 51v-457h213q6 98 35.5 182t84 145.5t134.5 95.5t186 34q109 0 192 -38t139 -105.5t85 -159.5t29 -199v-41q0 -115 -23.5 -213t-77 -171t-137.5 -114t-207 -41q-115 0 -195.5 37t-133 101.5t-79 153t-32.5 190.5h-213v-457h-176zM666 516q0 -82 10 -152.5 t41 -123t87 -83t148 -30.5t147.5 31.5t85 85t40 124t10.5 148.5v39q0 74 -14.5 138.5t-48 111.5t-88 73.5t-132.5 26.5q-80 0 -134 -26.5t-88 -73.5t-49 -111.5t-15 -140.5v-37z" />
<glyph unicode="&#x44f;" horiz-adv-x="1087" d="M88 0v127q37 0 82 12.5t66 40.5l174 242q-135 16 -209 95t-74 208q0 76 26.5 133t72.5 96t109.5 58.5t135.5 19.5h492v-1032h-177v403h-147q-23 0 -43.5 -8t-36.5 -30l-176 -261q-35 -53 -89 -91t-118 -38q-23 0 -44 7.5t-44 17.5zM305 725q0 -86 47 -132t127 -46h307 v342h-307q-76 0 -125 -41t-49 -123z" />
<glyph unicode="&#x451;" d="M86 502v22q0 51 2 99.5t12.5 95.5t33 93t63.5 91q70 78 166 116t198 38q115 0 204 -37t149.5 -102.5t91.5 -155.5t31 -199v-92h-775q0 -180 83 -262t251 -82q82 0 139.5 34t102.5 93l156 -64q-59 -100 -166 -157.5t-242 -57.5q-137 0 -232.5 38t-154.5 106.5t-86 166 t-27 216.5zM262 614h598v19q0 51 -20.5 100t-59 87t-94 61.5t-125.5 23.5q-66 0 -121 -22.5t-95 -60.5t-61.5 -87t-21.5 -102v-19zM280 1352q0 41 29 68.5t70 27.5t69.5 -27.5t28.5 -68.5t-28.5 -69t-69.5 -28t-70 28t-29 69zM645 1352q0 41 28.5 68.5t69.5 27.5t70 -27.5 t29 -68.5t-29 -69t-70 -28t-69.5 28t-28.5 69z" />
<glyph unicode="&#x452;" horiz-adv-x="1089" d="M25 1157v115h129v127l176 49v-176h332l-31 -115h-301v-252q63 78 140 102.5t153 24.5q86 0 155.5 -29.5t117.5 -82t74.5 -123t26.5 -152.5v-790q0 -59 -20.5 -109.5t-55 -87.5t-82.5 -58.5t-104 -21.5q-29 0 -59 6l-84 19v129h84q59 0 102 31.5t43 91.5v813 q0 96 -53 154.5t-152 58.5q-125 0 -193.5 -62.5t-92.5 -156.5v-662h-176v1157h-129z" />
<glyph unicode="&#x453;" horiz-adv-x="790" d="M117 0v1032h627l-45 -143h-406v-889h-176zM336 1198l106 250h148v-51l-137 -199h-117z" />
<glyph unicode="&#x454;" horiz-adv-x="946" d="M78 516q0 55 4 102.5t14 94.5q41 156 157 250t279 94q61 0 108.5 -9.5t85.5 -26.5t71.5 -44t68.5 -62l-114 -106q-51 59 -105.5 80.5t-114.5 21.5q-63 0 -116.5 -26.5t-92 -70.5t-60 -100.5t-21.5 -115.5h364v-143h-364q0 -68 17 -129.5t53 -107.5t91.5 -72.5 t128.5 -26.5q78 0 128.5 32.5t87.5 75.5l116 -108q-72 -78 -149.5 -111t-182.5 -33q-176 0 -288.5 87.5t-147.5 259.5q-10 49 -14 97t-4 97z" />
<glyph unicode="&#x455;" horiz-adv-x="970" d="M66 193l127 79q27 -31 55.5 -57.5t63 -45.5t81 -30.5t109.5 -11.5q33 0 73 6t73.5 24.5t56 51.5t22.5 84q0 61 -46 92t-114.5 50.5t-148.5 35.5t-148.5 49t-114.5 91.5t-46 160.5q0 80 39 134.5t97 88t128 48t133 14.5q98 0 190.5 -39t157.5 -111l-106 -104 q-35 37 -92.5 69.5t-153.5 32.5q-33 0 -71 -5t-71.5 -20.5t-56 -44t-22.5 -73.5q0 -51 46 -79t115.5 -49.5t149.5 -41t149.5 -51t115.5 -83.5t46 -139q0 -160 -104 -252t-307 -92q-154 0 -258.5 52.5t-167.5 165.5z" />
<glyph unicode="&#x456;" horiz-adv-x="315" />
<glyph unicode="&#x457;" horiz-adv-x="600" d="M25 1352q0 41 28.5 68.5t69.5 27.5t69.5 -27.5t28.5 -68.5t-28.5 -69t-69.5 -28t-69.5 28t-28.5 69zM215 0v1032h176v-1032h-176zM389 1352q0 41 28.5 68.5t69.5 27.5t70 -27.5t29 -68.5t-29 -69t-70 -28t-69.5 28t-28.5 69z" />
<glyph unicode="&#x458;" horiz-adv-x="331" />
<glyph unicode="&#x459;" horiz-adv-x="1691" d="M82 0v127q39 0 72.5 8t54.5 37q27 37 50.5 109.5t33.5 197.5l43 553h655v-403h291q80 0 147.5 -16.5t115.5 -54.5t76 -98.5t28 -146.5t-30 -145t-81 -96t-118.5 -54.5t-143.5 -17.5h-461v889h-330l-30 -391q-10 -139 -37 -235.5t-66 -158.5q-35 -53 -82 -91t-102 -38 q-37 0 -86 25zM991 152h285q41 0 78 7t63.5 25.5t42 50t15.5 80.5q0 94 -53.5 131t-139.5 37h-291v-331z" />
<glyph unicode="&#x45a;" horiz-adv-x="1605" d="M123 0v1008l176 49v-428h457v379l176 49v-428h264q80 0 147.5 -16.5t115.5 -54.5t76 -98.5t28 -146.5t-30 -145t-81 -96t-118.5 -54.5t-143.5 -17.5h-434v483h-457v-483h-176zM932 152h258q41 0 78 7t63.5 25.5t42 50t15.5 80.5q0 94 -53.5 131t-139.5 37h-264v-331z" />
<glyph unicode="&#x45b;" horiz-adv-x="1052" d="M-35 1157v115h639l-35 -115h-604zM123 0v1399l176 49v-543q63 78 140 102.5t153 24.5q86 0 155.5 -29.5t117.5 -82t75 -123t27 -152.5v-645h-176v668q0 96 -53.5 154.5t-151.5 58.5q-125 0 -193.5 -62.5t-93.5 -156.5v-662h-176z" />
<glyph unicode="&#x45c;" horiz-adv-x="874" d="M121 0v1008l176 49v-467h86l291 442h180l-324 -502l230 -350q18 -29 54 -41t75 -12v-127q-49 -25 -86 -25q-55 0 -97 38t-77 91l-248 369h-84v-473h-176zM369 1198l106 250h148v-51l-137 -199h-117z" />
<glyph unicode="&#x45e;" horiz-adv-x="1110" d="M51 1008l170 49l320 -836q8 -20 19 -32.5t34 -12.5h8l317 881l170 -49l-456 -1227q-35 -90 -93.5 -146.5t-144.5 -56.5q-29 0 -60.5 5t-78.5 20v129h86q47 0 80 13t49 60l70 201q-59 14 -101.5 55t-64.5 99zM293 1448h104q0 -35 15.5 -59.5t41 -41t57.5 -24.5t64 -8 q31 0 63 7t57.5 23.5t41.5 42t16 60.5h105q0 -61 -23.5 -107.5t-62.5 -78t-90.5 -48t-106.5 -16.5q-57 0 -108 16.5t-90 48t-61.5 79t-22.5 106.5z" />
<glyph unicode="&#x45f;" horiz-adv-x="1019" d="M92 0v1032h176v-889h484v889h174v-1032h-344v-188h-144v188h-346z" />
<glyph unicode="&#x462;" horiz-adv-x="1333" d="M53 1057v143h787l-45 -143h-742zM262 0v1423h184v-583h426q215 0 328 -105.5t113 -310.5t-118 -314.5t-333 -109.5h-600zM446 168h408q276 0 276 256q0 129 -63 187.5t-203 58.5h-418v-502z" />
<glyph unicode="&#x463;" horiz-adv-x="1058" d="M53 907v125h158v365l176 51v-416h311l-39 -125h-272v-278h295q80 0 147.5 -16.5t115.5 -54.5t76 -98.5t28 -146.5t-30 -145t-81 -96t-118.5 -54.5t-143.5 -17.5h-465v907h-158zM387 152h289q41 0 78 7t63.5 25.5t41.5 50t15 80.5q0 94 -53 131t-139 37h-295v-331z" />
<glyph unicode="&#x472;" horiz-adv-x="1499" d="M80 707q0 152 42 292t146 256q45 49 101.5 86t120 60.5t129 35t131.5 11.5q131 0 258 -45t219 -146q111 -121 151.5 -256.5t40.5 -293.5t-42 -290t-150 -251q-92 -100 -219 -145.5t-258 -45.5q-66 0 -131.5 11.5t-129 35t-120 60.5t-101.5 86q-104 117 -146 252t-42 287z M264 725q74 59 144.5 93t148.5 34q57 0 114.5 -18.5t115 -42t114.5 -42t113 -18.5q51 0 107.5 24.5t107.5 71.5q-12 94 -52 176t-101.5 143.5t-143.5 97.5t-180 36q-96 0 -189.5 -36.5t-161.5 -110.5q-76 -84 -105.5 -190.5t-31.5 -217.5zM266 625q10 -104 49 -191.5 t102.5 -152t147.5 -100.5t187 -36q98 0 185 35t157 109q84 90 112.5 193.5t28.5 224.5v22q-84 -78 -162 -118t-164 -40q-59 0 -116.5 20.5t-116 45.5t-115.5 45t-112 20q-45 0 -92.5 -21.5t-90.5 -55.5z" />
<glyph unicode="&#x473;" horiz-adv-x="1130" d="M82 516v39q2 106 26.5 190t104.5 168q72 74 160 109t190 35t189.5 -34t158.5 -105q74 -76 107 -164t33 -195v-43q0 -111 -24.5 -209t-106.5 -184q-72 -76 -162 -112t-195 -36q-100 0 -192 37t-164 111q-78 78 -101.5 180.5t-23.5 212.5zM246 481q2 -78 21.5 -145.5 t60.5 -114.5q37 -45 95 -69.5t142 -24.5q78 0 133.5 22.5t94.5 63.5q53 53 73.5 132t20.5 169q-109 -96 -217 -96q-41 0 -79 14t-78 32.5t-82 33t-91 14.5q-23 0 -47.5 -8t-46.5 -23zM246 557q43 29 85 45t89 16q49 0 91 -13t81 -29.5t77 -30t79 -13.5q66 0 137 56 q-6 127 -76 213q-41 49 -102.5 76.5t-141.5 27.5q-78 0 -137 -25.5t-100 -72.5q-82 -94 -82 -250z" />
<glyph unicode="&#x474;" horiz-adv-x="1490" d="M35 1399l180 49l391 -1012l76 -241l68 239l315 830q35 86 102.5 135t149.5 49q74 0 145 -43l111 -70l-80 -121q-27 16 -53 29q-23 10 -48.5 20.5t-48.5 10.5q-39 0 -68.5 -18.5t-45.5 -59.5l-447 -1196h-213z" />
<glyph unicode="&#x475;" horiz-adv-x="1136" d="M35 1008l158 49l231 -629l65 -223l66 223l162 444q33 86 100.5 135.5t149.5 49.5q35 0 71.5 -10.5t71.5 -32.5l109 -70l-82 -113q-41 18 -68 29.5t-43 17t-25.5 6.5t-17.5 1q-37 0 -67.5 -21.5t-51.5 -72.5l-295 -791h-161z" />
<glyph unicode="&#x490;" horiz-adv-x="860" d="M63 0v1423h625v287h170v-453h-610v-1257h-185z" />
<glyph unicode="&#x491;" horiz-adv-x="673" d="M41 0v1032h479v391h146v-534h-449v-889h-176z" />
<glyph unicode="&#x4a4;" horiz-adv-x="1865" d="M123 0v1423h184v-626q39 20 84 31.5t96 11.5h547v583h832l-54 -168h-593v-1255h-185v670h-547q-86 0 -133 -46t-47 -132v-492h-184z" />
<glyph unicode="&#x4a5;" horiz-adv-x="1357" d="M123 0v1008l176 49v-428h467v403h592l-45 -143h-371v-889h-176v483h-467v-483h-176z" />
<glyph unicode="&#x2000;" horiz-adv-x="907" />
<glyph unicode="&#x2001;" horiz-adv-x="1815" />
<glyph unicode="&#x2002;" horiz-adv-x="907" />
<glyph unicode="&#x2003;" horiz-adv-x="1815" />
<glyph unicode="&#x2004;" horiz-adv-x="605" />
<glyph unicode="&#x2005;" horiz-adv-x="453" />
<glyph unicode="&#x2006;" horiz-adv-x="302" />
<glyph unicode="&#x2007;" horiz-adv-x="302" />
<glyph unicode="&#x2008;" horiz-adv-x="226" />
<glyph unicode="&#x2009;" horiz-adv-x="363" />
<glyph unicode="&#x200a;" horiz-adv-x="100" />
<glyph unicode="&#x2010;" horiz-adv-x="811" d="M117 561q0 18 4 37.5t12 46.5h543q8 -27 12 -45t4 -37q0 -18 -4 -37.5t-12 -44.5h-543q-8 27 -12 45.5t-4 34.5z" />
<glyph unicode="&#x2011;" horiz-adv-x="811" d="M117 561q0 18 4 37.5t12 46.5h543q8 -27 12 -45t4 -37q0 -18 -4 -37.5t-12 -44.5h-543q-8 27 -12 45.5t-4 34.5z" />
<glyph unicode="&#x2012;" horiz-adv-x="811" d="M117 561q0 18 4 37.5t12 46.5h543q8 -27 12 -45t4 -37q0 -18 -4 -37.5t-12 -44.5h-543q-8 27 -12 45.5t-4 34.5z" />
<glyph unicode="&#x2013;" horiz-adv-x="1378" d="M121 575q0 16 2 31.5t8 38.5h1114q6 -23 8 -38t2 -32q0 -16 -2 -32.5t-8 -38.5h-1114q-6 23 -8 39t-2 32z" />
<glyph unicode="&#x2014;" horiz-adv-x="2273" d="M123 575q0 16 2 31.5t8 38.5h2007q4 -23 7 -38t3 -32q0 -16 -3 -32.5l-7 -38.5h-2007q-6 23 -8 39t-2 32z" />
<glyph unicode="&#x2018;" horiz-adv-x="360" d="M47 1167q0 92 55.5 169t137.5 112l43 -68q-49 -16 -81 -60t-32 -95q0 -25 8 -47q41 0 69.5 -29t28.5 -70t-28.5 -70.5t-73.5 -29.5q-39 0 -70 27q-27 23 -42 65.5t-15 95.5z" />
<glyph unicode="&#x2019;" horiz-adv-x="366" d="M84 1047q49 16 81 60t32 95q0 25 -9 47q-41 0 -69.5 29t-28.5 70t28.5 70.5t74.5 29.5q38 0 69 -27q27 -23 42 -65.5t15 -95.5q0 -92 -55 -169t-137 -112z" />
<glyph unicode="&#x201c;" horiz-adv-x="772" d="M88 1167q0 92 55.5 169t137.5 112l43 -68q-49 -16 -81 -60t-32 -95q0 -25 8 -47q41 0 69.5 -29t28.5 -70t-28.5 -70.5t-73.5 -29.5q-39 0 -70 27q-27 23 -42 65.5t-15 95.5zM432 1167q0 92 55.5 169t137.5 112l43 -68q-49 -16 -81 -60t-32 -95q0 -25 8 -47q41 0 70 -29 t29 -70t-29 -70.5t-74 -29.5q-39 0 -70 27q-27 23 -42 65.5t-15 95.5z" />
<glyph unicode="&#x201d;" horiz-adv-x="770" d="M102 1047q49 16 81 60t32 95q0 25 -8 47q-41 0 -69.5 29t-28.5 70t28.5 70.5t73.5 29.5q39 0 70 -27q27 -23 42 -65.5t15 -95.5q0 -92 -55.5 -169t-137.5 -112zM446 1047q49 16 81 60t32 95q0 25 -8 47q-41 0 -69.5 29t-28.5 70t28.5 70.5t73.5 29.5q39 0 70 -27 q27 -23 42 -65.5t15 -95.5q0 -92 -55.5 -169t-137.5 -112z" />
<glyph unicode="&#x201e;" horiz-adv-x="770" d="M102 -227q49 16 81 60t32 95q0 25 -8 47q-41 0 -69.5 29t-28.5 70t28.5 70.5t73.5 29.5q39 0 70 -27q27 -23 42 -65.5t15 -95.5q0 -92 -55.5 -169t-137.5 -112zM446 -227q49 16 81 60t32 95q0 25 -8 47q-41 0 -69.5 29t-28.5 70t28.5 70.5t73.5 29.5q39 0 70 -27 q27 -23 42 -65.5t15 -95.5q0 -92 -55.5 -169t-137.5 -112z" />
<glyph unicode="&#x2020;" horiz-adv-x="960" d="M0 870v158h391v395h176v-395h394v-158h-394l-41 -1267h-92l-43 1267h-391z" />
<glyph unicode="&#x2021;" horiz-adv-x="964" d="M2 14v109h416l-25 747h-391v158h391v395h176v-395h394v-158h-394l-24 -747h418v-109h-422l-15 -411h-90l-14 411h-420z" />
<glyph unicode="&#x2022;" horiz-adv-x="649" d="M74 731q0 51 19.5 96t54 79t80 53.5t98.5 19.5q51 0 97 -19.5t80 -53.5t53 -79t19 -96t-19 -96t-53 -79t-80 -53.5t-97 -19.5q-53 0 -98.5 19.5t-80 53.5t-54 79t-19.5 96z" />
<glyph unicode="&#x2026;" horiz-adv-x="1318" d="M113 74q0 41 29.5 70.5t72.5 29.5q41 0 70.5 -29.5t29.5 -70.5t-29.5 -70t-70.5 -29q-43 0 -72.5 29t-29.5 70zM557 74q0 41 29.5 70.5t72.5 29.5q41 0 71 -29.5t30 -70.5t-30 -70t-71 -29q-43 0 -72.5 29t-29.5 70zM1001 74q0 41 30 70.5t73 29.5q41 0 70.5 -29.5 t29.5 -70.5t-29.5 -70t-70.5 -29q-43 0 -73 29t-30 70z" />
<glyph unicode="&#x202f;" horiz-adv-x="363" />
<glyph unicode="&#x2030;" horiz-adv-x="2031" d="M80 1075q0 66 13 132.5t44 119.5t84 87t133 34q76 0 129.5 -34t87 -87t49 -119.5t15.5 -130.5q0 -66 -14.5 -133t-47 -122.5t-86 -90.5t-133.5 -35q-78 0 -131 34t-85 88t-45 122t-13 135zM209 1075q0 -35 6 -78t22.5 -81.5t45 -64.5t75.5 -26q43 0 71 27t44 65.5 t23.5 82.5t7.5 77t-6 75t-23.5 79t-45.5 62.5t-71 25.5q-47 0 -75.5 -25.5t-45 -62.5t-22.5 -79t-6 -77zM362 -25h146l555 1473h-143zM788 354q0 66 13.5 132.5t44.5 119.5t84 87t133 34q78 0 132 -34t87 -87t47 -119.5t14 -132.5q0 -63 -14 -130.5t-47 -123t-86 -90.5 t-133 -35q-78 0 -131 34t-85 87.5t-45.5 122t-13.5 135.5zM918 354q0 -35 6 -79t22.5 -81.5t45 -63.5t75.5 -26q43 0 70.5 27t44 66t23.5 81.5t7 75.5t-6 75t-23.5 80t-46 63.5t-71.5 25.5q-45 0 -73.5 -25.5t-45 -62.5t-22.5 -80t-6 -76zM1446 354q0 66 13.5 132.5 t44 119.5t83.5 87t133 34q78 0 132.5 -34t87 -87t47 -119.5t14.5 -132.5t-14.5 -132t-47 -121.5t-86 -90.5t-133.5 -35q-78 0 -131 34t-84.5 87.5t-45 122t-13.5 135.5zM1575 354q0 -35 6 -79t22.5 -81.5t45 -63.5t75.5 -26q43 0 71 27t44 66t23.5 81.5t7.5 75.5t-6 75 t-23.5 80t-46.5 63.5t-72 25.5q-45 0 -73.5 -25.5t-45 -62.5t-22.5 -80t-6 -76z" />
<glyph unicode="&#x2039;" horiz-adv-x="532" d="M0 530q94 106 176 217t141 230h125q-53 -129 -113.5 -242.5t-127.5 -204.5q68 -90 128 -203.5t113 -240.5h-125q-59 117 -141 227.5t-176 216.5z" />
<glyph unicode="&#x203a;" horiz-adv-x="532" d="M90 86q53 127 113.5 240.5t128.5 203.5q-68 90 -128.5 204t-113.5 243h125q59 -119 141 -229.5t176 -217.5q-94 -106 -176 -216.5t-141 -227.5h-125z" />
<glyph unicode="&#x2044;" horiz-adv-x="1177" d="M0 -25l1038 1473h140l-1035 -1473h-143z" />
<glyph unicode="&#x205f;" horiz-adv-x="453" />
<glyph unicode="&#x2070;" horiz-adv-x="671" d="M80 1069q0 61 11 127t40 120t79 88t128 34q80 0 129 -35t76.5 -88t38 -119t10.5 -127q0 -59 -13.5 -124.5t-44 -121t-78.5 -91.5t-118 -36q-74 0 -123 37t-80 93.5t-43 122t-12 120.5zM180 1069q0 -37 5 -85t21.5 -89t47.5 -69.5t84 -28.5q51 0 81 29.5t46 72.5t21.5 89 t5.5 81q0 39 -4.5 85t-19.5 87t-46 68.5t-84 27.5q-57 0 -89 -26.5t-47.5 -66.5t-18.5 -87t-3 -88z" />
<glyph unicode="&#x2074;" horiz-adv-x="563" d="M4 885v92l313 446h105v-444h92l-31 -94h-61v-174h-100v174h-318zM123 979h199v278z" />
<glyph unicode="&#x2075;" horiz-adv-x="587" d="M74 840l88 39q23 -49 52.5 -68.5t82.5 -19.5q37 0 60.5 13t38 35.5t20.5 51.5t6 59q0 66 -28.5 113t-96.5 47q-37 0 -61.5 -12.5t-47.5 -40.5h-94l27 366h356l-28 -94h-240l-10 -143q45 18 98 18q117 0 168 -71.5t51 -182.5q0 -106 -54 -180t-165 -74q-160 0 -223 144z " />
<glyph unicode="&#x2076;" horiz-adv-x="593" d="M84 1009.5v67.5q0 68 15.5 132.5t44 115.5t72.5 82t99 31q47 0 90.5 -13.5t73.5 -42.5l-57 -65q-18 16 -47 21t-56 5q-37 0 -63.5 -19t-42.5 -49t-24.5 -63.5t-8.5 -60.5q25 20 59.5 31.5t69.5 11.5q51 0 92 -20.5t69 -54.5t42 -78t14 -93q0 -47 -15 -93t-44 -81 t-69 -56.5t-91 -21.5q-61 0 -101 21.5t-64.5 55.5t-37 78t-16.5 91q-4 33 -4 67.5zM180 944q0 -59 32 -106t95 -47q68 0 96.5 49t28.5 108q0 66 -27.5 109t-95.5 43q-74 0 -101.5 -48.5t-27.5 -107.5z" />
<glyph unicode="&#x2077;" horiz-adv-x="514" d="M47 1329v94h453v-69q0 -47 -33 -80q-113 -113 -171 -258.5t-58 -304.5h-95q0 82 16.5 166t47.5 163.5t78 153.5t108 135h-346z" />
<glyph unicode="&#x2078;" horiz-adv-x="577" d="M72 909q0 70 40 115t93 70q-51 23 -77 66.5t-26 101.5q0 76 54.5 126t132.5 50t132 -50.5t54 -125.5q0 -55 -28.5 -89t-71.5 -65q59 -29 94 -82t35 -117q0 -98 -59.5 -155.5t-157.5 -57.5t-156.5 57.5t-58.5 155.5zM166 909q0 -61 32 -89.5t91 -28.5q57 0 89 29.5 t32 88.5q0 41 -19.5 76t-64.5 55l-52 23q-43 -16 -75.5 -60.5t-32.5 -93.5zM197 1262q0 -41 14 -62.5t47 -38.5l49 -22q25 12 49.5 43t24.5 82q0 39 -28.5 58t-63.5 19t-63.5 -20.5t-28.5 -58.5z" />
<glyph unicode="&#x2079;" horiz-adv-x="591" d="M72 1196q0 102 54 172t163 70q57 0 96 -20.5t63.5 -54.5t37 -78t16.5 -89q6 -49 6 -100q0 -74 -10.5 -145.5t-38 -128t-73.5 -91.5t-118 -35q-102 0 -166 64l64 65q16 -18 44 -26t56 -8q45 0 74 22.5t46 56t24.5 74.5t9.5 76q-29 -33 -65 -45t-70 -12q-109 0 -161 66.5 t-52 166.5zM162 1196q0 -74 28.5 -106.5t94.5 -32.5q70 0 98.5 41t28.5 98q0 66 -26 106.5t-99 40.5q-74 0 -99.5 -40.5t-25.5 -106.5z" />
<glyph unicode="&#x2080;" horiz-adv-x="634" d="M80 364q0 61 11 127t40 120t79 88t128 34q80 0 129 -35t76.5 -88t38 -119t10.5 -127q0 -59 -13.5 -124.5t-44 -121t-78.5 -91.5t-118 -36q-74 0 -123 37t-80 93.5t-43 122t-12 120.5zM180 364q0 -37 5 -85t21.5 -89t47.5 -69.5t84 -28.5q51 0 81 29.5t46 72.5t21.5 89 t5.5 81q0 39 -4.5 85t-19.5 87t-46 68.5t-84 27.5q-57 0 -89 -26.5t-47.5 -66.5t-18.5 -87t-3 -88z" />
<glyph unicode="&#x2081;" horiz-adv-x="483" d="M37 561l164 155h96v-618h100v-94h-311v94h107v479l-89 -84z" />
<glyph unicode="&#x2082;" horiz-adv-x="579" d="M86 4v57q0 49 35 84l282 285q16 18 29.5 46.5t13.5 59.5q0 55 -42 77.5t-97 22.5q-84 0 -121 -75l-86 41q66 129 207 129q41 0 79 -8.5t73 -30.5q41 -29 61.5 -74t20.5 -92q0 -43 -16.5 -85t-45.5 -71l-272 -272h336v-94h-457z" />
<glyph unicode="&#x2083;" horiz-adv-x="571" d="M61 133l86 39q29 -51 61 -68.5t79 -17.5q57 0 93 33.5t36 93.5q0 70 -40 104.5t-100 34.5h-69v71l170 201h-293v94h393v-80q0 -23 -7 -40t-19 -33l-119 -137q178 -31 178 -218q0 -104 -58.5 -161.5t-164.5 -57.5q-162 0 -226 142z" />
<glyph unicode="&#x2084;" horiz-adv-x="632" d="M4 178v92l313 446h105v-444h92l-31 -94h-61v-174h-100v174h-318zM123 272h199v278z" />
<glyph unicode="&#x2085;" horiz-adv-x="565" d="M74 135l88 39q23 -49 52.5 -68.5t82.5 -19.5q37 0 60.5 13t38 35.5t20.5 51.5t6 59q0 66 -28.5 113t-96.5 47q-37 0 -61.5 -12.5t-47.5 -40.5h-94l27 366h356l-28 -94h-240l-10 -143q45 18 98 18q117 0 168 -71.5t51 -182.5q0 -106 -54 -180t-165 -74q-160 0 -223 144z " />
<glyph unicode="&#x2086;" horiz-adv-x="565" d="M84 304.5v67.5q0 68 15.5 132.5t44 115.5t72.5 82t99 31q47 0 90.5 -13.5t73.5 -42.5l-57 -65q-18 16 -47 21t-56 5q-37 0 -63.5 -19t-42.5 -49t-24.5 -63.5t-8.5 -60.5q25 20 59.5 31.5t69.5 11.5q51 0 92 -20.5t69 -54.5t42 -78t14 -93q0 -47 -15 -93t-44 -81 t-69 -56.5t-91 -21.5q-61 0 -101 21.5t-64.5 55.5t-37 78t-16.5 91q-4 33 -4 67.5zM180 239q0 -59 32 -106t95 -47q68 0 96.5 49t28.5 108q0 66 -27.5 109t-95.5 43q-74 0 -101.5 -48.5t-27.5 -107.5z" />
<glyph unicode="&#x2087;" horiz-adv-x="575" d="M47 622v94h453v-69q0 -47 -33 -80q-113 -113 -171 -258.5t-58 -304.5h-95q0 82 16.5 166t47.5 163.5t78 153.5t108 135h-346z" />
<glyph unicode="&#x2088;" horiz-adv-x="555" d="M72 204q0 70 40 115t93 70q-51 23 -77 66.5t-26 101.5q0 76 54.5 126t132.5 50t132 -50.5t54 -125.5q0 -55 -28.5 -89t-71.5 -65q59 -29 94 -82t35 -117q0 -98 -59.5 -155.5t-157.5 -57.5t-156.5 57.5t-58.5 155.5zM166 204q0 -61 32 -89.5t91 -28.5q57 0 89 29.5 t32 88.5q0 41 -19.5 76t-64.5 55l-52 23q-43 -16 -75.5 -60.5t-32.5 -93.5zM197 557q0 -41 14 -62.5t47 -38.5l49 -22q25 12 49.5 43t24.5 82q0 39 -28.5 58t-63.5 19t-63.5 -20.5t-28.5 -58.5z" />
<glyph unicode="&#x2089;" horiz-adv-x="559" d="M72 491q0 102 54 172t163 70q57 0 96 -20.5t63.5 -54.5t37 -78t16.5 -89q6 -49 6 -100q0 -74 -10.5 -145.5t-38 -128t-73.5 -91.5t-118 -35q-102 0 -166 64l64 65q16 -18 44 -26t56 -8q45 0 74 22.5t46 56t24.5 74.5t9.5 76q-29 -33 -65 -45t-70 -12q-109 0 -161 66.5 t-52 166.5zM162 491q0 -74 28.5 -106.5t94.5 -32.5q70 0 98.5 41t28.5 98q0 66 -26 106.5t-99 40.5q-74 0 -99.5 -40.5t-25.5 -106.5z" />
<glyph unicode="&#x20a4;" horiz-adv-x="1159" d="M70 133q37 31 72.5 65.5t67.5 74.5t56.5 85t36.5 95h-209v127h217q-6 39 -17 75.5t-28 77.5h-172v127h129q-10 39 -18 80t-8 86v14q2 90 36.5 162t91 121t133.5 75.5t163 26.5q129 0 233 -49t174 -139l-123 -113q-41 61 -108.5 104.5t-165.5 43.5q-113 0 -191 -63.5 t-82 -178.5v-14q0 -41 8.5 -80t18.5 -76h350v-127h-305q14 -39 24.5 -75.5t14.5 -77.5h266v-127h-272q-14 -70 -48 -134.5t-75 -121.5q29 4 58.5 6t60.5 2q55 0 106 -12.5t100.5 -27.5t98.5 -27.5t102 -12.5q43 0 86 17.5t78 37.5l70 -135q-59 -29 -112.5 -49.5 t-121.5 -20.5q-57 0 -109 12.5t-101.5 27t-98.5 26.5t-98 12q-53 0 -91 -3t-72 -12t-68.5 -23.5t-80.5 -39.5q-18 41 -37.5 79t-39.5 79z" />
<glyph unicode="&#x20ac;" horiz-adv-x="1224" d="M35 508l39 127h112v127h-151l39 127h119q6 78 25.5 146.5t55 128t92 108.5t138.5 88q70 33 144.5 48t152.5 15q186 0 329 -94l-96 -143q-102 72 -233 71q-57 0 -113.5 -10t-107.5 -37q-102 -53 -145.5 -136t-55.5 -185h551l-25 -127h-534v-53v-37t2 -37h506l-27 -127 h-471q12 -102 55 -185t144 -133q51 -25 107 -36t114 -11q135 4 233 72l96 -143q-72 -49 -154.5 -72t-174.5 -25q-78 0 -153 15.5t-144 50.5q-84 43 -139.5 93t-91 108.5t-53 125t-25.5 140.5h-160z" />
<glyph unicode="&#x20b4;" horiz-adv-x="946" d="M47 498v135h275q29 33 58.5 62.5t57.5 62.5h-352v135h471q51 59 88 119.5t37 117.5q0 39 -20 72q-25 41 -68 63.5t-90 22.5h-8q-72 0 -139.5 -33.5t-120.5 -80.5l-93 104q74 70 164 109.5t189 39.5h10q80 0 156.5 -42t117.5 -111q43 -70 43 -146q0 -61 -24.5 -119.5 t-65.5 -115.5h137v-135h-245l-121 -125h330v-135h-441q-43 -59 -73.5 -119t-30.5 -113q0 -41 20 -69q27 -43 74 -62.5t94 -19.5h15q76 0 147.5 28.5t128.5 75.5l88 -108q-76 -61 -170 -98.5t-192 -37.5h-21q-86 0 -161.5 38t-121.5 110q-41 68 -40 143q0 59 20 116.5 t55 115.5h-178z" />
<glyph unicode="&#x2103;" horiz-adv-x="1671" d="M-94 1186q0 55 20.5 103t56 84t84 56.5t103.5 20.5t103 -20.5t84 -56.5t56.5 -84t20.5 -103t-20.5 -102.5t-56.5 -83t-84 -56t-103 -20.5t-103.5 20.5t-84 56t-56 82.5t-20.5 103zM2 1186q0 -70 49 -118t119 -48t119 48t49 118q0 72 -49 120t-119 48t-119 -48.5 t-49 -119.5zM493 713v75q0 156 40 278t120 207t201 130t282 45q125 0 245 -42t208 -132l-125 -125q-63 66 -150.5 97.5t-177.5 31.5q-135 0 -222 -44t-138 -114.5t-70.5 -159t-19.5 -176.5v-67q0 -102 13 -203.5t59.5 -184.5t135.5 -134.5t242 -51.5q92 0 177 34t151 104 l129 -121q-90 -96 -209 -140.5t-248 -44.5q-182 0 -305 56.5t-197.5 155t-107.5 233.5t-33 293z" />
<glyph unicode="&#x2109;" horiz-adv-x="1511" d="M-92 1186q0 55 20.5 103t56 84t84 56.5t103.5 20.5t103 -20.5t84 -56.5t56.5 -84t20.5 -103t-20.5 -102.5t-56.5 -83t-84 -56t-103 -20.5t-103.5 20.5t-84 56t-56 82.5t-20.5 103zM4 1186q0 -70 49 -118t119 -48t119 48t49 118q0 72 -49 120t-119 48t-119 -48.5 t-49 -119.5zM547 0v1423h964l-53 -168h-727v-415h676v-170h-676v-670h-184z" />
<glyph unicode="&#x2116;" horiz-adv-x="2164" d="M123 0v1423h235l711 -1142v1142h184v-1423h-225l-721 1165v-1165h-184zM1409 760q0 78 15.5 145.5t54.5 120.5q41 55 106.5 87t161.5 32t161.5 -32t106.5 -89q39 -53 54.5 -120.5t15.5 -143.5q0 -78 -15.5 -146.5t-54.5 -121.5q-41 -57 -105.5 -90t-162.5 -33 t-162.5 31.5t-105.5 88.5q-39 53 -54.5 122t-15.5 149zM1413 186q0 29 12 72h643q12 -43 13 -72q0 -31 -13 -69h-643q-12 39 -12 69zM1538 760q0 -59 10.5 -110.5t34.5 -86.5q23 -31 63 -48t101 -17t100 18.5t62 48.5q25 35 35 85.5t10 109.5q0 57 -10.5 105t-34.5 83 q-23 31 -63 49.5t-99 18.5t-99 -17.5t-63 -50.5q-25 -35 -36 -83t-11 -105z" />
<glyph unicode="&#x2122;" horiz-adv-x="1716" d="M72 1323v100h626l-39 -100h-221v-696h-110v696h-256zM807 627v796h172l219 -573l221 573h172v-796h-110v665l-221 -581h-123l-219 581v-665h-111z" />
<glyph unicode="&#x2126;" horiz-adv-x="1507" d="M86 0v162l307 -25q-43 31 -92 86.5t-91 129t-70.5 163.5t-28.5 189v45q0 154 46 280.5t129 216.5t200.5 140.5t258.5 50.5t259 -49.5t203 -139.5t131 -216t46 -279v-49q0 -98 -27.5 -186.5t-69.5 -162t-91 -130t-92 -89.5l321 25v-162h-573v162q80 25 139.5 74 t100.5 119.5t61.5 158.5t20.5 191v49q0 100 -25 197.5t-77 174t-132 122.5t-192 46q-106 0 -186.5 -42t-133.5 -115.5t-79.5 -173t-26.5 -213.5v-45q0 -102 20 -190.5t62 -159t102.5 -120t140.5 -73.5v-162h-561z" />
<glyph unicode="&#x215b;" horiz-adv-x="1333" d="M78 -25l1038 1473h140l-1035 -1473h-143zM100 1268l164 155h96v-618h100v-94h-311v94h107v479l-89 -84zM820 204q0 70 40 115t93 70q-51 23 -77 66.5t-26 101.5q0 76 54.5 126t132.5 50t132 -50.5t54 -125.5q0 -55 -28.5 -89t-71.5 -65q59 -29 94 -82t35 -117 q0 -98 -59.5 -155.5t-157.5 -57.5t-156.5 57.5t-58.5 155.5zM914 204q0 -61 32 -89.5t91 -28.5q57 0 89 29.5t32 88.5q0 41 -19.5 76t-64.5 55l-52 23q-43 -16 -75.5 -60.5t-32.5 -93.5zM945 557q0 -41 14 -62.5t47 -38.5l49 -22q25 12 49.5 43t24.5 82q0 39 -28.5 58 t-63.5 19t-63.5 -20.5t-28.5 -58.5z" />
<glyph unicode="&#x215c;" horiz-adv-x="1337" d="M80 -25l1038 1473h140l-1035 -1473h-143zM141 838l86 39q29 -51 61 -68.5t79 -17.5q57 0 93 33.5t36 93.5q0 70 -40 104.5t-100 34.5h-69v71l170 201h-293v94h393v-80q0 -23 -7 -40t-19 -33l-119 -137q178 -31 178 -218q0 -104 -58.5 -161.5t-164.5 -57.5 q-162 0 -226 142zM828 204q0 70 40 115t93 70q-51 23 -77 66.5t-26 101.5q0 76 54.5 126t132.5 50t132 -50.5t54 -125.5q0 -55 -28.5 -89t-71.5 -65q59 -29 94 -82t35 -117q0 -98 -59.5 -155.5t-157.5 -57.5t-156.5 57.5t-58.5 155.5zM922 204q0 -61 32 -89.5t91 -28.5 q57 0 89 29.5t32 88.5q0 41 -19.5 76t-64.5 55l-52 23q-43 -16 -75.5 -60.5t-32.5 -93.5zM953 557q0 -41 14 -62.5t47 -38.5l49 -22q25 12 49.5 43t24.5 82q0 39 -28.5 58t-63.5 19t-63.5 -20.5t-28.5 -58.5z" />
<glyph unicode="&#x215d;" horiz-adv-x="1333" d="M127 -25l1038 1473h140l-1035 -1473h-143zM140 840l88 39q23 -49 52.5 -68.5t82.5 -19.5q37 0 60.5 13t38 35.5t20.5 51.5t6 59q0 66 -28.5 113t-96.5 47q-37 0 -61.5 -12.5t-47.5 -40.5h-94l27 366h356l-28 -94h-240l-10 -143q45 18 98 18q117 0 168 -71.5t51 -182.5 q0 -106 -54 -180t-165 -74q-160 0 -223 144zM824 204q0 70 40 115t93 70q-51 23 -77 66.5t-26 101.5q0 76 54.5 126t132.5 50t132 -50.5t54 -125.5q0 -55 -28.5 -89t-71.5 -65q59 -29 94 -82t35 -117q0 -98 -59.5 -155.5t-157.5 -57.5t-156.5 57.5t-58.5 155.5zM918 204 q0 -61 32 -89.5t91 -28.5q57 0 89 29.5t32 88.5q0 41 -19.5 76t-64.5 55l-52 23q-43 -16 -75.5 -60.5t-32.5 -93.5zM949 557q0 -41 14 -62.5t47 -38.5l49 -22q25 12 49.5 43t24.5 82q0 39 -28.5 58t-63.5 19t-63.5 -20.5t-28.5 -58.5z" />
<glyph unicode="&#x215e;" horiz-adv-x="1329" d="M72 -25l1038 1473h140l-1035 -1473h-143zM147 1329v94h453v-69q0 -47 -33 -80q-113 -113 -171 -258.5t-58 -304.5h-95q0 82 16.5 166t47.5 163.5t78 153.5t108 135h-346zM820 204q0 70 40 115t93 70q-51 23 -77 66.5t-26 101.5q0 76 54.5 126t132.5 50t132 -50.5 t54 -125.5q0 -55 -28.5 -89t-71.5 -65q59 -29 94 -82t35 -117q0 -98 -59.5 -155.5t-157.5 -57.5t-156.5 57.5t-58.5 155.5zM914 204q0 -61 32 -89.5t91 -28.5q57 0 89 29.5t32 88.5q0 41 -19.5 76t-64.5 55l-52 23q-43 -16 -75.5 -60.5t-32.5 -93.5zM945 557q0 -41 14 -62.5 t47 -38.5l49 -22q25 12 49.5 43t24.5 82q0 39 -28.5 58t-63.5 19t-63.5 -20.5t-28.5 -58.5z" />
<glyph unicode="&#x2190;" horiz-adv-x="1380" d="M33 616l559 562l102 -103l-352 -377h1038v-163h-1038l352 -365l-102 -113z" />
<glyph unicode="&#x2191;" horiz-adv-x="1132" d="M6 889l561 559l559 -559l-112 -103l-365 353v-1039h-164v1039l-376 -353z" />
<glyph unicode="&#x2192;" horiz-adv-x="1380" d="M0 535v163h1038l-352 377l102 103l560 -562l-560 -559l-102 113l352 365h-1038z" />
<glyph unicode="&#x2193;" horiz-adv-x="1134" d="M6 659l103 103l376 -352v1038h164v-1038l365 352l112 -103l-559 -559z" />
<glyph unicode="&#x2196;" horiz-adv-x="1116" d="M47 459v792h791l-7 -159h-507l735 -736l-117 -116l-733 735l-19 -516h-143z" />
<glyph unicode="&#x2198;" horiz-adv-x="1118" d="M55 1135l117 116l733 -735l19 516h143v-792h-791l7 159h508z" />
<glyph unicode="&#x21e0;" horiz-adv-x="1327" d="M57 659q0 29 21 54l348 346l82 -80l-320 -320l320 -319l-82 -80l-348 348q-20 20 -21 51zM322 659q0 31 21 52.5t50 21.5q31 0 52.5 -21.5t21.5 -52.5t-21.5 -52t-52.5 -21q-29 0 -50 21.5t-21 51.5zM608 659q0 31 21.5 52.5t50.5 21.5q31 0 52.5 -21.5t21.5 -52.5 t-21.5 -52t-52.5 -21q-29 0 -50.5 21.5t-21.5 51.5zM895 659q0 31 21.5 52.5t50.5 21.5q31 0 52 -21.5t21 -52.5t-21.5 -52t-51.5 -21q-29 0 -50.5 21.5t-21.5 51.5zM1180 659q0 31 22 52.5t51 21.5q31 0 52.5 -21.5t21.5 -52.5t-21.5 -52t-52.5 -21q-29 0 -51 21.5 t-22 51.5z" />
<glyph unicode="&#x21e1;" horiz-adv-x="802" d="M2 1079l348 348q20 20 51 21q29 0 54 -21l346 -348l-80 -82l-320 320l-319 -320zM328 252q0 29 21.5 51.5t51.5 22.5q31 0 52.5 -22.5t21.5 -51.5q0 -31 -21.5 -52.5t-52.5 -21.5t-52 21.5t-21 52.5zM328 539q0 29 21.5 50t51.5 21q31 0 52.5 -21t21.5 -50 q0 -31 -21.5 -52.5t-52.5 -21.5t-52 21.5t-21 52.5zM328 825q0 29 21.5 50.5t51.5 21.5q31 0 52.5 -21.5t21.5 -50.5q0 -31 -21.5 -52t-52.5 -21t-52 21.5t-21 51.5zM328 1112q0 29 21.5 50.5t51.5 21.5q31 0 52.5 -21.5t21.5 -50.5q0 -31 -21.5 -52.5t-52.5 -21.5t-52 21.5 t-21 52.5z" />
<glyph unicode="&#x21e2;" horiz-adv-x="1327" d="M0 659q0 31 21.5 52.5t52.5 21.5q29 0 51 -21.5t22 -52.5t-22.5 -52t-50.5 -21q-31 0 -52.5 21.5t-21.5 51.5zM287 659q0 31 21 52.5t52 21.5q29 0 50.5 -21.5t21.5 -52.5t-21.5 -52t-50.5 -21q-31 0 -52 21.5t-21 51.5zM573 659q0 31 21.5 52.5t52.5 21.5 q29 0 50.5 -21.5t21.5 -52.5t-21.5 -52t-50.5 -21q-31 0 -52.5 21.5t-21.5 51.5zM819 340l320 319l-320 320l82 80l348 -346q20 -25 21 -54q0 -31 -21 -51l-348 -348zM860 659q0 31 21.5 52.5t52.5 21.5q29 0 50.5 -21.5t21.5 -52.5t-21.5 -52t-50.5 -21q-31 0 -52.5 21.5 t-21.5 51.5z" />
<glyph unicode="&#x21e3;" horiz-adv-x="802" d="M2 547l80 82l319 -320l320 320l80 -82l-346 -348q-25 -20 -54 -21q-31 0 -51 21zM328 514q0 31 21.5 52.5t51.5 21.5q31 0 52.5 -21.5t21.5 -52.5q0 -29 -21.5 -50.5t-52.5 -21.5t-52 21.5t-21 50.5zM328 801q0 31 21.5 52t51.5 21q31 0 52.5 -21t21.5 -52 q0 -29 -21.5 -50.5t-52.5 -21.5t-52 21.5t-21 50.5zM328 1087q0 31 21.5 52.5t51.5 21.5q31 0 52.5 -21.5t21.5 -52.5q0 -29 -21.5 -50t-52.5 -21t-52 21.5t-21 49.5zM328 1374q0 31 21.5 52.5t51.5 21.5q31 0 52.5 -21.5t21.5 -52.5q0 -29 -21.5 -51.5t-52.5 -22.5t-52 23 t-21 51z" />
<glyph unicode="&#x2202;" horiz-adv-x="925" d="M47 492q0 90 27.5 175t80 149.5t129 103t177.5 38.5q41 0 97 -12t99 -47q-20 51 -62 116.5t-97.5 130t-121 121t-130.5 91.5l65 80q125 -72 229.5 -173.5t178.5 -223t114.5 -262t40.5 -287.5q0 -96 -24.5 -187.5t-75.5 -162t-130 -112.5t-187 -42q-109 0 -186.5 42 t-127 111.5t-73 160.5t-23.5 190zM184 492q0 -74 13.5 -140.5t45 -118t84 -81t132.5 -29.5q78 0 131 31.5t86 83t47 118t14 138.5q0 66 -18.5 125t-53 105t-86 72.5t-116.5 26.5q-68 0 -120 -26.5t-88 -71.5t-53.5 -105.5t-17.5 -127.5z" />
<glyph unicode="&#x2206;" horiz-adv-x="1275" d="M37 0v156l534 1267h134l534 -1267v-156h-1202zM174 139q53 6 85 9.5t51.5 5.5t28.5 2h19h514h18.5t29 -2t50 -5.5l85.5 -9.5l-385 946l-56 205l-53 -205z" />
<glyph unicode="&#x2212;" horiz-adv-x="1239" d="M121 643q0 35 14 80h969q6 -25 9 -43t3 -37q0 -35 -12 -80h-969q-14 43 -14 80z" />
<glyph unicode="&#x221a;" horiz-adv-x="1294" d="M0 469v129h322l139 -448l47 -232l33 232l377 1427h368v-129h-268l-426 -1634h-166l-205 655h-221z" />
<glyph unicode="&#x221e;" horiz-adv-x="1230" d="M78 700q0 55 16.5 104.5t48 85.5t76.5 57.5t100 21.5q78 0 131.5 -35t96.5 -100q18 43 50 74.5t72 54t85 34t90 11.5q139 0 214 -83.5t75 -226.5q0 -141 -75 -225t-214 -84q-98 0 -171 60.5t-108 140.5q-33 -76 -100.5 -116t-145.5 -40q-55 0 -100 21.5t-75.5 57.5 t-48 84t-17.5 103zM170 700q0 -80 47 -125t102 -45q39 0 68 17.5t51.5 44t39 59.5t28.5 66l8 24q-10 18 -28.5 41t-44 43.5t-56.5 33.5t-66 13q-72 0 -110.5 -50t-38.5 -122zM608 668q6 -33 32 -66t61.5 -58.5t74.5 -42t74 -16.5q86 0 137 48t51 165q0 61 -15 103.5t-41 67 t-59.5 34.5t-72.5 10q-55 0 -96 -24.5t-71 -61t-48.5 -79.5t-26.5 -80z" />
<glyph unicode="&#x222b;" horiz-adv-x="573" d="M18 -270h82q55 0 100.5 25.5t45.5 78.5l-92 1684q0 51 21.5 96t58 77.5t84 51t98.5 18.5q27 0 57 -6l82 -16v-129h-82q-59 0 -102 -29t-43 -86v-13q0 -12 3 -62t8 -153.5t15.5 -285.5t26.5 -459t39 -672v-16q0 -55 -21.5 -101t-57.5 -81t-83 -54.5t-100 -19.5 q-27 0 -58 6l-82 17v129z" />
<glyph unicode="&#x2248;" horiz-adv-x="1148" d="M74 406v102q74 59 144.5 93t148.5 34q57 0 114.5 -18.5t114.5 -42t114.5 -42t112.5 -18.5t116.5 29.5t115.5 83.5v-105q-86 -82 -167 -125t-169 -43q-59 0 -116.5 20.5t-116 45t-116 45t-112.5 20.5q-45 0 -93 -22.5t-91 -56.5zM74 797v102q74 59 144.5 93t148.5 34 q57 0 114.5 -18.5t114.5 -42t114.5 -42t112.5 -18.5t116.5 30t115.5 83v-105q-86 -82 -167 -125t-169 -43q-59 0 -116.5 20.5t-116 45.5t-116 45.5t-112.5 20.5q-45 0 -93 -23t-91 -57z" />
<glyph unicode="&#x2260;" horiz-adv-x="980" d="M14 485q0 37 15 82h350l78 267h-428q-14 43 -15 79q0 35 15 80h477l57 197h148l-58 -197h303q6 -25 9.5 -43t3.5 -37q0 -35 -13 -79h-350l-80 -267h430q12 -49 13 -82q0 -35 -13 -79h-477l-59 -197h-148l60 197h-303q-14 43 -15 79z" />
<glyph unicode="&#x2264;" horiz-adv-x="1028" d="M18 80q1 37 15 82h880q6 -25 10.5 -44.5t4.5 -37.5t-4 -37.5t-11 -42.5h-880q-14 43 -15 80zM29 614v162l884 369v-176l-714 -275l714 -280v-174z" />
<glyph unicode="&#x2265;" horiz-adv-x="1028" d="M98 80q0 18 4 37.5t11 44.5h880q14 -45 15 -82q0 -37 -15 -80h-880q-6 23 -10.5 42t-4.5 38zM113 240v174l714 280l-714 275v176l884 -369v-162z" />
<glyph unicode="&#x25ca;" horiz-adv-x="905" d="M27 709l387 714h78l387 -714l-387 -709h-78zM135 709l318 -607l317 607l-317 612z" />
<glyph unicode="&#x2605;" horiz-adv-x="1175" d="M18 862l390 64l180 350l180 -350l389 -64l-278 -280l59 -389l-350 178l-352 -178l59 389z" />
<glyph unicode="&#x2639;" horiz-adv-x="1212" d="M74 688q0 111 42 208t113.5 169t168.5 114t208 42t207 -42t169 -114t115 -169t42 -208t-42 -207t-115 -168.5t-169 -114.5t-207 -42t-208 42t-168.5 114.5t-113.5 169t-42 206.5zM152 688q0 -94 35.5 -176t97 -143.5t144.5 -97t177 -35.5t176 35.5t143.5 97t97.5 143.5 t36 176t-36 177t-97.5 144.5t-143.5 97.5t-176 36t-177 -36t-144.5 -97.5t-97 -144.5t-35.5 -177zM301 420q41 90 125 143q80 51 180 51q98 0 180 -53q80 -49 125 -141l-63 -29q-33 72 -98 113q-63 41 -144 41q-80 0 -143 -41q-66 -41 -101 -113zM330 856q0 29 21 50.5 t50 21.5t49.5 -21.5t20.5 -50.5t-20.5 -49.5t-49.5 -20.5t-50 20.5t-21 49.5zM739 856q0 29 21.5 50.5t50.5 21.5t49.5 -21.5t20.5 -50.5t-20.5 -49.5t-49.5 -20.5t-50.5 20.5t-21.5 49.5z" />
<glyph unicode="&#x263a;" horiz-adv-x="1212" d="M74 688q0 111 42 208t113.5 169t168.5 114t208 42t208 -42t169 -114t114 -169t42 -208t-42 -207t-114 -168.5t-169 -114.5t-208 -42t-208 42t-168.5 114.5t-113.5 169t-42 206.5zM152 688q0 -94 35.5 -176t97 -143.5t144.5 -97t177 -35.5t177 35.5t144.5 97t97.5 143.5 t36 176t-36 177t-97.5 144.5t-144.5 97.5t-177 36t-177 -36t-144.5 -97.5t-97 -144.5t-35.5 -177zM301 547l64 28q33 -72 98 -112q63 -41 143 -41t144 41q68 41 98 112l63 -28q-20 -45 -52 -81t-73 -63q-80 -51 -180 -51t-180 51q-41 27 -72.5 63t-52.5 81zM330 856 q0 29 21 50.5t50 21.5t49.5 -21.5t20.5 -50.5t-20.5 -49.5t-49.5 -20.5t-50 20.5t-21 49.5zM741 856q0 29 20.5 50.5t49.5 21.5t49.5 -21.5t20.5 -50.5t-20.5 -49.5t-49.5 -20.5t-49.5 20.5t-20.5 49.5z" />
<glyph unicode="&#x2709;" horiz-adv-x="2097" d="M123 94v1268h1849v-1268h-1849zM238 295l542 432l-542 432v-864zM332 209h1431l-542 434q-82 -57 -172 -57q-92 0 -175 57zM332 1245l602 -485q53 -41 115 -41q66 0 114 41l600 485h-1431zM1315 727l543 -432v864z" />
<glyph unicode="&#xe000;" horiz-adv-x="1054" d="M0 0v1055h1055v-1055h-1055z" />
<glyph unicode="&#xe024;" horiz-adv-x="1116" d="M84 520q0 106 22.5 203.5t75.5 169.5q57 76 149.5 120t229.5 44h8q131 0 219.5 -44t143.5 -118q59 -78 79.5 -178.5t20.5 -196.5q0 -98 -20.5 -198.5t-79.5 -180.5q-55 -76 -144.5 -121t-224.5 -45q-141 0 -232 46.5t-149 121.5q-53 74 -75.5 170.5t-22.5 206.5zM258 520 q0 -84 14.5 -165t49.5 -128q35 -45 92 -77.5t151 -32.5q86 0 140.5 32.5t87.5 75.5q20 27 33.5 64t20.5 77t9 79.5t2 74.5q0 33 -2 72t-9 79t-20.5 75.5t-33.5 64.5q-33 43 -88.5 73.5t-141.5 30.5q-92 0 -149.5 -31.5t-89.5 -74.5q-35 -47 -50.5 -128t-15.5 -161z" />
<glyph unicode="&#xe025;" horiz-adv-x="774" d="M57 844l287 188h160v-882h227v-150h-627v150h226v665l-178 -113z" />
<glyph unicode="&#xe026;" horiz-adv-x="980" d="M84 0v117q0 63 26.5 111t67.5 85t93.5 63.5t105.5 49.5q82 35 144.5 64.5t103.5 62.5t62.5 74t21.5 98q0 98 -55.5 144t-166.5 46q-86 0 -148.5 -52t-107.5 -128l-139 72q125 250 393 250h15q72 0 138.5 -20.5t118.5 -60.5t82.5 -99.5t30.5 -135.5v-8q0 -76 -27.5 -143.5 t-82.5 -114.5q-66 -55 -148 -104t-176 -86q-72 -29 -110.5 -71t-42.5 -64h624v-150h-823z" />
<glyph unicode="&#xe027;" horiz-adv-x="1005" d="M47 -141l158 69q43 -94 108 -135q63 -41 170 -41q70 0 137.5 26.5t100.5 92.5q12 25 19.5 73t7.5 89q0 39 -7.5 82t-17.5 65q-20 41 -56 64.5t-79 36t-89 16.5t-85 4h-86v158l323 403h-540v170h745v-123q0 -78 -51 -141l-250 -305q104 -16 191.5 -64.5t134.5 -146.5 q18 -39 28.5 -102.5t10.5 -122.5q0 -57 -9.5 -120t-29.5 -104q-63 -127 -168 -176t-230 -49q-150 0 -260 68q-113 72 -176 213z" />
<glyph unicode="&#xe028;" horiz-adv-x="1013" d="M2 0v172l604 860h178v-868h189l-51 -164h-138v-397h-172v397h-610zM207 164h405v584z" />
<glyph unicode="&#xe029;" horiz-adv-x="1009" d="M74 -141l157 69q41 -96 108 -136t169 -40q47 0 96 16.5t84 49.5q25 23 40 56.5t22.5 71.5t10.5 76.5t3 69.5t-2 68t-10.5 72.5t-23.5 67.5t-40 54q-35 31 -84 47.5t-96 16.5q-72 0 -132.5 -26.5t-105.5 -86.5h-157l51 727h729v-170h-569l-21 -313q92 43 205 43 q80 0 156.5 -26.5t136.5 -80.5q43 -37 68.5 -83t41 -97t20.5 -105.5t5 -107.5t-5 -108.5t-20.5 -109.5t-42 -102t-67.5 -85q-59 -53 -136 -81t-157 -28q-154 0 -262.5 68.5t-171.5 212.5z" />
<glyph unicode="&#xe02a;" horiz-adv-x="1028" d="M84 653v35q0 139 22.5 268t104.5 252q61 92 162.5 135t208.5 43q80 0 160.5 -24.5t142.5 -77.5l-113 -135q-39 35 -89 49t-101 14q-61 0 -126 -23.5t-102 -78.5q-43 -63 -66.5 -143t-23.5 -156q47 47 122 78t146 31q111 0 192 -33t132 -93.5t75.5 -144.5t24.5 -184 t-25.5 -189.5t-77.5 -156t-132 -105.5t-191 -39q-150 0 -237.5 61.5t-133.5 158t-60.5 217t-14.5 241.5zM270 463q0 -63 15.5 -119.5t47.5 -99.5t81 -68.5t116 -25.5q74 0 122 25.5t77 69.5t41 101t12 119q0 55 -10 107.5t-36.5 92.5t-72.5 64.5t-120 24.5q-70 0 -121 -24.5 t-85 -64.5t-50.5 -92.5t-16.5 -109.5z" />
<glyph unicode="&#xe02b;" horiz-adv-x="954" d="M37 862v170h905v-133q0 -94 -68 -162q-109 -109 -195.5 -238.5t-146 -274t-91 -299t-31.5 -314.5v-8h-172v8q0 356 134 679.5t376 571.5h-711z" />
<glyph unicode="&#xe02c;" horiz-adv-x="1007" d="M72 383q0 66 21.5 118t58 94t86 73.5t102.5 56.5q-104 47 -155.5 130t-51.5 196q0 76 30 137t81 105t118.5 68.5t143.5 24.5t142.5 -23.5t117.5 -67.5t81 -106.5t30 -137.5q0 -109 -53.5 -174.5t-141.5 -124.5q115 -51 183.5 -145.5t68.5 -219.5q0 -94 -32 -170t-89 -130 t-136 -83t-173 -29q-96 0 -175 29t-136.5 82t-89 128t-31.5 169zM244 383q0 -115 72.5 -174t189.5 -59t186.5 60t69.5 173q0 78 -43 134t-115 89l-129 58q-43 -16 -84 -43t-73.5 -64t-53 -81t-20.5 -93zM307 1051q0 -80 37 -122t98 -71l99 -43q25 12 53.5 32.5t53 48.5 t41 67t16.5 88q0 39 -17.5 69.5t-46.5 52t-64.5 33t-70.5 11.5t-70 -11.5t-63.5 -33t-47 -52t-18.5 -69.5z" />
<glyph unicode="&#xe02d;" horiz-adv-x="1026" d="M72 551q2 96 26.5 187t76.5 162t133 114t194 43q147 0 233 -62.5t132 -161t59.5 -220t13.5 -240.5v-66q0 -152 -24.5 -284t-81 -231t-146.5 -156.5t-221 -57.5q-92 0 -180 31t-154 96l125 121q80 -74 201 -74q84 0 142 40t95 102.5t53.5 137t16.5 144.5 q-57 -57 -128 -77.5t-142 -20.5q-111 0 -192 38t-132 103.5t-75.5 150.5t-24.5 181zM236 557q0 -61 13 -117.5t44 -99.5t81 -68.5t122 -25.5q70 0 119 24.5t79.5 67.5t44 99.5t13.5 119.5t-12.5 123.5t-42 108t-78 76t-119.5 28.5q-72 0 -121 -28.5t-82 -76t-47 -107.5 t-14 -124z" />
<glyph unicode="&#xe1a6;" horiz-adv-x="1583" d="M25 895v137h129v137q0 59 25.5 110.5t71.5 88.5t111.5 58.5t143.5 21.5q41 0 102.5 -9t117.5 -34t97 -66t41 -104v-320q63 78 142 110t155 32q98 0 191.5 -53.5t148.5 -151.5q39 -68 51.5 -142.5t12.5 -162.5v-68q0 -260 -123 -382t-375 -122q-104 0 -200.5 18.5 t-178.5 53.5v1176q-49 70 -182 69q-31 0 -62.5 -8t-56.5 -23.5t-41 -38t-16 -53.5v-137h221l-43 -137h-178v-895h-176v895h-129zM864 166q45 -20 98.5 -29.5t106.5 -9.5q45 0 87 6t79 23q45 18 75.5 52t47 77t24 91t7.5 93v90q0 68 -7.5 121t-25.5 94q-25 55 -77 93t-118 38 q-61 0 -111.5 -18.5t-87 -50t-61.5 -73.5t-37 -89v-508z" />
<glyph unicode="&#xe1a7;" horiz-adv-x="1542" d="M25 895v137h129v139q0 59 23.5 110.5t67.5 88.5t107.5 58.5t141.5 21.5q41 0 101 -9t115.5 -34t95.5 -66t40 -104v-332q63 78 133 102.5t145 24.5q98 0 188.5 -47t143.5 -145q37 -68 47 -142.5t10 -162.5v-535h-176v547q0 68 -4 121t-22 94q-25 55 -73 87t-114 32 q-125 0 -189.5 -62.5t-88.5 -156.5v-662h-176v1227q-27 37 -69 52t-107 15q-61 0 -112.5 -31.5t-51.5 -91.5v-139h221l-43 -137h-178v-895h-176v895h-129z" />
<glyph unicode="&#xe1f8;" horiz-adv-x="929" d="M25 895v137h129v137q0 119 82.5 199t242.5 80q41 0 102.5 -7t119 -25.5t98.5 -52.5t41 -89q0 -31 -29 -63.5t-70 -32.5q-43 0 -73 34q-37 39 -77 60.5t-112 21.5q-61 0 -105 -32.5t-44 -92.5v-137h202l-43 -137h-159v-895h-176v895h-129zM414 -268h112q127 0 127 123 v1177h178v-1177q0 -59 -20 -109.5t-57 -87.5t-85 -58.5t-104 -21.5q-29 0 -72.5 6t-78.5 19v129z" />
<glyph unicode="&#xe1f9;" horiz-adv-x="1429" d="M25 895v137h129v139q0 57 20.5 108.5t56 88.5t83.5 58.5t104 21.5q29 0 68.5 -6t74.5 -19v-129h-104q-127 0 -127 -123v-139h323v137q0 119 83 199t243 80q41 0 102.5 -7t118.5 -25.5t98 -52.5t41 -89q0 -31 -28.5 -63.5t-69.5 -32.5q-43 0 -74 34q-37 39 -76.5 60.5 t-111.5 21.5q-61 0 -105.5 -32.5t-44.5 -92.5v-137h203l-43 -137h-160v-895h-176v895h-323v-895h-176v895h-129zM913 -268h113q127 0 127 123v1177h178v-1177q0 -59 -20.5 -109.5t-57 -87.5t-85 -58.5t-103.5 -21.5q-29 0 -73 6t-79 19v129z" />
<glyph unicode="&#xe37f;" horiz-adv-x="2054" d="M123 614v263h53l70 -156l67 156h56v-263h-58v123h-8l-41 -88h-33l-39 88h-8v-123h-59zM399 715v61q0 47 30 74t71 27q35 0 61.5 -15.5t36.5 -50.5l-55 -20q-4 16 -15.5 24t-27.5 8q-20 0 -31.5 -12t-11.5 -31v-69q0 -20 12 -32.5t31 -12.5q16 0 27.5 8t15.5 24l55 -20 q-10 -35 -36.5 -50.5t-61.5 -15.5q-100 0 -101 103zM625 614v263h57v-107h86v107h186v-54h-129v-53h64l18 -49h-82v-55h129v-52h-186v107h-86v-107h-57zM983 614v263h117q35 0 59.5 -23t24.5 -57q0 -25 -13.5 -43.5t-33.5 -28.5l49 -111h-66l-41 101h-37v-101h-59zM1042 766 h48q14 0 24 7.5t10 23.5q0 27 -32 26h-50v-57zM1217 614v263h184v-54h-127v-53h61l19 -49h-80v-55h127v-52h-184zM1432 614v263h102q39 0 68.5 -21.5t29.5 -62.5v-91q0 -45 -32.5 -66.5t-71.5 -21.5h-96zM1489 666h37q29 0 40 15t11 40v49q0 53 -51 53h-37v-157zM1628 614 l103 263h45l100 -263h-51l-21 54h-102l-21 -54h-53zM1720 717h66l-29 82h-8zM1876 678h63l25 -64h-63z" />
<glyph unicode="&#xe389;" horiz-adv-x="1601" d="M74 702q0 150 57 282t155.5 229.5t230.5 153.5t284 56q150 0 283 -56t231 -153.5t155.5 -229.5t57.5 -282q0 -152 -57.5 -283.5t-155.5 -230t-231.5 -156t-282.5 -57.5q-152 0 -284 57.5t-230.5 156t-155.5 230.5t-57 283zM197 702q0 -125 47 -235.5t129 -192t192.5 -129 t235.5 -47.5t235.5 47.5t192.5 129t129 192.5t47 235q0 125 -47 235t-129 190.5t-192.5 126.5t-235.5 46t-235.5 -46t-192.5 -126.5t-129 -190.5t-47 -235zM604 721v135h303v-663h-198v528h-105zM668 1092q0 55 39 94t94 39t94 -39t39 -94t-39 -93t-94 -38t-94 37.5 t-39 93.5z" />
<glyph unicode="&#xe40c;" horiz-adv-x="2064" d="M51 1255v168h1270v-518q63 78 133 102.5t145 24.5q98 0 188.5 -47t143.5 -145q37 -68 47.5 -142.5t10.5 -162.5v-535h-177v547q0 68 -4 121t-22 94q-25 55 -73 87t-114 32q-125 0 -189 -62.5t-89 -156.5v-662h-176v1255h-434v-1255h-185v1255h-475z" />
<glyph unicode="&#xe40d;" horiz-adv-x="1366" d="M123 0v1423h184v-626q39 20 84 31.5t96 11.5h570v583h184v-1423h-184v670h-570q-86 0 -133 -46t-47 -132v-492h-184z" />
<glyph unicode="&#xe40e;" horiz-adv-x="1386" d="M37 0l530 1423h230l557 -1423h-193l-166 430h-381q-39 0 -82 -7t-80.5 -24.5t-68.5 -45t-45 -66.5l-105 -287h-196zM436 561q84 23 166 23h334l-195 499l-57 207l-55 -207z" />
<glyph unicode="&#xe40f;" horiz-adv-x="1269" d="M123 0v1423h551q88 0 167 -20.5t138 -65.5t94 -114.5t35 -167.5q0 -92 -28.5 -165t-100.5 -128q102 -53 159.5 -146.5t57.5 -209.5q0 -109 -44 -186t-115.5 -126t-164 -71.5t-188.5 -22.5h-561zM307 168h377q59 0 115.5 11t99.5 39t69.5 75t26.5 119q0 61 -23.5 107 t-62.5 77t-90 46t-106 15h-226q-86 0 -133 -46t-47 -132v-311zM307 782q39 20 84 31.5t96 11.5h162q49 0 97.5 14.5t86 42t60 70.5t22.5 103q0 57 -18 96t-51 62.5t-75 32.5t-91 9h-373v-473z" />
<glyph unicode="&#xe410;" horiz-adv-x="1087" d="M123 0v1423h964l-53 -168h-727v-458q39 20 84 31.5t96 11.5h496v-170h-496q-86 0 -133 -46t-47 -132v-492h-184z" />
<glyph unicode="&#xe411;" horiz-adv-x="1198" d="M123 0v1423h657q205 0 308.5 -115.5t103.5 -306.5q0 -96 -23.5 -173.5t-74 -133t-128 -86t-186.5 -30.5h-293q-86 0 -133 -46.5t-47 -132.5v-399h-184zM307 705q39 20 84 31.5t96 11.5h261q141 0 200.5 65.5t59.5 187.5q0 119 -67 186.5t-193 67.5h-441v-550z" />
<glyph unicode="&#xe412;" horiz-adv-x="1314" d="M123 0v1423h647q90 0 166 -26.5t130 -76.5t85 -123t31 -165q0 -182 -103.5 -287.5t-290.5 -115.5l304 -434q35 -47 64.5 -56.5t72.5 -9.5v-129q-47 -25 -88 -25q-59 0 -109.5 39t-85.5 90l-334 469q-23 29 -57.5 41.5t-69.5 12.5q-86 0 -132 -46t-46 -132v-449h-184z M307 750q39 20 84 31.5t96 11.5h250q133 0 196.5 55t63.5 184q0 119 -60 171t-175 52h-455v-505z" />
<glyph unicode="&#xe413;" horiz-adv-x="1222" d="M123 0v1423h1024l-53 -168h-787v-458q39 20 84 31.5t96 11.5h525v-170h-525q-86 0 -133 -46t-47 -132v-324h875v-168h-1059z" />
<glyph unicode="&#xe414;" horiz-adv-x="1243" d="M123 0v1423h924l-54 -168h-686v-458q39 20 84 31.5t96 11.5h252q213 0 331 -97.5t118 -320.5q0 -113 -32 -192.5t-92 -131t-145 -75t-190 -23.5h-606zM307 168h428q59 0 110.5 13.5t88.5 44t57.5 78.5t20.5 118q0 141 -69 195.5t-198 54.5h-258q-86 0 -133 -46t-47 -132 v-326z" />
<glyph unicode="&#xe415;" horiz-adv-x="1466" d="M47 1423h531v-626q39 20 84 31.5t96 11.5h256q217 0 323.5 -103.5t106.5 -308.5t-112.5 -316.5t-325.5 -111.5h-613v1255h-293zM578 168h417q139 0 202 65.5t63 194.5t-57.5 185.5t-198.5 56.5h-246q-86 0 -133 -46t-47 -132v-324z" />
<glyph unicode="&#xe416;" horiz-adv-x="1673" d="M123 0v1423h184v-645q39 20 84 31.5t96 11.5h265q430 0 430 -407q0 -205 -113 -309.5t-328 -104.5h-618zM307 168h426q139 0 201.5 59.5t62.5 188.5t-57 183t-197 54h-256q-86 0 -133 -46t-47 -132v-307zM1364 0v1423h184v-1423h-184z" />
<glyph unicode="&#xe417;" horiz-adv-x="1181" d="M123 0v1423h184v-626q39 20 84 31.5t96 11.5h246q215 0 328 -105.5t113 -310.5t-118 -314.5t-333 -109.5h-600zM307 168h408q276 0 276 256q0 129 -63.5 187.5t-202.5 58.5h-238q-86 0 -133 -46t-47 -132v-324z" />
<glyph unicode="&#xe418;" horiz-adv-x="1363" d="M86 0v127q41 0 76 9t67 57l295 436q-186 10 -288.5 108.5t-102.5 288.5q0 102 33 177t91 124t139 72.5t177 23.5h666v-1423h-188v449q0 86 -47.5 132t-133.5 46h-43q-35 0 -71.5 -13.5t-57.5 -42.5l-323 -467q-37 -53 -85 -91t-108 -38q-20 0 -46.5 6.5t-49.5 18.5z M317 1026q0 -66 17.5 -111t51.5 -71.5t83 -37.5t111 -11h311q106 0 160 -43v503h-471q-117 0 -190 -53t-73 -176z" />
<glyph unicode="&#xe419;" horiz-adv-x="1099" d="M74 270q0 129 84 208t221 104l407 73v41q0 111 -66.5 160t-170.5 51q-94 0 -162 -22.5t-147 -69.5l-76 131q49 29 93 49.5t90 34.5t95.5 20.5t106.5 6.5q86 0 160.5 -23.5t131 -71t89.5 -117t33 -161.5v-448q0 -76 14 -126.5t45 -109.5h-188q-14 20 -24.5 56t-12.5 65 q-55 -41 -121 -74q-55 -29 -126 -50.5t-147 -21.5q-70 0 -130 19.5t-104 56.5t-69.5 92.5t-25.5 126.5zM256 272q0 -39 15.5 -66.5t40 -45t55 -25.5t63.5 -8q41 0 101.5 21.5t117.5 50.5q68 33 137 73v246l-383 -84q-59 -12 -103 -54t-44 -108z" />
<glyph unicode="&#xe41a;" horiz-adv-x="1290" d="M63 287v170h189v133h-189v170h189v637h598q207 0 313.5 -99.5t106.5 -291.5q0 -193 -101.5 -304.5t-318.5 -111.5h-414v-133h414v-170h-414v-287h-184v287h-189zM436 760h381q141 0 204.5 61.5t63.5 184.5q0 119 -70.5 171t-197.5 52h-381v-469z" />
<glyph unicode="&#xe41b;" horiz-adv-x="1038" d="M96 1372l162 76q31 -66 45 -136.5t14 -144.5v-270q63 78 142.5 108.5t154.5 30.5q98 0 191.5 -53t148.5 -152q39 -68 51.5 -142.5t12.5 -162.5v-47q0 -260 -123 -382t-375 -122q-104 0 -200.5 19.5t-178.5 54.5v1118q0 53 -11 105.5t-34 99.5zM317 166q45 -20 98.5 -29.5 t106.5 -9.5q45 0 87 6t79 23q45 18 76 52t47 77t23.5 91t7.5 93v70q0 68 -7.5 121t-25.5 94q-25 55 -77 93t-118 38q-61 0 -111 -18.5t-87 -50.5t-62 -74t-37 -89v-487z" />
<glyph unicode="&#xe41c;" horiz-adv-x="1060" d="M27 436v99q0 262 129 392t385 130q96 0 196 -39v149q0 53 -11 105.5t-34 99.5l162 76q31 -66 45 -136.5t14 -144.5v-931q0 -76 14.5 -126.5t45.5 -109.5h-189q-14 20 -24 56t-12 65q-41 -41 -91 -74q-41 -29 -98 -50.5t-121 -21.5q-111 0 -188.5 37t-127.5 99.5 t-72.5 146.5t-22.5 178zM203 426q0 -59 12 -112.5t41 -95.5t73 -66.5t109 -24.5q59 0 139 38t160 126v567q-39 23 -96 35t-117 12q-154 0 -237.5 -95t-83.5 -261v-123z" />
<glyph unicode="&#xe41d;" horiz-adv-x="1015" d="M96 1372l162 76q31 -66 45 -136.5t14 -144.5v-262q63 78 140.5 102.5t152.5 24.5q86 0 156 -29.5t118 -82t74.5 -123t26.5 -152.5v-645h-176v668q0 96 -53.5 154.5t-151.5 58.5q-125 0 -193.5 -62.5t-93.5 -156.5v-662h-176v1167q0 53 -11 105.5t-34 99.5z" />
<glyph unicode="&#xe41e;" horiz-adv-x="933" d="M94 1372l162 76q31 -66 45 -136.5t14 -144.5v-577h86l312 442h180l-344 -502l250 -350q18 -29 54 -41t75 -12v-127q-49 -25 -86 -25q-55 0 -97.5 38t-76.5 91l-269 369h-84v-473h-176v1167q0 53 -11 105.5t-34 99.5z" />
<glyph unicode="&#xe41f;" horiz-adv-x="524" d="M68 1372l161 76q31 -66 45.5 -136.5t14.5 -144.5v-917q0 -123 127 -123h104v-129q-35 -12 -74.5 -18.5t-68.5 -6.5q-55 0 -103.5 21.5t-84 58.5t-56 87t-20.5 110v917q0 53 -11.5 105.5t-33.5 99.5z" />
<glyph unicode="&#xe420;" horiz-adv-x="546" d="M27 895v137h116v17q0 53 -11 105t-34 99l162 76q31 -66 45 -136.5t14 -143.5v-17h189l-43 -137h-146v-645q0 -61 43.5 -92t104.5 -31h55v-129q-47 -16 -74.5 -19.5t-44.5 -3.5q-53 0 -101 21.5t-83 59.5t-55.5 88.5t-20.5 107.5v643h-116z" />
<glyph unicode="&#xe421;" horiz-adv-x="989" d="M96 981l162 76q31 -66 45 -136.5t14 -144.5v-147h295q80 0 147.5 -16.5t116 -54.5t76 -98.5t27.5 -146.5t-29.5 -145t-81 -96t-119 -54.5t-143.5 -17.5h-465v776q0 53 -11 105.5t-34 99.5zM317 152h289q41 0 78 7t63.5 25.5t42 50t15.5 80.5q0 94 -53.5 131t-139.5 37 h-295v-331z" />
<glyph unicode="&#xe422;" horiz-adv-x="1427" d="M104 981l162 76q31 -66 45.5 -136.5t14.5 -144.5v-141h303q80 0 146.5 -18.5t114.5 -57.5t75.5 -100.5t27.5 -147.5t-29.5 -145.5t-81 -96t-119 -53t-142.5 -16.5h-471v776q0 53 -11.5 105.5t-34.5 99.5zM326 152h295q43 0 78.5 7t61 25.5t41 49t15.5 77.5q0 88 -53 130 t-135 42h-303v-331zM1126 0v1006l177 51v-1057h-177z" />
<glyph unicode="&#xe423;" horiz-adv-x="1302" d="M25 895v137h129v139q0 57 20.5 108.5t56 88.5t83.5 58.5t104 21.5q29 0 68.5 -6t74.5 -19v-129h-104q-127 0 -127 -123v-139h528q31 -49 41 -108q39 61 97.5 97t131.5 36q80 0 170 -45l-61 -164q-63 33 -117 33q-53 0 -93 -28t-65.5 -75t-38 -111.5t-12.5 -138.5v-528 h-176v780q0 55 -12 115h-393v-895h-176v895h-129z" />
<glyph unicode="&#xe424;" horiz-adv-x="886" d="M70 1352q0 41 28.5 68.5t69.5 27.5t69.5 -27.5t28.5 -68.5t-28.5 -69t-69.5 -28t-69.5 28t-28.5 69zM80 0v1032h399v221l176 50v-271h189l-43 -137h-146v-645q0 -61 43 -92t105 -31h55v-129l-55 -14q-31 -8 -64 -9q-53 0 -101 21.5t-83 59.5t-55.5 88.5t-20.5 107.5v643 h-223v-895h-176z" />
<glyph unicode="&#xe425;" horiz-adv-x="919" d="M70 1352q0 41 28.5 68.5t69.5 27.5t69.5 -27.5t28.5 -68.5t-28.5 -69t-69.5 -28t-69.5 28t-28.5 69zM80 0v1032h414v139q0 57 20.5 108.5t56 88.5t83.5 58.5t104 21.5q29 0 68.5 -6t74.5 -19v-129h-104q-127 0 -127 -123v-139h221l-43 -137h-178v-895h-176v895h-238v-895 h-176z" />
<glyph unicode="&#xe426;" horiz-adv-x="964" d="M27 895v137h116v221l176 50v-271h545v-1032h-176v895h-369v-645q0 -61 43.5 -92t104.5 -31h55v-129l-55 -14q-31 -8 -64 -9q-53 0 -101 21.5t-83 59.5t-55.5 88.5t-20.5 107.5v643h-116zM678 1352q0 41 28.5 68.5t69.5 27.5t69.5 -27.5t28.5 -68.5t-28.5 -69t-69.5 -28 t-69.5 28t-28.5 69z" />
<glyph unicode="&#xe427;" horiz-adv-x="3936" d="M70 1008l157 49l244 -799l221 633h135l222 -633l243 799h144l243 -799l222 633h135l221 -633l244 799h143l244 -799l221 633h135l221 -633l244 799l158 -49l-306 -1008h-174l-211 586l-210 -586h-175l-219 723l-219 -723h-174l-211 586l-211 -586h-174l-219 723 l-219 -723h-174l-211 586l-211 -586h-174z" />
<glyph unicode="&#xe428;" horiz-adv-x="1019" d="M113 252v1147l176 49v-1198q0 -59 43 -91t104 -32h201q-27 59 -27 125v1147l176 49v-1198q0 -59 43 -91t105 -32h84v-127l-86 -18q-31 -6 -60 -7q-88 0 -155 52q-72 -25 -164 -38.5t-178 -13.5q-55 0 -103.5 21.5t-83 58.5t-55 87.5t-20.5 109.5z" />
<glyph unicode="&#xe429;" horiz-adv-x="2902" d="M106 981l162 76q16 -29 28.5 -57.5t20.5 -63.5h13q20 25 50 46.5t62.5 37.5t66.5 26.5t66 10.5q88 0 165 -29t137 -113q82 74 152.5 108t162.5 34q104 0 179 -38t122 -106q33 35 73 61.5t81 45t81.5 28t75.5 9.5q88 0 165 -29t136 -113q82 74 153 108t163 34 q174 0 269 -101.5t95 -265.5v-690h-176v692q0 213 -201 213q-41 0 -76.5 -10t-66.5 -25.5t-54.5 -34t-37.5 -32.5v-803h-176v737q0 78 -52.5 123t-144.5 45q-43 0 -84 -9t-74.5 -24.5t-60.5 -33t-41 -31.5q16 -55 16 -117v-690h-176v692q0 213 -200 213q-41 0 -77 -10 t-66.5 -25.5t-54.5 -34t-38 -32.5v-803h-176v737q0 78 -52 123t-145 45q-92 0 -152.5 -35.5t-88.5 -66.5v-803h-176v778q0 109 -48 203z" />
<glyph unicode="&#xe42a;" horiz-adv-x="2160" d="M123 0v1423h184v-626q39 20 84 31.5t96 11.5h570v583h1024l-53 -168h-787v-415h705v-170h-705v-502h875v-168h-1059v670h-570q-86 0 -133 -46t-47 -132v-492h-184z" />
<glyph unicode="&#xe42b;" horiz-adv-x="1769" d="M123 0v1006l176 51v-813l483 788h191v-788l483 788h191v-1032h-177v774l-481 -774h-192v774l-482 -774h-192z" />
<glyph unicode="&#xe42c;" horiz-adv-x="2328" d="M96 981l162 76q16 -29 28.5 -57.5t20.5 -63.5h12q43 53 120 87t147 34q113 0 194.5 -40t132.5 -110q33 37 73 64.5t83 46t84 29t78 10.5q88 0 165 -29t136 -113q82 74 152.5 108t162.5 34q174 0 269.5 -101.5t95.5 -265.5v-690h-176v692q0 213 -201 213q-41 0 -77 -10 t-66.5 -25.5t-54 -34t-38.5 -32.5v-803h-176v737q0 78 -52 123t-144 45q-90 0 -162 -34.5t-100 -65.5q10 -33 15 -66.5t5 -68.5v-670h-176v672q0 106 -64.5 169.5t-162.5 63.5q-92 0 -163 -35.5t-100 -66.5v-803h-176v778q0 109 -47 203z" />
<glyph unicode="&#xe42d;" horiz-adv-x="1085" d="M70 1352q0 41 28.5 68.5t69.5 27.5t69.5 -27.5t28.5 -68.5t-28.5 -69t-69.5 -28t-69.5 28t-28.5 69zM227 0v1032h176v-1032h-176zM434 1352q0 41 28.5 68.5t69.5 27.5t70 -27.5t29 -68.5t-29 -69t-70 -28t-69.5 28t-28.5 69zM680 0v1032h176v-1032h-176zM799 1352 q0 41 28.5 68.5t69.5 27.5t69.5 -27.5t28.5 -68.5t-28.5 -69t-69.5 -28t-69.5 28t-28.5 69z" />
<glyph unicode="&#xe42e;" horiz-adv-x="391" d="M70 981l161 76q31 -66 45.5 -136.5t14.5 -144.5v-776h-176v776q0 53 -11.5 105.5t-33.5 99.5zM104 1352q0 41 29 68.5t70 27.5t69.5 -27.5t28.5 -68.5t-28.5 -69t-69.5 -28t-70 28t-29 69z" />
<glyph unicode="&#xe42f;" horiz-adv-x="913" d="M45 453q0 23 12 57h774q12 -35 13 -57q0 -27 -13 -58h-774q-12 31 -12 58zM121 633v94q29 0 61.5 9t46.5 30l129 178q-100 14 -154 72.5t-54 152.5q0 113 73.5 170.5t179.5 57.5h365v-764h-131v299h-109q-16 0 -31.5 -6t-27.5 -23l-131 -192q-29 -41 -67 -69t-85 -28 q-16 0 -32.5 5.5t-32.5 13.5zM281 1169q0 -66 34.5 -98.5t94.5 -32.5h227v252h-227q-55 0 -92 -30.5t-37 -90.5z" />
<glyph unicode="&#xe430;" horiz-adv-x="1705" d="M74 453q0 23 12 57h1524q12 -35 12 -57q0 -27 -12 -58h-1524q-12 31 -12 58zM119 850q0 49 18.5 91t51 72.5t76.5 48t97 17.5h285v68q0 78 -48 118t-128 40q-72 0 -115 -33t-65 -96l-127 30q35 102 115.5 155.5t191.5 53.5q63 0 118.5 -17.5t97.5 -52t66.5 -87 t24.5 -119.5v-332q0 -57 10.5 -93t32.5 -81h-139q-10 16 -17.5 41.5t-9.5 46.5q-43 -31 -90 -53q-41 -20 -93 -37t-107 -17q-51 0 -96.5 17.5t-78 48.5t-52 74t-19.5 96zM248 848q0 -55 43 -89t90 -34q29 0 75 16.5t89 36.5q51 23 102 56v133h-285q-45 0 -79.5 -34 t-34.5 -85zM899 633v94q29 0 62 9.5t47 29.5q35 47 64.5 89t64.5 89q-100 14 -154.5 72.5t-54.5 152.5q0 113 73.5 170.5t180.5 57.5h364v-764h-131v299h-108q-16 0 -31.5 -6t-28.5 -23l-131 -192q-29 -41 -66.5 -69t-84.5 -28q-16 0 -33 5.5t-33 13.5zM1059 1169 q0 -66 34.5 -98.5t94.5 -32.5h227v252h-227q-55 0 -92 -30.5t-37 -90.5z" />
<glyph unicode="&#xe431;" horiz-adv-x="876" d="M68 453q0 22 12 57h731q12 -35 12 -57q0 -27 -12 -58h-731q-12 31 -12 58zM92 1006v16q0 76 10.5 144.5t71.5 136.5q51 57 123 84.5t147 27.5q86 0 152 -26.5t110 -75.5t67.5 -116t23.5 -146v-70h-574q0 -133 61.5 -193.5t186.5 -60.5q59 0 102 24.5t76 69.5l115 -47 q-43 -74 -123 -117t-178 -43q-102 0 -172 28t-115 79t-64.5 124t-19.5 161zM223 1087h443v15q0 39 -15.5 74.5t-44 64.5t-69.5 46.5t-93 17.5q-49 0 -90 -16.5t-69.5 -45.5t-45 -65.5t-16.5 -75.5v-15z" />
<glyph unicode="&#xe432;" horiz-adv-x="1728" d="M86 453q0 22 12 57h1547q12 -35 12 -57q0 -27 -12 -58h-1547q-12 31 -12 58zM111 1016v28q2 78 19 139.5t77 125.5q53 55 118.5 80.5t141.5 25.5t140.5 -24.5t117.5 -77.5q55 -55 78.5 -122t23.5 -144v-31q0 -84 -18.5 -157t-77.5 -136q-53 -55 -119.5 -82t-144.5 -27 q-74 0 -142.5 28t-121.5 81q-57 59 -74.5 134t-17.5 159zM231 1010q0 -59 11.5 -110.5t39 -90.5t73.5 -60.5t114 -21.5t113 23.5t72.5 63.5t40 92.5t12.5 109.5v28q0 111 -60.5 185t-177.5 74q-119 0 -178.5 -73t-59.5 -186v-34zM922 1004v16q0 76 10 145.5t72 134.5 q53 57 123.5 86t146.5 29q86 0 151.5 -26.5t109.5 -75.5t67.5 -116t23.5 -146v-70h-573q0 -133 61.5 -193.5t185.5 -60.5q59 0 102.5 24.5t76.5 69.5l114 -47q-43 -74 -121.5 -117t-179.5 -43q-102 0 -171.5 28t-114.5 79t-64.5 122.5t-19.5 160.5zM1053 1087h442v15 q0 37 -15.5 73.5t-43 64.5t-69.5 45.5t-93 17.5q-49 0 -89 -16.5t-70 -44.5t-46 -64.5t-16 -75.5v-15z" />
<glyph unicode="&#xe433;" horiz-adv-x="1484" d="M84 453q0 22 12 57h1309q12 -35 12 -57q0 -27 -12 -58h-1309q-12 31 -12 58zM109 1014v30q0 80 21.5 149t63.5 118t104 76.5t146 27.5q98 0 169 -39t114 -106q8 10 14.5 17t12.5 16q53 57 124.5 84.5t145.5 27.5q170 0 261 -99t91 -261v-76h-569q0 -45 8 -99.5t39 -86.5 q66 -72 197 -72q59 0 102 26.5t80 67.5l115 -43q-45 -76 -125 -117t-181 -41q-86 0 -165.5 30t-122.5 83q-6 10 -12.5 18.5t-10.5 18.5q-41 -70 -110.5 -110t-174.5 -40q-92 0 -155.5 31t-104.5 84t-59 126t-18 159zM227 1014q0 -59 8.5 -111.5t33 -91.5t67.5 -61.5 t113 -22.5q68 0 110.5 23.5t67 62.5t34 91.5t9.5 109.5v33q0 55 -13.5 102t-40 82t-68.5 54.5t-99 19.5q-119 0 -170.5 -74t-51.5 -187v-30zM807 1090h440v18q0 39 -15 75t-44 63.5t-70 45t-92 17.5q-98 0 -158.5 -59.5t-60.5 -141.5v-18z" />
<glyph unicode="&#xe434;" horiz-adv-x="839" d="M45 453q0 22 12 57h725q12 -35 13 -57q0 -27 -13 -58h-725q-12 31 -12 58zM109 633v745l133 37v-600l354 582h141v-764h-133v573l-354 -573h-141zM203 1702h76q0 -53 41.5 -76.5t89.5 -23.5q45 0 87 23.5t42 76.5h79q0 -45 -17 -80t-46 -58.5t-66.5 -35.5t-78.5 -12 q-84 0 -145.5 48t-61.5 138z" />
<glyph unicode="&#xe435;" horiz-adv-x="1824" d="M31 453q0 22 12 57h1698q12 -35 12 -57q0 -27 -12 -58h-1698q-12 31 -12 58zM74 631v745l131 39v-313h225q117 0 193.5 -55.5t76.5 -184.5q0 -63 -22.5 -107t-60 -72t-88 -40t-105.5 -12h-350zM205 743h219q61 0 103 23.5t42 95.5q0 66 -40 96.5t-99 30.5h-225v-246z M799 631v745l131 39v-784h-131zM1071 633v745l133 37v-600l355 582h141v-764h-133v573l-355 -573h-141zM1178 1702h75q0 -53 42 -76.5t89 -23.5q45 0 87 23.5t42 76.5h80q0 -45 -17 -80t-46 -58.5t-67 -35.5t-79 -12q-84 0 -145 48t-61 138z" />
<glyph unicode="&#xe436;" horiz-adv-x="1624" d="M29 453q0 22 12 57h1501q12 -35 12 -57q0 -27 -12 -58h-1501q-12 31 -12 58zM53 1016v28q2 78 19.5 139.5t77.5 125.5q53 55 118.5 80.5t141.5 25.5t140 -24.5t118 -77.5q55 -55 78.5 -122t23.5 -144v-31q0 -84 -18.5 -157t-77.5 -136q-53 -55 -120 -82t-144 -27 q-74 0 -142.5 28t-122.5 81q-57 59 -74.5 134t-17.5 159zM174 1010q0 -59 11.5 -110.5t39 -90.5t73.5 -60.5t114 -21.5t112.5 23.5t72.5 63.5t40 92.5t12 109.5v28q0 111 -60.5 185t-176.5 74q-119 0 -178.5 -73t-59.5 -186v-34zM872 633v745l134 37v-600l354 582h141v-764 h-133v573l-354 -573h-142zM979 1702h76q0 -53 42 -76.5t89 -23.5q45 0 87 23.5t42 76.5h80q0 -45 -17.5 -80t-46 -58.5t-66.5 -35.5t-79 -12q-84 0 -145.5 48t-61.5 138z" />
<glyph unicode="&#xe437;" horiz-adv-x="1728" d="M86 453q0 22 12 57h1544q12 -35 13 -57q0 -27 -13 -58h-1544q-12 31 -12 58zM111 1006v16q0 76 10 144.5t72 136.5q51 57 122.5 84.5t147.5 27.5q86 0 151.5 -26.5t109.5 -75.5t67.5 -116t23.5 -146v-70h-573q0 -133 61.5 -193.5t185.5 -60.5q59 0 102.5 24.5t76.5 69.5 l114 -47q-43 -74 -122.5 -117t-178.5 -43q-102 0 -171.5 28t-114.5 79t-64.5 124t-19.5 161zM242 1087h442v15q0 39 -15.5 74.5t-44 64.5t-69.5 46.5t-92 17.5q-49 0 -90 -16.5t-70 -45.5t-45 -65.5t-16 -75.5v-15zM924 1006v16q0 76 10 144.5t72 136.5q51 57 122.5 84.5 t147.5 27.5q86 0 151.5 -26.5t109.5 -75.5t67.5 -116t23.5 -146v-70h-573q0 -133 61.5 -193.5t186.5 -60.5q59 0 102 24.5t76 69.5l114 -47q-43 -74 -122.5 -117t-178.5 -43q-102 0 -171.5 28t-114.5 79t-64.5 124t-19.5 161zM1055 1087h442v15q0 39 -15.5 74.5t-44 64.5 t-69.5 46.5t-92 17.5q-49 0 -90 -16.5t-70 -45.5t-45 -65.5t-16 -75.5v-15z" />
<glyph unicode="&#xe438;" horiz-adv-x="1691" d="M76 453q0 23 12 57h1503q12 -35 13 -57q0 -27 -13 -58h-1503q-12 31 -12 58zM117 633v94q29 0 61.5 9.5t46.5 29.5q35 47 64.5 89t64.5 89q-100 14 -154.5 72.5t-54.5 152.5q0 113 74 170.5t180 57.5h365v-764h-131v299h-109q-16 0 -31.5 -6t-27.5 -23l-131 -192 q-27 -41 -66 -69t-86 -28q-16 0 -32.5 5.5t-32.5 13.5zM276 1169q0 -66 35 -98.5t95 -32.5h227v252h-227q-55 0 -92.5 -30.5t-37.5 -90.5zM881 633v94q29 0 61.5 9.5t46.5 29.5q35 47 64.5 89t64.5 89q-100 14 -154.5 72.5t-54.5 152.5q0 113 74 170.5t180 57.5h365v-764 h-131v299h-109q-16 0 -31.5 -6t-27.5 -23l-131 -192q-27 -41 -66 -69t-86 -28q-16 0 -32.5 5.5t-32.5 13.5zM1040 1169q0 -66 35 -98.5t94 -32.5h228v252h-228q-55 0 -92 -30.5t-37 -90.5z" />
<glyph unicode="&#xe439;" horiz-adv-x="1622" d="M31 453q0 22 12 57h1499q12 -35 12 -57q0 -27 -12 -58h-1499q-12 31 -12 58zM94 633v745l133 37v-600l355 582h141v-764h-133v573l-354 -573h-142zM868 633v745l133 37v-600l355 582h141v-764h-133v573l-354 -573h-142zM963 1702h75q0 -53 42 -76.5t89 -23.5 q45 0 87 23.5t42 76.5h80q0 -45 -17.5 -80t-46 -58.5t-66.5 -35.5t-79 -12q-84 0 -145 48t-61 138z" />
<glyph unicode="&#xe43a;" horiz-adv-x="1181" d="M25 453q0 22 12 57h1085q12 -35 13 -57q0 -27 -13 -58h-1085q-12 31 -12 58zM49 774l94 62q39 -49 88.5 -79t141.5 -30q25 0 53.5 5t54 18.5t42 37t16.5 62.5q0 45 -35 68.5t-88.5 37t-113.5 25.5t-113.5 36.5t-88 67.5t-34.5 119q0 59 28.5 99t72.5 65t95 36t98 11 q74 0 141.5 -28.5t116.5 -81.5l-79 -74q-23 27 -66 49.5t-115 22.5q-25 0 -53.5 -5.5t-53 -17.5t-40.5 -33.5t-16 -52.5q0 -37 35.5 -58.5t88 -36t115 -28.5t114.5 -37.5t88 -61.5t36 -102q0 -121 -79 -188.5t-228 -67.5q-117 0 -193 38t-123 122zM715 1296v101h86v166 l131 36v-202h141l-33 -101h-108v-477q0 -47 32.5 -69.5t75.5 -22.5h43v-96l-43 -10q-23 -6 -45 -7q-82 0 -138 59.5t-56 147.5v475h-86z" />
<glyph unicode="&#xe43b;" horiz-adv-x="1636" d="M18 453q1 22 13 57h1511q12 -35 12 -57q0 -27 -12 -58h-1511q-12 31 -13 58zM61 1358l121 57q10 -23 19.5 -44t15.5 -48q35 43 96.5 67.5t110.5 24.5q70 0 125 -22.5t93 -60.5t57.5 -90t19.5 -114v-495h-129v497q0 78 -48 126.5t-120 48.5q-68 0 -118 -27t-77 -68v-577 h-131v575q0 39 -8 78t-27 72zM819 956v84q0 66 11.5 121.5t39.5 104.5q41 74 112 111.5t142 37.5q55 0 114.5 -22.5t104.5 -81.5v356l134 37v-897q0 -55 10 -92t33 -82h-140q-10 14 -18 40.5t-10 49.5q-31 -33 -68 -55q-31 -20 -72 -37t-88 -17q-82 0 -139 27t-94 74 t-54.5 108.5t-17.5 132.5zM948 948q0 -43 9.5 -84t31 -71.5t55 -49t80.5 -18.5q43 0 102.5 28.5t116.5 94.5v282q-16 72 -70 123.5t-149 51.5q-47 0 -88 -29t-57 -70q-14 -31 -22.5 -70.5t-8.5 -88.5v-99z" />
<glyph unicode="&#xe43c;" horiz-adv-x="1392" d="M14 453q1 22 13 57h1276q12 -35 12 -57q0 -27 -12 -58h-1276q-12 31 -13 58zM94 1360l117 55q10 -20 20.5 -46t14.5 -52q29 45 71.5 71.5t98.5 26.5q59 0 125 -33l-45 -122q-23 14 -44.5 19t-41.5 5q-41 0 -70 -20.5t-48.5 -55t-28.5 -82t-9 -102.5v-391h-129v577 q0 78 -31 150zM575 956v84q0 66 11.5 121.5t40.5 104.5q41 74 111.5 111.5t142.5 37.5q55 0 114.5 -22.5t104.5 -81.5v356l133 37v-897q0 -55 10 -92t33 -82h-139q-10 14 -18.5 40.5t-10.5 49.5q-31 -33 -68 -55q-31 -20 -71.5 -37t-87.5 -17q-82 0 -139.5 27t-94.5 74 t-54.5 108.5t-17.5 132.5zM705 948q0 -43 9 -84t30.5 -71.5t55.5 -49t81 -18.5q43 0 102 28.5t117 94.5v282q-16 72 -70.5 123.5t-148.5 51.5q-47 0 -88 -29t-58 -70q-14 -31 -22 -70.5t-8 -88.5v-99z" />
<glyph unicode="&#xe43d;" horiz-adv-x="1439" d="M82 453q0 22 12 57h1278q12 -35 12 -57q0 -27 -12 -58h-1278q-12 31 -12 58zM106 1006v16q0 76 10.5 144.5t71.5 136.5q51 57 123 84.5t148 27.5q86 0 151.5 -26.5t109.5 -75.5t67.5 -116t23.5 -146v-70h-573q0 -133 61 -193.5t186 -60.5q59 0 102.5 24.5t76.5 69.5 l114 -47q-43 -74 -123 -117t-178 -43q-102 0 -171.5 28t-115 79t-65 124t-19.5 161zM238 1087h442v15q0 39 -15.5 74.5t-44 64.5t-69.5 46.5t-92 17.5q-49 0 -90 -16.5t-70 -45.5t-45 -65.5t-16 -75.5v-15zM905 1360q31 -72 31 -150v-577h129v391q0 55 9 102.5t28.5 82 t48.5 55t70 20.5q20 0 41.5 -5t44.5 -19l45 122q-66 33 -125 33q-55 0 -98.5 -26.5t-71.5 -71.5q-4 27 -14.5 52.5t-20.5 45.5z" />
<glyph unicode="&#xe43e;" horiz-adv-x="2215" d="M92 453q0 22 12 57h2024q12 -35 12 -57q0 -27 -12 -58h-2024q-12 31 -12 58zM117 1006v16q0 76 10 144.5t72 136.5q51 57 122.5 84.5t147.5 27.5q86 0 151.5 -26.5t109.5 -75.5t67.5 -116t23.5 -146v-70h-573q0 -133 61.5 -193.5t186.5 -60.5q59 0 102 24.5t76 69.5 l114 -47q-43 -74 -122.5 -117t-178.5 -43q-102 0 -171.5 28t-114.5 79t-64.5 124t-19.5 161zM248 1087h442v15q0 39 -15.5 74.5t-44 64.5t-69.5 46.5t-92 17.5q-49 0 -90 -16.5t-69.5 -45.5t-45 -65.5t-16.5 -75.5v-15zM913 1360q31 -72 31 -150v-577h129v391 q0 55 9.5 102.5t28.5 82t48 55t70 20.5q20 0 41.5 -5t44.5 -19l45 122q-66 33 -125 33q-55 0 -98 -26.5t-72 -71.5q-4 27 -14.5 52.5t-20.5 45.5zM1395 1006v16q0 76 10 144.5t72 136.5q51 57 122.5 84.5t147.5 27.5q86 0 151.5 -26.5t109.5 -75.5t67.5 -116t23.5 -146v-70 h-573q0 -133 61.5 -193.5t186.5 -60.5q59 0 102 24.5t76 69.5l114 -47q-43 -74 -122.5 -117t-178.5 -43q-102 0 -171.5 28t-114.5 79t-64.5 124t-19.5 161zM1526 1087h442v15q0 39 -15.5 74.5t-44 64.5t-69.5 46.5t-92 17.5q-49 0 -90 -16.5t-69.5 -45.5t-45 -65.5 t-16.5 -75.5v-15z" />
<glyph unicode="&#xe43f;" horiz-adv-x="2119" d="M90 453q0 22 12 57h1915q12 -35 13 -57q0 -27 -13 -58h-1915q-12 31 -12 58zM115 1006v16q0 76 10 144.5t72 136.5q51 57 122.5 84.5t147.5 27.5q86 0 151.5 -26.5t109.5 -75.5t67.5 -116t23.5 -146v-70h-573q0 -133 61.5 -193.5t186.5 -60.5q59 0 102 24.5t76 69.5 l114 -47q-43 -74 -122.5 -117t-178.5 -43q-102 0 -171.5 28t-114.5 79t-64.5 124t-19.5 161zM246 1087h442v15q0 39 -15.5 74.5t-44 64.5t-69.5 46.5t-92 17.5q-49 0 -90 -16.5t-69.5 -45.5t-45 -65.5t-16.5 -75.5v-15zM891 1358l119 57q24 -39 34 -88q37 41 91.5 64.5 t103.5 23.5q66 0 121 -20.5t102 -83.5q41 49 103.5 76.5t130.5 27.5q63 0 113.5 -22.5t85 -60.5t53 -90t18.5 -114v-495h-129v495q0 82 -40 129.5t-114 47.5q-59 0 -103 -28t-67 -65v-579h-133v530q0 57 -38.5 99.5t-104.5 42.5q-68 0 -112 -26t-70 -67v-579h-129v575 q0 41 -9.5 79t-25.5 71z" />
<glyph unicode="&#xe440;" horiz-adv-x="2889" d="M96 453q1 22 13 57h2687q12 -35 12 -57q0 -27 -12 -58h-2687q-12 31 -13 58zM121 1006v16q0 76 10 144.5t72 136.5q51 57 122.5 84.5t147.5 27.5q86 0 151.5 -26.5t109.5 -75.5t67.5 -116t23.5 -146v-70h-573q0 -133 61.5 -193.5t186.5 -60.5q59 0 102 24.5t76 69.5 l115 -47q-43 -74 -123 -117t-178 -43q-102 0 -172 28t-115 79t-64.5 124t-19.5 161zM252 1087h442v15q0 39 -15 74.5t-44 64.5t-70 46.5t-92 17.5q-49 0 -90 -16.5t-69.5 -45.5t-45 -65.5t-16.5 -75.5v-15zM897 1358l119 57q25 -39 35 -88q37 41 91 64.5t103 23.5 q66 0 121 -20.5t102 -83.5q41 49 103.5 76.5t130.5 27.5q63 0 113.5 -22.5t85 -60.5t53 -90t18.5 -114v-495h-129v495q0 82 -40 129.5t-113 47.5q-59 0 -103.5 -28t-66.5 -65v-579h-134v530q0 57 -38.5 99.5t-104.5 42.5q-68 0 -112 -26t-70 -67v-579h-129v575q0 41 -9.5 79 t-25.5 71zM2071 1006v16q0 76 10 144.5t71 136.5q51 57 123 84.5t148 27.5q86 0 151.5 -26.5t109.5 -75.5t67.5 -116t23.5 -146v-70h-573q0 -133 61 -193.5t186 -60.5q59 0 102.5 24.5t76.5 69.5l114 -47q-43 -74 -122.5 -117t-178.5 -43q-102 0 -171.5 28t-115 79 t-64.5 124t-19 161zM2202 1087h442v15q0 39 -15.5 74.5t-44 64.5t-69.5 46.5t-92 17.5q-49 0 -90 -16.5t-70 -45.5t-45 -65.5t-16 -75.5v-15z" />
<glyph unicode="&#xeece;" horiz-adv-x="1560" d="M25 895v137h129v139q0 57 20.5 108.5t56 88.5t83.5 58.5t104 21.5q29 0 68.5 -6t74.5 -19v-129h-104q-127 0 -127 -123v-139h323v139q0 57 20.5 108.5t56.5 88.5t84 58.5t104 21.5q29 0 68.5 -6t74.5 -19v-129h-105q-127 0 -127 -123v-139h324v205l176 49v-254h189 l-43 -137h-146v-645q0 -61 43 -92t105 -31h55v-129l-55 -14q-31 -8 -64 -9q-53 0 -101 21.5t-83 59.5t-55.5 88.5t-20.5 107.5v643h-324v-895h-176v895h-323v-895h-176v895h-129z" />
<glyph unicode="&#xeed8;" horiz-adv-x="1294" d="M27 895v137h116v221l176 50v-271h531q31 -49 41 -108q39 61 97.5 97t131.5 36q80 0 170 -45l-61 -164q-63 33 -117 33q-53 0 -93 -28t-65.5 -75t-38 -111.5t-12.5 -138.5v-528h-176v780q0 55 -12 115h-396v-645q0 -61 43.5 -92t104.5 -31h55v-129l-55 -14q-31 -8 -64 -9 q-53 0 -101 21.5t-83 59.5t-55.5 88.5t-20.5 107.5v643h-116z" />
<glyph unicode="&#xeed9;" horiz-adv-x="1062" d="M27 895v137h116v221l176 50v-271h336v221l176 50v-271h189l-43 -137h-146v-645q0 -61 43.5 -92t104.5 -31h55v-129l-55 -14q-31 -8 -64 -9q-53 0 -101 21.5t-83 59.5t-55.5 88.5t-20.5 107.5v643h-336v-645q0 -61 43.5 -92t104.5 -31h55v-129l-55 -14q-31 -8 -64 -9 q-53 0 -101 21.5t-83 59.5t-55.5 88.5t-20.5 107.5v643h-116z" />
<glyph unicode="&#xeedb;" horiz-adv-x="1695" d="M27 895v137h116v221l176 50v-271h271q41 0 86 -11t87 -37t76.5 -66.5t57.5 -98.5l229 -598q8 -20 19.5 -32.5t34.5 -12.5h8l317 881l170 -49l-456 -1227q-35 -90 -93.5 -146.5t-144.5 -56.5q-25 0 -55 6l-84 19v129h86q47 0 79.5 13t49.5 60l69 201q-59 14 -101 55 t-64 99l-248 651q-14 37 -54.5 60.5t-105.5 23.5h-234v-645q0 -61 43.5 -92t104.5 -31h55v-129l-55 -14q-31 -8 -64 -9q-53 0 -101 21.5t-83 59.5t-55.5 88.5t-20.5 107.5v643h-116z" />
</font>
</defs>
</svg>
